<?xml version="1.0" encoding="UTF-8" standalone="no"?><svg xmlns="http://www.w3.org/2000/svg" xmlns:xlink="http://www.w3.org/1999/xlink" contentScriptType="text/ecmascript" fill="#000000" width="168.4" zoomAndPan="magnify" contentStyleType="text/css" viewBox="-0.8 -1.1 168.4 120.9" height="120.9" preserveAspectRatio="xMidYMid meet" version="1"><g data-name="Layer 2"><g id="change1_1" data-name="Layer 1"><path fill="#a5d4dd" d="M16.7,17.45C9.16,19.28,3.58,26.11,1.4,33.55S-.09,49,1.31,56.6c2.9,15.88,9,31.57,19.86,43.5s27.08,19.63,43.13,17.84,31-14.37,33.17-30.37c1.24-9.22-1.57-18.49-1.56-27.79s4.36-20,13.43-22c11.42-2.57,20.72,9.76,32.18,12.11a20.14,20.14,0,0,0,19.85-7.69c6.27-8.6,2.53-26.14-1.93-35.12-2.31-4.64-7.66-8.21-12.63-6.73C143,1.49,140.5,5.17,137.3,7.61c-10.88,8.29-29.91-1.49-42.41-.44C87,7.84,79,11.18,74.45,17.7c-4.07,5.89-4.73,13.44-7.57,20S57,50.37,50.31,47.77c-7-2.74-7.67-12.09-10.94-18.83C34.72,19.37,27,14.94,16.7,17.45Z"/></g></g></svg>