<?xml version="1.0" encoding="UTF-8" standalone="no"?><svg xmlns="http://www.w3.org/2000/svg" xmlns:xlink="http://www.w3.org/1999/xlink" contentScriptType="text/ecmascript" fill="#000000" width="41.9" zoomAndPan="magnify" contentStyleType="text/css" viewBox="0.0 -0.0 41.9 58.4" height="58.4" preserveAspectRatio="xMidYMid meet" version="1"><g fill="#f3a09e" id="change1_1"><path fill="inherit" d="M 25.730469 47.824219 C 24.917969 47.957031 24.101562 47.972656 23.304688 47.820312 C 22.8125 47.742188 21.53125 47.574219 20.441406 47.1875 C 19.34375 46.824219 18.460938 46.316406 18.460938 46.316406 L 18.390625 46.464844 C 18.390625 46.464844 18.308594 46.429688 18.175781 46.371094 C 18.042969 46.316406 17.867188 46.226562 17.671875 46.109375 C 17.269531 45.90625 16.820312 45.585938 16.488281 45.347656 C 16.398438 45.253906 15.847656 44.816406 15.457031 44.449219 C 15.082031 44.15625 14.804688 43.917969 14.816406 44.257812 C 14.660156 44 14.238281 43.496094 13.859375 42.90625 C 13.289062 42.058594 12.863281 41.035156 12.820312 40.917969 C 12.25 39.519531 12.035156 37.71875 12.40625 36.320312 C 12.722656 35.011719 13.496094 33.9375 14.433594 33.027344 C 14.972656 32.507812 15.445312 32.136719 15.945312 31.863281 C 16.441406 31.59375 16.972656 31.414062 17.605469 31.425781 C 18.285156 31.425781 18.933594 31.460938 19.664062 31.554688 C 20.363281 31.667969 21.054688 31.949219 21.632812 32.371094 C 22.28125 32.90625 22.855469 33.570312 23.371094 34.316406 C 23.878906 35.078125 24.304688 35.925781 24.699219 36.8125 C 25.429688 38.605469 25.929688 40.519531 26.085938 42.460938 C 26.234375 44.277344 26.191406 46.136719 25.730469 47.824219 Z M 41.824219 24.921875 C 41.75 23.34375 41.847656 23.503906 40.972656 22.632812 C 41.277344 22.648438 41.507812 22.476562 41.613281 22.113281 C 41.417969 22.03125 41.242188 21.898438 41.085938 21.726562 C 41.546875 21.453125 41.292969 20.914062 41.195312 20.246094 L 41.371094 19.636719 C 41.09375 19.417969 40.882812 19.144531 40.722656 18.808594 C 40.667969 18.355469 40.730469 17.617188 40.648438 17.230469 C 40.484375 16.558594 40.109375 16.648438 40.003906 16.34375 C 39.515625 15.292969 39.433594 13.824219 38.566406 12.871094 C 38.332031 13.023438 38.058594 13.074219 37.753906 13.035156 C 37.675781 12.617188 37.71875 12.25 37.890625 11.929688 C 37.714844 11.796875 37.535156 11.71875 37.347656 11.695312 C 37.246094 11.132812 36.984375 10.609375 36.589844 10.136719 C 35.878906 9.148438 35.695312 9.050781 35.046875 9.148438 C 34.269531 8.628906 34.332031 7.558594 33.664062 6.976562 C 33.191406 6.597656 32.644531 6.4375 32.105469 6.429688 C 32.167969 6.203125 32.109375 5.984375 31.929688 5.773438 C 31.269531 5.316406 31.632812 5.121094 30.675781 5.035156 C 29.746094 4.957031 30.621094 5.292969 30.242188 5.605469 C 30.039062 5.445312 29.828125 5.390625 29.613281 5.449219 C 29.71875 5.738281 29.898438 5.992188 30.144531 6.214844 C 28.648438 5.832031 29.75 5.652344 29.476562 4.832031 C 29.261719 4.363281 28.984375 3.921875 28.648438 3.523438 C 28.453125 3.019531 28.140625 2.929688 27.746094 3.277344 C 27.785156 3.304688 27.359375 3.097656 26.984375 2.914062 C 26.601562 2.753906 26.28125 2.597656 26.582031 2.632812 C 25.757812 2.539062 26.164062 2.867188 25.339844 3.085938 C 25.488281 2.671875 25.875 1.871094 25 1.699219 C 25 1.9375 24.929688 2.144531 24.796875 2.328125 C 24.042969 2.128906 23.667969 1.683594 22.667969 1.542969 C 22.453125 0.308594 22.386719 1.296875 21.539062 1.128906 C 20.453125 0.878906 19.460938 0.460938 18.359375 0.246094 C 17.957031 0.136719 17.242188 0.0976562 16.527344 0.0390625 C 16.171875 0.015625 15.816406 -0.0078125 15.5 0.0078125 C 15.183594 0.0429688 14.910156 0.0898438 14.71875 0.15625 C 14.273438 0.308594 14.027344 0.613281 13.753906 0.816406 C 13.476562 1.007812 13.175781 1.105469 12.59375 0.90625 C 12.558594 0.914062 12.980469 0.851562 13.316406 0.757812 C 13.65625 0.679688 13.914062 0.539062 13.53125 0.273438 C 13.464844 0.234375 12.777344 0.367188 12.117188 0.542969 C 11.457031 0.707031 10.8125 0.871094 10.8125 0.871094 L 11.597656 4.035156 C 11.597656 4.035156 11.957031 3.960938 12.421875 3.863281 C 12.890625 3.78125 13.457031 3.621094 13.894531 3.609375 C 14.03125 3.601562 14.777344 3.574219 15.351562 3.484375 C 15.855469 3.402344 16.242188 3.355469 15.964844 3.140625 C 16.28125 3.199219 16.976562 3.230469 17.722656 3.238281 C 18.804688 3.375 19.980469 3.4375 20.109375 3.503906 C 21.699219 3.792969 23.546875 4.246094 24.984375 4.992188 C 25.320312 5.15625 25.664062 5.304688 25.988281 5.496094 L 26.949219 6.097656 C 27.601562 6.46875 28.199219 6.9375 28.824219 7.355469 C 30.238281 8.351562 31.152344 8.894531 32.09375 10.164062 C 32.636719 10.816406 33.175781 11.519531 33.835938 12.132812 C 34.125 12.476562 34.414062 12.820312 34.699219 13.160156 C 34.988281 13.5 35.261719 13.84375 35.457031 14.222656 C 36.53125 15.894531 37.214844 17.714844 37.867188 19.578125 C 39.027344 23.355469 39.230469 27.386719 38.101562 31.296875 C 37.539062 33.277344 36.925781 35.226562 36.160156 37.128906 C 35.398438 39.023438 34.472656 40.863281 33.214844 42.433594 C 31.988281 43.964844 30.628906 45.492188 28.9375 46.566406 C 28.902344 46.140625 28.835938 45.726562 28.746094 45.320312 C 28.960938 45.015625 29.09375 45.648438 29.347656 45.332031 C 28.96875 44.730469 29.121094 42.625 29.03125 41.824219 C 28.867188 40.238281 28.96875 40.390625 28.035156 39.582031 C 28.335938 39.574219 28.558594 39.386719 28.632812 39.015625 C 28.433594 38.945312 28.246094 38.828125 28.078125 38.664062 C 28.523438 38.351562 28.214844 37.832031 28.066406 37.164062 C 28.109375 36.957031 28.152344 36.75 28.179688 36.539062 C 27.886719 36.339844 27.648438 36.082031 27.460938 35.757812 C 27.316406 35.316406 27.382812 34.535156 27.214844 34.160156 C 26.941406 33.5 26.601562 33.632812 26.417969 33.347656 C 25.839844 32.316406 25.324219 30.835938 24.097656 30.058594 C 23.925781 30.28125 23.675781 30.40625 23.367188 30.460938 C 23.140625 30.074219 22.984375 29.738281 22.992188 29.355469 C 22.761719 29.285156 22.566406 29.253906 22.363281 29.320312 C 22.160156 29.082031 21.917969 28.867188 21.640625 28.683594 C 21.363281 28.5 21.027344 28.402344 20.683594 28.3125 C 20.019531 28.058594 19.601562 28.058594 19.320312 28.066406 C 19.039062 28.089844 18.863281 28.246094 18.652344 28.519531 C 18.136719 28.632812 17.6875 28.519531 17.207031 28.417969 C 16.726562 28.304688 16.21875 28.222656 15.746094 28.410156 C 15.105469 28.695312 14.660156 29.148438 14.421875 29.664062 C 14.222656 29.527344 13.976562 29.507812 13.699219 29.636719 C 13.332031 29.898438 13.160156 29.957031 13.003906 30.046875 C 12.851562 30.136719 12.714844 30.277344 12.535156 30.753906 C 12.207031 31.691406 12.78125 30.851562 13 31.296875 C 12.777344 31.460938 12.695312 31.683594 12.710938 31.902344 C 13.015625 31.835938 13.300781 31.710938 13.582031 31.527344 C 12.902344 32.902344 12.945312 31.785156 12.066406 31.96875 C 11.574219 32.160156 11.082031 32.4375 10.628906 32.8125 C 10.082031 33.035156 9.992188 33.425781 10.351562 33.816406 C 10.367188 33.761719 10.1875 34.265625 10.042969 34.707031 C 9.9375 35.074219 9.835938 35.394531 9.808594 35.292969 C 9.859375 36.035156 10.097656 35.628906 10.472656 36.382812 C 10.046875 36.335938 9.140625 36.140625 9.242188 37.140625 C 9.46875 37.058594 9.6875 37.066406 9.902344 37.148438 C 9.910156 37.96875 9.59375 38.523438 9.917969 39.558594 C 8.910156 40.300781 9.792969 39.957031 10.039062 40.824219 C 10.371094 41.957031 10.527344 43.09375 11.058594 44.167969 C 11.246094 44.5625 11.613281 45.238281 12.078125 45.847656 C 12.535156 46.464844 13.085938 46.992188 13.457031 47.203125 C 14.347656 47.671875 15.019531 47.054688 15.585938 48.210938 C 15.628906 48.265625 14.214844 47.097656 14.433594 47.996094 C 14.472656 48.050781 15.078125 48.476562 15.707031 48.808594 C 16.332031 49.152344 16.976562 49.40625 16.976562 49.40625 L 16.996094 49.359375 C 16.996094 49.359375 17.265625 49.433594 17.617188 49.53125 C 17.972656 49.609375 18.402344 49.722656 18.730469 49.804688 C 19.960938 50.148438 21.382812 50.371094 22.648438 50.464844 C 23.347656 50.519531 23.996094 50.539062 24.613281 50.523438 C 24.113281 51.378906 23.503906 52.15625 22.730469 52.835938 C 21.347656 54.054688 19.550781 54.921875 17.652344 55.203125 C 15.792969 55.488281 13.746094 55.484375 11.730469 55.019531 C 9.722656 54.5625 7.773438 53.644531 6.257812 52.316406 C 5.875 51.972656 4.664062 51.109375 3.996094 50.355469 C 3.65625 49.976562 3.457031 49.632812 3.371094 49.40625 C 3.285156 49.179688 3.269531 49.046875 3.269531 49.046875 L 0 49.894531 C 0 49.894531 0.136719 50.234375 0.367188 50.621094 C 0.59375 51.011719 0.929688 51.421875 1.179688 51.710938 C 2.144531 52.816406 3.363281 53.5625 4.335938 54.25 C 5.542969 55.082031 6.542969 55.777344 7.625 56.285156 C 8.699219 56.792969 9.878906 57.109375 11.351562 57.007812 C 11.128906 57.84375 12.59375 57.875 13.242188 57.996094 C 13.84375 57.96875 14.410156 58.042969 14.980469 58.230469 C 15.320312 57.992188 15.664062 57.804688 16.03125 57.59375 C 16.007812 58.132812 17.847656 58.363281 19.769531 57.859375 C 21.703125 57.421875 23.523438 56.222656 23.929688 55.835938 C 23.78125 55.714844 23.738281 55.550781 23.789062 55.339844 C 23.96875 55.234375 24.105469 55.238281 24.207031 55.351562 C 24.859375 55.351562 25.222656 54.96875 25.226562 54.363281 C 26.148438 53.660156 26.90625 53.71875 26.875 52.367188 C 27.164062 52.40625 27.582031 51.933594 27.886719 51.339844 C 28.195312 50.746094 28.398438 50.054688 28.53125 49.714844 C 28.566406 49.632812 28.585938 49.550781 28.617188 49.46875 C 29.117188 49.15625 29.597656 48.769531 30.039062 48.261719 C 30.253906 48.628906 30.632812 48.558594 31.03125 48.351562 C 31.414062 48.121094 31.816406 47.773438 32.082031 47.570312 C 32.480469 47.121094 32.917969 46.757812 33.445312 46.476562 C 33.503906 46.074219 33.605469 45.691406 33.710938 45.292969 C 34.089844 45.6875 35.464844 44.554688 36.5625 43.027344 C 37.667969 41.515625 38.480469 39.695312 38.640625 39.203125 C 38.457031 39.171875 38.335938 39.054688 38.273438 38.851562 C 38.375 38.6875 38.496094 38.628906 38.640625 38.683594 C 39.179688 38.402344 39.332031 37.976562 39.078125 37.445312 C 39.617188 36.5 40.34375 36.417969 39.914062 35.21875 C 40.527344 35.175781 40.882812 33.246094 41.085938 32.609375 C 41.542969 31.25 41.542969 29.800781 41.324219 28.394531 C 41.550781 28.105469 41.652344 28.738281 41.917969 28.441406 C 41.585938 27.847656 41.855469 25.699219 41.824219 24.921875"/><path fill="inherit" d="M 24.25 55.605469 C 24.28125 55.492188 24.285156 55.414062 24.199219 55.371094 C 24.097656 55.472656 24.050781 55.558594 24.25 55.605469"/></g></svg>