<?xml version="1.0" encoding="UTF-8" standalone="no"?><svg xmlns="http://www.w3.org/2000/svg" xmlns:xlink="http://www.w3.org/1999/xlink" contentScriptType="text/ecmascript" fill="#000000" width="368.3" zoomAndPan="magnify" contentStyleType="text/css" viewBox="65.7 145.0 368.3 221.8" height="221.8" preserveAspectRatio="xMidYMid meet" version="1"><g><g id="change1_1"><path fill="#cedde6" d="M431.99,247.69c-0.31-17.36-0.32-34.73-0.42-52.08c-0.07-11.44-0.12-22.88-0.07-34.32 c0.01-1.76-1.5-3.25-3.25-3.25c-46.82-0.25-93.64-0.28-140.45-0.27c-46.54,0.01-93.07,0.04-139.61,0.06 c-26.23,0.01-52.46,0.02-78.68,0.04c-1.79,0-3.21,1.49-3.25,3.25c-0.53,22.7-0.09,45.45,0.09,68.16 c0.09,12.16,0.13,24.32,0.4,36.47c0.48,22.05,1.36,59.08,1.72,81.13c0.05,2.75,0.09,5.51,0.12,8.26c0.01,1.5,0.14,2.6,1.29,3.69 c0.82,0.77,1.78,1.44,2.75,2c3.59,2.05,7.95,2.99,12.08,2.99c4.74-0.01,9.24-1.68,13.7-3.09c4.71-1.48,9.23-2.21,14.16-1.61 c9.64,1.15,18.73,5.22,28.59,4.74c9.99-0.49,19.48-4.65,29.51-4.48c10.22,0.17,19.84,4.43,29.88,5.91 c10.22,1.5,20.46,0.25,30.51-1.84c10.04-2.09,19.92-4.96,30.07-6.51c10.14-1.54,20.48-1.33,30.67-0.54 c20.85,1.62,41.66,5.92,62.65,4.38c10.38-0.76,20.51-3.16,30.69-5.23c9.86-2,19.99-3.66,30.06-2.42 c5.23,0.64,10.27,2.32,15.57,2.53c1.27,0.05,2.16-0.52,2.65-1.34c0.01-0.01,0.02-0.02,0.03-0.04c0.01-0.02,0.03-0.04,0.04-0.06 c0.34-0.48,0.53-1.08,0.53-1.82C433.94,322.51,432.51,277.61,431.99,247.69z"/></g><g id="change2_1"><path fill="#79a546" d="M110.16,182.78c-1.5,6.56-9.05,13.29-15.14,7.45c-6.69-7.29-4.95-30.6-1.82-39.63 c2.7-5.48,12.83-5.59,16.39-1.05c1.61,2.6,0.95,5.84,1.1,8.75c-1.4-0.01-2.8-0.03-4.2-0.04c-0.03-1.77,0.06-3.68-0.08-5.39 c-0.08-0.53-0.26-1.05-0.67-1.41c-0.21-0.12-0.41-0.26-0.65-0.34c0.03,0.01,0.09,0.03,0.16,0.05c-0.48-0.18-0.99-0.3-1.49-0.39 c-1.38-0.12-2.77-0.17-4.15-0.04c-0.45,0.12-0.92,0.16-1.34,0.39c0-0.01,0.01-0.01,0.02-0.02c-0.17,0.07-0.34,0.2-0.51,0.3 c-0.17,0.13-0.31,0.3-0.46,0.45v0c0,0,0,0,0,0c-0.24,0.36-0.42,0.66-0.6,1.07c-2.24,8.36-3.46,26.03,0.66,33.68 c0.3,0.36,0.59,0.66,0.98,0.95c-0.01,0-0.02-0.01-0.04-0.03c0.03,0.02,0.06,0.04,0.07,0.05v0c0,0,0.01,0,0.01,0 c0.63,0.45,1.41,0.76,2.2,0.69h-0.05c0.73-0.03,1.42-0.42,2.01-0.84c0,0,0,0,0,0c0.49-0.42,0.93-0.88,1.34-1.38v0 c0,0,0-0.01,0.01-0.01c1.69-2.36,2.61-5.17,3.07-8.02c0-0.01,0-0.03,0-0.04c0,0,0,0,0,0c0.22-1.81,0.23-3.56,0.01-5.37 c0,0,0,0.01,0,0.02c-0.14-1.14,0.3-2.14,1.48-2.52C113.37,169.38,110.94,180.09,110.16,182.78z"/></g><g fill="#ffffff"><g id="change3_7"><circle r="1.59" cx="139.03" transform="rotate(-.67 139.009 188.463)" cy="188.49"/><path d="M161.04,186.64c-0.88,0.01-1.58,0.73-1.57,1.61c0.01,0.88,0.73,1.58,1.61,1.57 c0.88-0.01,1.58-0.73,1.57-1.61S161.92,186.63,161.04,186.64z"/><path d="M183.08,186.38c-0.88,0.01-1.58,0.73-1.57,1.61c0.01,0.88,0.73,1.58,1.61,1.57 c0.88-0.01,1.58-0.73,1.57-1.61C184.67,187.07,183.96,186.37,183.08,186.38z"/><path d="M205.11,186.12c-0.88,0.01-1.58,0.73-1.57,1.61c0.01,0.88,0.73,1.58,1.61,1.57 c0.88-0.01,1.58-0.73,1.57-1.61C206.71,186.82,205.99,186.11,205.11,186.12z"/><path d="M227.15,185.87c-0.88,0.01-1.58,0.73-1.57,1.61c0.01,0.88,0.73,1.58,1.61,1.57 c0.88-0.01,1.58-0.73,1.57-1.61C228.75,186.56,228.03,185.86,227.15,185.87z"/><circle r="1.59" cx="249.2" transform="rotate(-.67 249.178 187.176)" cy="187.2"/><circle r="1.59" cx="271.24" cy="186.94"/><circle r="1.59" cx="293.27" transform="rotate(-.67 293.241 186.656)" cy="186.68"/><path d="M315.29,184.84c-0.88,0.01-1.58,0.73-1.57,1.61s0.73,1.58,1.61,1.57c0.88-0.01,1.58-0.73,1.57-1.61 S316.17,184.83,315.29,184.84z"/><path d="M337.33,184.58c-0.88,0.01-1.58,0.73-1.57,1.61s0.73,1.58,1.61,1.57c0.88-0.01,1.58-0.73,1.57-1.61 S338.2,184.57,337.33,184.58z"/><circle r="1.59" cx="359.38" transform="rotate(-.67 359.34 185.889)" cy="185.91"/><circle r="1.59" cx="381.42" cy="185.65"/><circle r="1.59" cx="403.45" transform="rotate(-.67 403.403 185.369)" cy="185.39"/></g><g id="change3_6"><circle r="1.59" cx="95.2" transform="rotate(-.67 95.19 210.001)" cy="210.03"/><circle r="1.59" cx="117.24" cy="209.77"/><circle r="1.59" cx="139.27" transform="rotate(-.67 139.253 209.49)" cy="209.51"/><path d="M161.29,207.67c-0.88,0.01-1.58,0.73-1.57,1.61c0.01,0.88,0.73,1.58,1.61,1.57 c0.88-0.01,1.58-0.73,1.57-1.61C162.89,208.36,162.17,207.66,161.29,207.67z"/><path d="M183.32,207.41c-0.88,0.01-1.58,0.73-1.57,1.61c0.01,0.88,0.73,1.58,1.61,1.57 c0.88-0.01,1.58-0.73,1.57-1.61S184.2,207.4,183.32,207.41z"/><path d="M205.36,207.15c-0.88,0.01-1.58,0.73-1.57,1.61c0.01,0.88,0.73,1.58,1.61,1.57 c0.88-0.01,1.58-0.73,1.57-1.61C206.96,207.84,206.24,207.14,205.36,207.15z"/><path d="M227.4,206.89c-0.88,0.01-1.58,0.73-1.57,1.61s0.73,1.58,1.61,1.57c0.88-0.01,1.58-0.73,1.57-1.61 C228.99,207.59,228.27,206.88,227.4,206.89z"/><circle r="1.59" cx="249.45" transform="rotate(-.67 249.423 208.203)" cy="208.22"/><circle r="1.59" cx="271.48" cy="207.97"/><circle r="1.59" cx="293.52" transform="rotate(-.67 293.486 207.683)" cy="207.71"/><path d="M315.54,205.86c-0.88,0.01-1.58,0.73-1.57,1.61s0.73,1.58,1.61,1.57c0.88-0.01,1.58-0.73,1.57-1.61 C317.13,206.55,316.41,205.85,315.54,205.86z"/><path d="M337.57,205.6c-0.88,0.01-1.58,0.73-1.57,1.61s0.73,1.58,1.61,1.57c0.88-0.01,1.58-0.73,1.57-1.61 C339.17,206.3,338.45,205.59,337.57,205.6z"/><circle r="1.59" cx="359.63" transform="rotate(-.67 359.584 206.916)" cy="206.94"/><circle r="1.59" cx="381.66" cy="206.68"/><circle r="1.59" cx="403.7" transform="rotate(-.67 403.647 206.396)" cy="206.42"/></g><g id="change3_1"><circle r="1.59" cx="95.45" transform="rotate(-.67 95.435 231.028)" cy="231.06"/><circle r="1.59" cx="117.48" cy="230.8"/><circle r="1.59" cx="139.52" transform="rotate(-.67 139.498 230.517)" cy="230.54"/><path d="M161.53,228.69c-0.88,0.01-1.58,0.73-1.57,1.61c0.01,0.88,0.73,1.58,1.61,1.57 c0.88-0.01,1.58-0.73,1.57-1.61C163.13,229.39,162.41,228.68,161.53,228.69z"/><path d="M183.57,228.44c-0.88,0.01-1.58,0.73-1.57,1.61c0.01,0.88,0.73,1.58,1.61,1.57 c0.88-0.01,1.58-0.73,1.57-1.61C185.17,229.13,184.45,228.43,183.57,228.44z"/><path d="M205.61,228.18c-0.88,0.01-1.58,0.73-1.57,1.61c0.01,0.88,0.73,1.58,1.61,1.57 c0.88-0.01,1.58-0.73,1.57-1.61S206.48,228.17,205.61,228.18z"/><path d="M227.64,227.92c-0.88,0.01-1.58,0.73-1.57,1.61c0.01,0.88,0.73,1.58,1.61,1.57 c0.88-0.01,1.58-0.73,1.57-1.61C229.24,228.61,228.52,227.91,227.64,227.92z"/><circle r="1.59" cx="249.7" transform="rotate(-.67 249.668 229.221)" cy="229.25"/><circle r="1.59" cx="271.73" cy="228.99"/><circle r="1.59" cx="293.77" transform="rotate(-.67 293.73 228.71)" cy="228.74"/><path d="M315.78,226.89c-0.88,0.01-1.58,0.73-1.57,1.61c0.01,0.88,0.73,1.58,1.61,1.57 c0.88-0.01,1.58-0.73,1.57-1.61C317.38,227.58,316.66,226.88,315.78,226.89z"/><path d="M337.82,226.63c-0.88,0.01-1.58,0.73-1.57,1.61s0.73,1.58,1.61,1.57c0.88-0.01,1.58-0.73,1.57-1.61 C339.42,227.32,338.7,226.62,337.82,226.63z"/><circle r="1.59" cx="359.87" transform="rotate(-.67 359.829 227.934)" cy="227.96"/><circle r="1.59" cx="381.91" cy="227.7"/><circle r="1.59" cx="403.94" transform="rotate(-.67 403.9 227.423)" cy="227.45"/></g><g id="change3_4"><circle r="1.59" cx="95.69" transform="rotate(-.67 95.68 252.055)" cy="252.08"/><circle r="1.59" cx="117.73" cy="251.83"/><circle r="1.59" cx="139.76" transform="rotate(-.67 139.75 251.536)" cy="251.57"/><path d="M161.78,249.72c-0.88,0.01-1.58,0.73-1.57,1.61c0.01,0.88,0.73,1.58,1.61,1.57 c0.88-0.01,1.58-0.73,1.57-1.61S162.66,249.71,161.78,249.72z"/><path d="M183.82,249.46c-0.88,0.01-1.58,0.73-1.57,1.61c0.01,0.88,0.73,1.58,1.61,1.57 c0.88-0.01,1.58-0.73,1.57-1.61C185.41,250.16,184.69,249.45,183.82,249.46z"/><path d="M205.85,249.21c-0.88,0.01-1.58,0.73-1.57,1.61c0.01,0.88,0.73,1.58,1.61,1.57 c0.88-0.01,1.58-0.73,1.57-1.61C207.45,249.9,206.73,249.2,205.85,249.21z"/><path d="M227.89,248.95c-0.88,0.01-1.58,0.73-1.57,1.61c0.01,0.88,0.73,1.58,1.61,1.57 c0.88-0.01,1.58-0.73,1.57-1.61C229.48,249.64,228.76,248.94,227.89,248.95z"/><circle r="1.59" cx="249.94" transform="rotate(-.67 249.912 250.248)" cy="250.28"/><circle r="1.59" cx="271.98" cy="250.02"/><circle r="1.59" cx="294.01" transform="rotate(-.67 293.975 249.737)" cy="249.76"/><path d="M316.03,247.92c-0.88,0.01-1.58,0.73-1.57,1.61c0.01,0.88,0.73,1.58,1.61,1.57 c0.88-0.01,1.58-0.73,1.57-1.61C317.63,248.61,316.91,247.91,316.03,247.92z"/><path d="M338.06,247.66c-0.88,0.01-1.58,0.73-1.57,1.61c0.01,0.88,0.73,1.58,1.61,1.57 c0.88-0.01,1.58-0.73,1.57-1.61C339.66,248.35,338.94,247.65,338.06,247.66z"/><circle r="1.59" cx="360.12" transform="rotate(-.67 360.073 248.961)" cy="248.99"/><circle r="1.59" cx="382.15" cy="248.73"/><circle r="1.59" cx="404.19" transform="rotate(-.67 404.145 248.45)" cy="248.47"/></g><g id="change3_2"><circle r="1.59" cx="95.94" transform="rotate(-.67 95.924 273.083)" cy="273.11"/><circle r="1.59" cx="117.97" cy="272.85"/><circle r="1.59" cx="140.01" transform="rotate(-.67 139.995 272.563)" cy="272.59"/><path d="M162.03,270.75c-0.88,0.01-1.58,0.73-1.57,1.61c0.01,0.88,0.73,1.58,1.61,1.57 c0.88-0.01,1.58-0.73,1.57-1.61C163.62,271.44,162.9,270.74,162.03,270.75z"/><path d="M184.06,270.49c-0.88,0.01-1.58,0.73-1.57,1.61c0.01,0.88,0.73,1.58,1.61,1.57 c0.88-0.01,1.58-0.73,1.57-1.61S184.94,270.48,184.06,270.49z"/><path d="M206.1,270.23c-0.88,0.01-1.58,0.73-1.57,1.61c0.01,0.88,0.73,1.58,1.61,1.57 c0.88-0.01,1.58-0.73,1.57-1.61C207.69,270.93,206.97,270.22,206.1,270.23z"/><path d="M228.13,269.98c-0.88,0.01-1.58,0.73-1.57,1.61s0.73,1.58,1.61,1.57s1.58-0.73,1.57-1.61 C229.73,270.67,229.01,269.97,228.13,269.98z"/><circle r="1.59" cx="250.19" transform="rotate(-.67 250.157 271.275)" cy="271.31"/><circle r="1.59" cx="272.22" cy="271.05"/><circle r="1.59" cx="294.26" transform="rotate(-.67 294.228 270.756)" cy="270.79"/><path d="M316.28,268.94c-0.88,0.01-1.58,0.73-1.57,1.61c0.01,0.88,0.73,1.58,1.61,1.57 c0.88-0.01,1.58-0.73,1.57-1.61S317.15,268.93,316.28,268.94z"/><path d="M338.31,268.69c-0.88,0.01-1.58,0.73-1.57,1.61c0.01,0.88,0.73,1.58,1.61,1.57 c0.88-0.01,1.58-0.73,1.57-1.61C339.91,269.38,339.19,268.68,338.31,268.69z"/><circle r="1.59" cx="360.36" transform="rotate(-.67 360.326 269.988)" cy="270.02"/><circle r="1.59" cx="382.4" cy="269.76"/><circle r="1.59" cx="404.44" transform="rotate(-.67 404.39 269.468)" cy="269.5"/></g><g id="change3_3"><circle r="1.59" cx="96.18" transform="rotate(-.67 96.177 294.101)" cy="294.14"/><circle r="1.59" cx="118.22" cy="293.88"/><circle r="1.59" cx="140.26" transform="rotate(-.67 140.24 293.59)" cy="293.62"/><path d="M162.27,291.78c-0.88,0.01-1.58,0.73-1.57,1.61c0.01,0.88,0.73,1.58,1.61,1.57 c0.88-0.01,1.58-0.73,1.57-1.61C163.87,292.47,163.15,291.77,162.27,291.78z"/><path d="M184.31,291.52c-0.88,0.01-1.58,0.73-1.57,1.61c0.01,0.88,0.73,1.58,1.61,1.57 c0.88-0.01,1.58-0.73,1.57-1.61C185.9,292.21,185.19,291.51,184.31,291.52z"/><path d="M206.34,291.26c-0.88,0.01-1.58,0.73-1.57,1.61c0.01,0.88,0.73,1.58,1.61,1.57 c0.88-0.01,1.58-0.73,1.57-1.61S207.22,291.25,206.34,291.26z"/><path d="M228.38,291c-0.88,0.01-1.58,0.73-1.57,1.61c0.01,0.88,0.73,1.58,1.61,1.57c0.88-0.01,1.58-0.73,1.57-1.61 C229.98,291.7,229.26,290.99,228.38,291z"/><circle r="1.59" cx="250.43" transform="rotate(-.67 250.401 292.303)" cy="292.33"/><circle r="1.59" cx="272.47" cy="292.08"/><circle r="1.59" cx="294.5" transform="rotate(-.67 294.472 291.783)" cy="291.82"/><path d="M316.52,289.97c-0.88,0.01-1.58,0.73-1.57,1.61s0.73,1.58,1.61,1.57c0.88-0.01,1.58-0.73,1.57-1.61 S317.4,289.96,316.52,289.97z"/><path d="M338.56,289.71c-0.88,0.01-1.58,0.73-1.57,1.61c0.01,0.88,0.73,1.58,1.61,1.57 c0.88-0.01,1.58-0.73,1.57-1.61S339.43,289.7,338.56,289.71z"/><circle r="1.59" cx="360.61" transform="rotate(-.67 360.571 291.007)" cy="291.04"/><circle r="1.59" cx="382.65" cy="290.79"/><circle r="1.59" cx="404.68" transform="rotate(-.67 404.634 290.495)" cy="290.53"/></g><g id="change3_5"><circle r="1.59" cx="96.43" transform="rotate(-.67 96.421 315.128)" cy="315.16"/><circle r="1.59" cx="118.47" cy="314.91"/><circle r="1.59" cx="140.5" transform="rotate(-.67 140.484 314.617)" cy="314.65"/><path d="M162.52,312.8c-0.88,0.01-1.58,0.73-1.57,1.61c0.01,0.88,0.73,1.58,1.61,1.57 c0.88-0.01,1.58-0.73,1.57-1.61S163.4,312.79,162.52,312.8z"/><path d="M184.55,312.55c-0.88,0.01-1.58,0.73-1.57,1.61c0.01,0.88,0.73,1.58,1.61,1.57 c0.88-0.01,1.58-0.73,1.57-1.61C186.15,313.24,185.43,312.54,184.55,312.55z"/><path d="M206.59,312.29c-0.88,0.01-1.58,0.73-1.57,1.61c0.01,0.88,0.73,1.58,1.61,1.57 c0.88-0.01,1.58-0.73,1.57-1.61C208.19,312.98,207.47,312.28,206.59,312.29z"/><path d="M228.63,312.03c-0.88,0.01-1.58,0.73-1.57,1.61c0.01,0.88,0.73,1.58,1.61,1.57 c0.88-0.01,1.58-0.73,1.57-1.61C230.22,312.72,229.5,312.02,228.63,312.03z"/><circle r="1.59" cx="250.68" transform="rotate(-.67 250.654 313.321)" cy="313.36"/><circle r="1.59" cx="272.71" cy="313.1"/><circle r="1.59" cx="294.75" transform="rotate(-.67 294.717 312.81)" cy="312.84"/><path d="M316.77,311c-0.88,0.01-1.58,0.73-1.57,1.61s0.73,1.58,1.61,1.57c0.88-0.01,1.58-0.73,1.57-1.61 S317.64,310.99,316.77,311z"/><path d="M338.8,310.74c-0.88,0.01-1.58,0.73-1.57,1.61s0.73,1.58,1.61,1.57c0.88-0.01,1.58-0.73,1.57-1.61 S339.68,310.73,338.8,310.74z"/><circle r="1.59" cx="360.86" transform="rotate(-.67 360.816 312.034)" cy="312.07"/><circle r="1.59" cx="382.89" cy="311.81"/><circle r="1.59" cx="404.93" transform="rotate(-.67 404.878 311.523)" cy="311.56"/></g><g id="change3_8"><circle r="1.59" cx="96.68" transform="rotate(-.67 96.666 336.155)" cy="336.19"/><circle r="1.59" cx="118.71" cy="335.93"/><circle r="1.59" cx="140.75" transform="rotate(-.67 140.729 335.635)" cy="335.68"/><path d="M162.76,333.83c-0.88,0.01-1.58,0.73-1.57,1.61c0.01,0.88,0.73,1.58,1.61,1.57 c0.88-0.01,1.58-0.73,1.57-1.61C164.36,334.52,163.64,333.82,162.76,333.83z"/><path d="M184.8,333.57c-0.88,0.01-1.58,0.73-1.57,1.61c0.01,0.88,0.73,1.58,1.61,1.57 c0.88-0.01,1.58-0.73,1.57-1.61S185.68,333.56,184.8,333.57z"/><path d="M206.84,333.32c-0.88,0.01-1.58,0.73-1.57,1.61c0.01,0.88,0.73,1.58,1.61,1.57 c0.88-0.01,1.58-0.73,1.57-1.61C208.43,334.01,207.71,333.3,206.84,333.32z"/><path d="M228.87,333.06c-0.88,0.01-1.58,0.73-1.57,1.61c0.01,0.88,0.73,1.58,1.61,1.57s1.58-0.73,1.57-1.61 C230.47,333.75,229.75,333.05,228.87,333.06z"/><circle r="1.59" cx="250.93" transform="rotate(-.67 250.899 334.348)" cy="334.39"/><circle r="1.59" cx="272.96" cy="334.13"/><circle r="1.59" cx="295" transform="rotate(-.67 294.961 333.837)" cy="333.87"/><path d="M317.01,332.03c-0.88,0.01-1.58,0.73-1.57,1.61s0.73,1.58,1.61,1.57c0.88-0.01,1.58-0.73,1.57-1.61 C318.61,332.72,317.89,332.02,317.01,332.03z"/><path d="M339.05,331.77c-0.88,0.01-1.58,0.73-1.57,1.61s0.73,1.58,1.61,1.57c0.88-0.01,1.58-0.73,1.57-1.61 C340.65,332.46,339.93,331.76,339.05,331.77z"/><circle r="1.59" cx="361.1" transform="rotate(-.67 361.06 333.061)" cy="333.1"/><circle r="1.59" cx="383.14" cy="332.84"/><circle r="1.59" cx="405.17" transform="rotate(-.67 405.131 332.541)" cy="332.58"/></g></g></g></svg>