<?xml version="1.0" encoding="UTF-8" standalone="no"?><svg xmlns="http://www.w3.org/2000/svg" xmlns:xlink="http://www.w3.org/1999/xlink" contentScriptType="text/ecmascript" fill="#000000" width="159.1" zoomAndPan="magnify" contentStyleType="text/css" viewBox="-4.0 -7.0 159.1 136.8" height="136.8" preserveAspectRatio="xMidYMid meet" version="1"><g data-name="Layer 2"><g fill="#ead1d0" id="change1_1" data-name="Layer 1"><path d="M15.89,116.54c9.39,6.38,21.58,6.31,32.93,6,10.65-.28,22.48-1.06,29.87-8.73,7.57-7.86,7.72-20,7.4-30.95-.26-8.8-1-18.7-7.72-24.41-5.26-4.49-12.71-5-19.62-5.39-17.6-.88-47.06-9.61-55.81,10.36C-3.95,79.17,1.63,106.86,15.89,116.54Z"/><path d="M59,66.12c9.39,6.37,21.58,6.31,32.93,6,10.65-.28,22.48-1.06,29.87-8.73,7.57-7.86,7.72-20,7.4-30.95-.26-8.8-1-18.7-7.72-24.41-5.26-4.49-12.71-5-19.62-5.39C84.24,1.77,54.78-7,46,13,39.14,28.75,44.72,56.44,59,66.12Z"/><path d="M113,126c5.61,3.8,12.89,3.76,19.67,3.58,6.36-.16,13.42-.63,17.84-5.21s4.61-12,4.42-18.49c-.16-5.25-.61-11.16-4.61-14.57-3.14-2.68-7.6-3-11.72-3.22-10.51-.53-28.11-5.74-33.33,6.19C101.17,103.71,104.5,120.24,113,126Z"/></g></g></svg>