<?xml version="1.0" encoding="UTF-8" standalone="no"?><svg xmlns="http://www.w3.org/2000/svg" xmlns:xlink="http://www.w3.org/1999/xlink" contentScriptType="text/ecmascript" fill="#000000" width="173.3" zoomAndPan="magnify" contentStyleType="text/css" viewBox="-0.0 0.0 173.3 176.3" height="176.3" preserveAspectRatio="xMidYMid meet" version="1"><g data-name="Layer 2"><g id="change1_1" data-name="Layer 1"><path fill="#8f95c3" d="M114.48,19.89v19A19.88,19.88,0,0,1,94.59,58.77h-19A19.9,19.9,0,0,0,55.71,78.66v19a19.88,19.88,0,0,1-19.89,19.89H19.89A19.9,19.9,0,0,0,0,137.44v14.2a24.68,24.68,0,0,0,24.67,24.68H143.56a29.7,29.7,0,0,0,29.7-29.7V24.67A24.68,24.68,0,0,0,148.58,0H134.37A19.9,19.9,0,0,0,114.48,19.89Z"/></g></g></svg>