<?xml version="1.0" encoding="UTF-8" standalone="no"?><svg xmlns="http://www.w3.org/2000/svg" xmlns:xlink="http://www.w3.org/1999/xlink" contentScriptType="text/ecmascript" fill="#000000" width="164.4" zoomAndPan="magnify" contentStyleType="text/css" viewBox="-2.2 -10.4 164.4 134.3" height="134.3" preserveAspectRatio="xMidYMid meet" version="1"><g data-name="Layer 2"><g id="change1_1" data-name="Layer 1"><path fill="#a5d4dd" d="M107.47,111.89c-10.1-11-7.19-30.79-21-38.59-8.22-4.64-18.63.29-25.64,6.63s-13.06,14.41-22,17.47c-35,12-41.07-46.05-38.14-67.3C2.18,19,5.1,6,15.47,1.64,44.36-10.38,51,48.53,82.89,20.25,88.86,15,94.61,9,102.1,6.17c12.51-4.67,27.08,1,36.23,10.76s13.87,22.74,17.51,35.59,6.35,26.55,1.72,38.93c-5.74,15.35-24.59,32.49-41.85,25.94A21.12,21.12,0,0,1,107.47,111.89Z"/></g></g></svg>