<?xml version="1.0" encoding="UTF-8" standalone="no"?><svg xmlns="http://www.w3.org/2000/svg" xmlns:xlink="http://www.w3.org/1999/xlink" contentScriptType="text/ecmascript" fill="#000000" width="327.8" zoomAndPan="magnify" contentStyleType="text/css" viewBox="11.7 4.9 327.8 491.0" height="491" preserveAspectRatio="xMidYMid meet" version="1"><defs><clipPath id="a"><path fill="none" d="M158,122.38a6.41,6.41,0,0,0-5.55,3.87,6.41,6.41,0,0,0-2,4.33c-2,29.24-5.72,60.92,0,90,2.06,10.52,8.89,11.15,18.59,11.64,8.67.44,26.43,3.08,31.67-6.06,2.65-4.62,2-10.92,2.18-16q.51-11.79,1-23.57c.61-14.12,1.86-28.39,1.81-42.52C205.59,115.72,178,120.88,158,122.38Z"/></clipPath></defs><g data-name="Layer 1"><g id="change1_1"><path fill="#f7ecd0" d="M323.89,310.7c-1-5.73-7.79-10.48-13.42-10.22-46.11,2.06-92.47,5.66-138.64,4.91a345.36,345.36,0,0,1-67-7.31c-22-4.73-43.92-10.18-66.55-11.12-5.45-.23-9.23,2.19-11.36,5.69-6.4.63-12.42,5.08-12.59,13.35q-.62,31.46-.47,62.92c.11,18.45-2.17,39.71,3.78,57.47,6.16,18.36,21.81,28.34,38.7,35.88,17.64,7.87,36.23,13.67,54.91,18.51,37.72,9.77,77.53,15.07,116.43,10.64,34.72-4,77-12.2,90.71-48.82,7-18.73,7.8-40.92,9-60.67A308.88,308.88,0,0,0,323.89,310.7Z"/></g><g id="change2_2"><path fill="#e985a6" d="M336.41,205.77c-.88-7.46-5,13.49-13.19,13.49a14.16,14.16,0,0,0-6.8,1.93,13.28,13.28,0,0,0-13,3.24c-31.19,28.57-76.76,31.46-116.95,29.9a429.24,429.24,0,0,1-72.67-9.07q-18.84-4-37.3-9.62c-8.12-2.46-20.83-4.66-25.89-12.34A13.52,13.52,0,0,0,41,217.07c-7.12-4-15.17-25.17-18.23-15-6.08,20.24-10,64.59-5.37,85.28,3.94,17.77,18.75,35.7,39,30.07A30.12,30.12,0,0,0,67.7,311c1.42-1.18,3.59-4.22,5.62-4.45,6.91-.76,9.76,10.06,10.7,14.81,3.59,18.23,0,37.82,13.56,52.83,12.83,14.25,33.69,12.82,44.93-2.48,5.5-7.5,7.33-16,8.4-25.12.47-4,.52-8.25,1.73-12.14.39-1.23,1.76-3.1,2-4.22.09-.12.21-.21.31-.33,6.56,13.93,13.52,29.42,29.49,34.5,20,6.35,33.22-9.29,41.37-25.15.91-1.78,1.75-3.64,2.82-5.34-.34.54,1.64-2.1,2.69-3.43.79,1.78,1.84,3.78,2.07,4.22a35.2,35.2,0,0,0,19.67,16.64,33.77,33.77,0,0,0,25.72-1.07A30.57,30.57,0,0,0,289.83,341c1.11-1.46,3.58-5.7,5.2-7.92,2.52,1.69,5,3.41,8.08,4.22A21.73,21.73,0,0,0,318,335.73c9.54-4.62,14.37-15.05,16.37-25C339.47,285.28,339.48,231.55,336.41,205.77Z"/></g><g id="change3_1"><ellipse rx="158.68" ry="70.53" fill="#f5a7bb" cx="179.59" cy="211.34"/></g><g id="change1_2"><path fill="#f7ecd0" d="M158,122.38a6.41,6.41,0,0,0-5.55,3.87,6.41,6.41,0,0,0-2,4.33c-2,29.24-5.72,60.92,0,90,2.06,10.52,8.89,11.15,18.59,11.64,8.67.44,26.43,3.08,31.67-6.06,2.65-4.62,2-10.92,2.18-16q.51-11.79,1-23.57c.61-14.12,1.86-28.39,1.81-42.52C205.59,115.72,178,120.88,158,122.38Z"/></g><g fill="#e985a6" id="change2_1" clip-path="url(#a)"><path d="M211.47,218.12a99.51,99.51,0,0,1-78.64-41.46c-4.81-6.75-16.08-.27-11.22,6.56a113.3,113.3,0,0,0,89.86,47.89C219.84,231.31,219.83,218.31,211.47,218.12Z"/><path d="M214.71,181.35c-14.19,2-30.87-5.14-42.88-12.11-11.08-6.43-26-16.44-29-29.7-1.83-8.16-14.36-4.71-12.53,3.45,3.78,16.83,20.78,29.28,34.94,37.47,15.63,9,34.7,16,52.89,13.41C226.41,192.72,222.9,180.2,214.71,181.35Z"/><path d="M225,147.83a80.44,80.44,0,0,1-34.25-12c-8.06-5.07-25-17.34-23.67-28.22,1-8.28-12-8.2-13,0-1.83,14.75,14.69,28.52,25.37,36.23C192.9,153.61,208.5,159,225,160.82,233.25,161.72,233.19,148.72,225,147.83Z"/></g><g id="change4_1"><path fill="#f1d077" d="M188.05,62a5.21,5.21,0,0,0-5.27-4.68,6.44,6.44,0,0,0-8.05,4.27c-2.32,7.25-9,11.83-13.45,17.71a32,32,0,0,0-6.74,17c-1.1,14.55,10.17,22.2,23.81,20.53,12.29-1.5,23.7-8.07,25.06-21.46C204.92,80.51,190.23,74.91,188.05,62Z"/></g><g id="change3_2"><path fill="#f5a7bb" d="M175,13.27V28.12c0,8.36,13,8.38,13,0V13.27C187.94,4.92,175,4.9,175,13.27Z"/></g><g id="change3_3"><path fill="#f5a7bb" d="M216.84,22.64l-5.06,14C208.93,44.46,221.14,48.9,224,41l5.07-14C231.91,19.21,219.7,14.77,216.84,22.64Z"/></g><g id="change3_4"><path fill="#f5a7bb" d="M146,22.64l5.07,14c2.85,7.86-9.36,12.3-12.22,4.43l-5.06-14C131,19.21,143.19,14.77,146,22.64Z"/></g></g></svg>