<?xml version="1.0" encoding="UTF-8" standalone="no"?><svg xmlns="http://www.w3.org/2000/svg" xmlns:xlink="http://www.w3.org/1999/xlink" contentScriptType="text/ecmascript" fill="#000000" width="94.9" zoomAndPan="magnify" contentStyleType="text/css" viewBox="-0.0 -0.3 94.9 72.5" height="72.5" preserveAspectRatio="xMidYMid meet" version="1"><g><g stroke-linejoin="round" stroke-linecap="round" color="#000"><g id="change1_1"><path fill="#6f7b57" d="m83.07 111.29c-1.7852 0.29753-2.7341 1.498-3.5781 2.7539-0.84404 1.2559-1.5744 2.7943-2.2832 4.5664-1.4177 3.5442-2.7092 8.0139-3.832 12.447-1.77 6.9885-2.4979 11.247-2.9824 13.852-2.0103-1.7784-5.4675-4.9174-11.516-9.6387-3.7899-2.9585-7.7558-5.8576-11.23-7.9394-1.7373-1.0409-3.3453-1.8801-4.8398-2.4258-1.4945-0.54569-2.9208-0.97188-4.5762-0.32812-1.0268 0.39932-1.7501 1.3593-2.043 2.2031-0.2929 0.84383-0.33005 1.6462-0.29297 2.4961 0.07416 1.6997 0.51466 3.6363 1.1797 5.9004 1.33 4.5282 3.6211 10.279 6.2207 16.307 5.1993 12.055 11.672 25.251 13.881 30.553a2.2502 2.2502 0 0 0 3.0449 1.166c25.601-12.196 38.206-7.8786 53.463-5.3242a2.2502 2.2502 0 0 0 2.4688-1.4062s4.7643-12.288 8.8476-25c2.0417-6.3562 3.9162-12.81 4.9531-17.994 0.51846-2.5923 0.83596-4.8531 0.82617-6.7617-5e-3 -0.95429-0.0811-1.8235-0.34766-2.6816-0.26657-0.85815-0.79157-1.8215-1.8125-2.3887-1.6398-0.91101-3.2935-0.53222-4.8047 0.0332-1.5112 0.56542-3.0738 1.4696-4.752 2.6035-3.3564 2.2678-7.1324 5.4754-10.734 8.7676-4.6522 4.252-8.2487 7.8978-10.744 10.48-0.7625-3.3886-1.8731-8.0941-3.4863-13.691-1.2787-4.4368-2.7258-8.8517-4.2793-12.248-0.77674-1.6982-1.559-3.1404-2.5078-4.291-0.94881-1.1506-2.3537-2.3245-4.2422-2.0098zm0.57617 4.6699c0.06628 0.0632 0.06945 0.0529 0.19336 0.20313 0.50786 0.61584 1.2016 1.7966 1.8887 3.2988 1.3742 3.0044 2.7998 7.2959 4.0469 11.623 2.4942 8.6542 4.3203 17.477 4.3203 17.477a2.2502 2.2502 0 0 0 3.8496 1.0781s6.3875-6.84 13.42-13.268c3.5162-3.2138 7.2031-6.3237 10.219-8.3613 1.5078-1.0188 2.8586-1.7617 3.8086-2.1172 0.70645-0.26432 0.73606-0.21021 0.77539-0.23438 0.0512 0.25056 0.11054 0.54588 0.11328 1.0801 7e-3 1.3563-0.25215 3.4248-0.73828 5.8555-0.97227 4.8613-2.8112 11.227-4.8262 17.5-3.5784 11.14-7.2349 20.737-8.1152 23.033-13.851-2.436-28.099-5.7722-52.203 5.1211-2.7028-6.2106-8.182-17.444-12.971-28.547-2.5668-5.9513-4.8107-11.624-6.0352-15.793-0.61224-2.0844-0.95576-3.8143-1-4.8281-0.0046-0.10544 0.0079-0.0841 0.0098-0.17187 0.21426 0.0222 0.21658-0.0135 0.86328 0.22266 1.0505 0.38355 2.4762 1.1066 4.0684 2.0605 3.1843 1.9079 7.0644 4.7301 10.775 7.627 7.4221 5.7938 14.193 11.877 14.193 11.877a2.2502 2.2502 0 0 0 3.7188-1.2812s1.5232-8.5909 3.7168-17.252c1.0968-4.3305 2.3681-8.6819 3.6484-11.883 0.64018-1.6004 1.2942-2.9147 1.8398-3.7266 0.39222-0.5836 0.41053-0.54918 0.41992-0.59375z" style="-inkscape-stroke:none" transform="translate(-35.885 -111.24)"/></g><g id="change2_1"><path fill="#b798c7" d="m79.984 151.22c-0.62598-0.0897-1.2642-0.0556-1.8672 0.12695-1.206 0.36506-2.1517 1.2615-2.7031 2.3066-1.1029 2.0902-0.93142 4.7791 0.4375 7.541 1.3689 2.7619 3.9908 5.625 8.2578 8.2188a2.25 2.25 0 0 0 1.0527 0.16406 2.25 2.25 0 0 0 0.22656 0.0352 2.25 2.25 0 0 0 1.084-0.41992 2.25 2.25 0 0 0 0.44336-0.17187c3.5625-3.4015 5.5048-6.2617 6.3047-8.8262 0.7999-2.5645 0.23236-5.1848-1.5723-6.4883-1.8046-1.3035-4.1785-1.0938-6.002 0.082-0.38957 0.25121-0.64684 0.71983-0.98828 1.0605-0.80517-1.3496-1.7512-2.3628-2.8828-3.0098-0.55163-0.31538-1.165-0.52943-1.791-0.61914zm-0.56445 4.4355c-0.07642 0.0231-0.12111-0.0486 0.12109 0.0898 0.48441 0.27694 1.801 1.7177 2.6836 5.0723a2.2502 2.2502 0 0 0 4.4141-0.33593c0.18237-1.7265 0.87982-2.5442 1.4473-2.9102 0.56744-0.36591 0.91683-0.22663 0.92774-0.21875 0.0109 8e-3 0.3531 0.0819-0.08984 1.502-0.3707 1.1884-1.7116 3.1935-3.9414 5.5801-2.606-1.875-4.3543-3.7345-5.0996-5.2383-0.89684-1.8094-0.67441-3.0906-0.48828-3.4434 0.09306-0.17637 0.10181-0.12079 0.02539-0.0977z" style="-inkscape-stroke:none" transform="translate(-35.885 -111.24)"/></g></g></g></svg>