<?xml version="1.0" encoding="UTF-8" standalone="no"?><svg xmlns="http://www.w3.org/2000/svg" xmlns:xlink="http://www.w3.org/1999/xlink" contentScriptType="text/ecmascript" fill="#000000" width="46" zoomAndPan="magnify" contentStyleType="text/css" viewBox="0.0 0.0 46.0 78.9" height="78.9" preserveAspectRatio="xMidYMid meet" version="1"><defs><clipPath id="a"><path d="M 11 0 L 46.011719 0 L 46.011719 66 L 11 66 Z M 11 0"/></clipPath><clipPath id="b"><path d="M 0 51 L 30 51 L 30 78.910156 L 0 78.910156 Z M 0 51"/></clipPath></defs><g><g id="change1_2" clip-path="url(#a)"><path fill="#f6b444" d="M 32.28125 37.492188 C 30.714844 37.800781 28.992188 37.886719 27.277344 37.527344 C 25.574219 37.171875 23.910156 36.367188 22.734375 35.144531 C 22.578125 34.988281 22.289062 34.710938 21.949219 34.378906 C 21.640625 34.082031 21.125 33.578125 20.714844 33.207031 C 19.867188 32.445312 19.113281 31.761719 19.113281 31.761719 L 19.007812 31.890625 C 19.007812 31.890625 17.941406 31.066406 17.394531 30.535156 C 17.304688 30.449219 16.847656 29.980469 16.484375 29.65625 C 16.167969 29.371094 15.902344 29.1875 15.894531 29.496094 C 15.761719 29.261719 15.398438 28.816406 15.101562 28.347656 C 14.652344 27.652344 14.480469 26.996094 14.523438 26.941406 C 14.324219 26.203125 15.265625 24.882812 16.167969 24.65625 C 17.046875 24.386719 18.152344 24.617188 19.289062 24.984375 C 20.605469 25.40625 21.488281 25.675781 22.542969 26.542969 C 23.664062 27.496094 25.257812 28.136719 26.457031 29.101562 C 27.839844 30.214844 29.171875 31.371094 30.488281 32.570312 C 31.808594 33.769531 32.941406 34.972656 33.894531 36.378906 C 34 36.535156 34.09375 36.699219 34.191406 36.855469 C 33.578125 37.136719 32.941406 37.367188 32.28125 37.492188 Z M 45.691406 23.410156 C 45.796875 23.253906 45.921875 23.097656 46.011719 22.9375 C 45.800781 22.691406 45.65625 22.414062 45.585938 22.097656 C 45.632812 21.703125 45.964844 21.101562 45.957031 20.761719 C 45.972656 20.167969 45.585938 20.160156 45.558594 19.882812 C 45.527344 19.378906 45.542969 18.832031 45.554688 18.273438 C 45.578125 17.710938 45.53125 17.144531 45.292969 16.648438 C 45.023438 16.71875 44.75 16.699219 44.476562 16.59375 C 44.539062 16.226562 44.699219 15.929688 44.964844 15.699219 C 44.855469 15.546875 44.714844 15.4375 44.550781 15.371094 C 44.652344 14.871094 44.601562 14.363281 44.402344 13.871094 C 44.09375 12.855469 43.984375 12.722656 43.355469 12.644531 C 42.808594 12.027344 43.304688 11.101562 42.929688 10.425781 C 42.605469 10.003906 42.203125 9.710938 41.738281 9.5625 C 41.882812 9.378906 41.914062 9.171875 41.84375 8.9375 C 41.417969 8.378906 41.78125 8.320312 41 7.980469 C 40.230469 7.660156 40.851562 8.195312 40.402344 8.375 C 40.292969 8.175781 40.132812 8.070312 39.925781 8.066406 C 39.902344 8.355469 39.953125 8.628906 40.078125 8.890625 C 38.949219 8.15625 39.972656 8.277344 40.03125 7.492188 C 40 7.039062 39.921875 6.578125 39.800781 6.113281 C 39.839844 5.597656 39.582031 5.445312 39.109375 5.65625 C 39.183594 5.707031 37.84375 4.550781 38.324219 4.78125 C 37.660156 4.476562 37.882812 4.886719 37.09375 4.890625 C 37.363281 4.550781 37.988281 3.894531 37.261719 3.546875 C 37.1875 3.765625 37.058594 3.941406 36.878906 4.082031 C 36.308594 3.699219 36.140625 3.183594 35.300781 2.851562 C 35.488281 1.644531 35.140625 2.535156 34.460938 2.1875 C 33.582031 1.730469 32.835938 1.089844 31.890625 0.6875 C 31.539062 0.546875 30.921875 0.304688 30.273438 0.160156 C 29.621094 0.0195312 28.949219 -0.0507812 28.574219 0.0546875 C 28.140625 0.152344 27.890625 0.4375 27.628906 0.640625 C 27.359375 0.84375 27.09375 0.90625 26.546875 0.6875 C 26.484375 0.652344 28.128906 0.628906 27.445312 0.09375 C 27.382812 0.0625 26.722656 0.144531 26.09375 0.3125 C 25.464844 0.476562 24.875 0.707031 24.875 0.707031 L 25.910156 3.800781 C 25.910156 3.800781 26.175781 3.71875 26.523438 3.613281 C 26.878906 3.535156 27.316406 3.4375 27.652344 3.441406 C 27.703125 3.441406 27.875 3.4375 28.085938 3.429688 C 28.300781 3.441406 28.558594 3.445312 28.785156 3.429688 C 29.175781 3.445312 29.496094 3.390625 29.304688 3.160156 C 29.550781 3.246094 30.101562 3.34375 30.691406 3.515625 C 31.550781 3.730469 32.453125 4.121094 32.558594 4.164062 C 33.792969 4.699219 35.144531 5.59375 36.117188 6.550781 C 37.042969 7.425781 37.738281 8.519531 38.496094 9.558594 C 38.914062 10.175781 39.292969 10.632812 39.574219 11.136719 C 39.878906 11.625 40.140625 12.121094 40.304688 12.785156 C 40.707031 14.183594 41.59375 15.59375 41.929688 17.046875 C 42.335938 18.714844 42.546875 20.402344 42.628906 22.113281 C 42.714844 23.8125 42.621094 25.503906 42.203125 27.117188 C 41.789062 28.722656 41.160156 30.308594 40.097656 31.632812 C 39.085938 32.988281 37.96875 34.234375 36.695312 35.285156 C 36.5 34.941406 36.328125 34.628906 36.195312 34.445312 C 35.410156 33.308594 35.554688 33.375 34.433594 33.203125 C 34.699219 33.042969 34.800781 32.804688 34.726562 32.46875 C 34.527344 32.511719 34.320312 32.511719 34.113281 32.464844 C 34.375 32.003906 33.917969 31.742188 33.558594 31.296875 L 33.445312 30.753906 C 33.132812 30.730469 32.839844 30.640625 32.574219 30.476562 C 32.332031 30.167969 32.152344 29.535156 31.9375 29.285156 C 31.5625 28.851562 31.273438 29.109375 31.070312 28.933594 C 30.335938 28.285156 29.800781 27.183594 28.84375 26.695312 C 28.675781 26.925781 28.457031 27.078125 28.175781 27.167969 C 28 26.847656 27.945312 26.519531 28.015625 26.183594 C 27.839844 26.128906 27.667969 26.128906 27.5 26.171875 C 27.292969 25.710938 26.957031 25.347656 26.507812 25.082031 C 25.699219 24.425781 25.527344 24.390625 24.96875 24.695312 C 24.164062 24.511719 24.074219 23.4375 23.363281 23.125 C 22.867188 22.9375 22.359375 22.925781 21.890625 23.074219 C 21.902344 22.835938 21.804688 22.652344 21.601562 22.511719 C 20.925781 22.277344 21.171875 22.023438 20.320312 22.203125 C 19.476562 22.425781 20.335938 22.464844 20.082031 22.878906 C 19.867188 22.792969 19.667969 22.808594 19.503906 22.9375 C 19.664062 23.175781 19.878906 23.351562 20.132812 23.488281 C 18.785156 23.609375 19.679688 23.078125 19.210938 22.414062 C 18.882812 22.070312 18.484375 21.773438 18.011719 21.527344 C 17.621094 21.148438 17.265625 21.214844 17.089844 21.726562 C 17.140625 21.726562 16.65625 21.761719 16.222656 21.855469 C 15.796875 21.925781 15.417969 22.058594 15.695312 21.875 C 14.957031 22.347656 15.492188 22.328125 15.09375 23.066406 C 14.886719 22.691406 14.515625 21.820312 13.746094 22.554688 C 13.957031 22.675781 14.089844 22.851562 14.167969 23.066406 C 13.582031 23.601562 12.964844 23.789062 12.582031 24.753906 C 11.957031 24.75 11.863281 24.859375 11.898438 25.035156 C 11.945312 25.226562 12.042969 25.464844 11.980469 25.972656 C 11.738281 27.257812 11.820312 28.546875 12.292969 29.589844 C 12.605469 30.414062 13.707031 31.980469 14.34375 32.285156 C 15.078125 32.679688 15.800781 32.113281 16.074219 33.199219 C 16.109375 33.246094 15.066406 32.152344 15.105469 32.984375 C 15.125 33.046875 15.585938 33.417969 16.039062 33.761719 C 16.496094 34.089844 16.945312 34.414062 16.945312 34.414062 L 16.976562 34.375 C 16.976562 34.375 17.78125 34.769531 18.222656 35.0625 C 19.078125 35.621094 19.894531 36.292969 20.769531 37.003906 C 21.789062 37.8125 22.648438 38.46875 23.597656 38.9375 C 24.542969 39.398438 25.601562 39.675781 26.90625 39.511719 C 26.691406 40.347656 28 40.335938 28.578125 40.417969 C 29.105469 40.363281 29.605469 40.425781 30.117188 40.578125 C 30.40625 40.347656 30.707031 40.121094 31.015625 39.910156 C 31.011719 40.460938 32.652344 40.613281 34.320312 40.109375 C 34.757812 39.992188 35.183594 39.828125 35.582031 39.652344 C 35.746094 40.09375 35.894531 40.542969 36.011719 41.003906 C 36.878906 44.367188 37.609375 47.839844 36.992188 51.308594 C 36.683594 53 36.351562 54.78125 35.648438 56.390625 C 34.957031 58.003906 33.839844 59.378906 32.339844 60.136719 C 31.949219 60.347656 30.972656 60.933594 30.007812 61.375 C 29.050781 61.824219 28.148438 62.171875 28.148438 62.171875 L 29.550781 65.242188 C 29.550781 65.242188 30.277344 64.6875 30.753906 64.386719 C 31.65625 63.832031 32.671875 63.179688 33.5625 62.554688 C 34.632812 61.808594 35.527344 61.140625 36.226562 60.296875 C 36.925781 59.464844 37.410156 58.464844 37.515625 57.160156 C 38.289062 57.539062 38.535156 56.265625 38.746094 55.742188 C 38.8125 55.226562 38.984375 54.769531 39.265625 54.339844 C 39.109375 54.007812 38.976562 53.671875 38.867188 53.324219 C 39.390625 53.46875 39.953125 52.054688 40.199219 50.4375 C 40.441406 48.824219 40.304688 47.074219 40.214844 46.628906 C 40.039062 46.683594 39.875 46.644531 39.726562 46.515625 C 39.742188 46.34375 39.824219 46.25 39.976562 46.226562 C 40.324219 45.78125 40.246094 45.382812 39.769531 45.089844 C 39.804688 44.132812 40.394531 43.730469 39.445312 43.023438 C 39.695312 42.867188 39.675781 42.382812 39.585938 41.859375 C 39.464844 41.34375 39.273438 40.800781 39.222656 40.507812 C 39.019531 39.613281 38.613281 38.792969 38.070312 38.0625 C 38.089844 38.074219 38.109375 38.089844 38.144531 38.101562 C 38.167969 37.996094 38.167969 37.921875 38.089844 37.875 C 38.050781 37.914062 38.023438 37.953125 38.019531 37.988281 C 37.964844 37.914062 37.898438 37.847656 37.839844 37.773438 C 37.9375 37.757812 38.027344 37.769531 38.09375 37.855469 C 38.675781 37.914062 38.992188 37.628906 38.980469 37.054688 C 39.816406 36.546875 40.496094 36.792969 40.542969 35.589844 C 41.113281 35.832031 42.101562 34.339844 42.46875 33.859375 C 42.878906 33.359375 43.175781 32.785156 43.429688 32.203125 C 43.652344 31.605469 43.769531 30.964844 43.867188 30.34375 C 44.171875 30.171875 44.082031 30.734375 44.425781 30.566406 C 44.238281 29.945312 45.058594 28.203125 45.179688 27.523438 C 45.363281 26.84375 45.4375 26.542969 45.398438 26.292969 C 45.363281 26.042969 45.222656 25.839844 44.898438 25.371094 C 45.195312 25.457031 45.445312 25.367188 45.652344 25.085938 C 45.492188 24.96875 45.351562 24.820312 45.234375 24.636719 C 45.738281 24.511719 45.605469 23.992188 45.691406 23.410156"/></g><g id="change1_3"><path fill="#f6b444" d="M 39.988281 46.242188 C 40.011719 46.355469 40.054688 46.425781 40.207031 46.308594 C 40.132812 46.242188 40.074219 46.203125 39.988281 46.242188"/></g><g id="change1_1" clip-path="url(#b)"><path fill="#f6b444" d="M 16.707031 65.035156 C 15.429688 64.890625 14.1875 64.519531 12.988281 64.148438 C 11.605469 63.707031 10.726562 63.5 9.695312 62.652344 C 8.609375 61.742188 7.121094 61.097656 6.152344 60.035156 C 5.023438 58.84375 4.121094 57.46875 3.457031 56.03125 C 3.328125 55.75 3.234375 55.429688 3.203125 55.179688 C 3.175781 55.097656 3.164062 55.011719 3.195312 54.917969 C 3.226562 54.832031 3.304688 54.75 3.40625 54.726562 C 3.46875 54.714844 3.484375 54.707031 3.59375 54.707031 C 3.753906 54.714844 3.964844 54.75 4.167969 54.792969 C 4.972656 54.964844 5.800781 55.082031 6.570312 55.417969 C 6.960938 55.574219 7.363281 55.691406 7.734375 55.894531 C 8.101562 56.101562 8.46875 56.3125 8.839844 56.523438 C 9.21875 56.722656 9.558594 56.996094 9.914062 57.234375 C 10.265625 57.484375 10.640625 57.691406 10.976562 57.957031 C 11.644531 58.5 12.359375 58.976562 12.972656 59.585938 C 14.289062 60.707031 15.402344 62.070312 16.3125 63.550781 C 16.59375 64.046875 16.882812 64.550781 17.160156 65.066406 C 17.011719 65.054688 16.851562 65.050781 16.707031 65.035156 Z M 26.300781 63.136719 C 26.09375 63.25 24.050781 63.769531 24.644531 64.042969 C 24.363281 64.074219 23.769531 64.230469 23.140625 64.386719 C 22.210938 64.609375 21.210938 64.820312 21.09375 64.828125 C 20.789062 64.882812 20.472656 64.925781 20.152344 64.96875 C 20.085938 64.773438 20.027344 64.578125 20.003906 64.367188 C 19.664062 64.222656 19.375 64.039062 19.046875 63.855469 C 19.292969 63.738281 19.28125 63.332031 19.113281 62.769531 C 19.03125 62.488281 18.90625 62.167969 18.757812 61.828125 C 18.597656 61.492188 18.382812 61.160156 18.167969 60.8125 C 17.949219 60.472656 17.722656 60.125 17.488281 59.800781 C 17.226562 59.5 16.972656 59.207031 16.746094 58.945312 C 16.285156 58.421875 15.902344 58.027344 15.707031 57.898438 C 15.605469 58.054688 15.457031 58.132812 15.257812 58.136719 C 15.152344 58.003906 15.148438 57.878906 15.25 57.761719 C 15.214844 57.195312 14.902344 56.933594 14.355469 57.019531 C 13.746094 56.277344 13.894531 55.605469 12.730469 55.683594 C 12.921875 55.070312 11.308594 54.335938 10.84375 53.957031 C 10.308594 53.605469 9.71875 53.351562 9.117188 53.15625 C 8.523438 52.945312 7.855469 52.933594 7.226562 52.882812 C 7.03125 52.597656 7.601562 52.636719 7.40625 52.3125 C 6.820312 52.476562 4.984375 51.921875 4.296875 51.777344 C 4.097656 51.746094 3.964844 51.726562 3.734375 51.707031 C 3.507812 51.691406 3.316406 51.6875 3.148438 51.699219 C 2.816406 51.71875 2.589844 51.777344 2.410156 51.859375 C 2.0625 52.03125 1.820312 52.308594 1.617188 52.976562 C 1.472656 52.714844 1.15625 52.625 0.714844 52.929688 C 0.765625 53.171875 0.777344 53.433594 0.792969 53.726562 C 0.523438 53.734375 0.34375 53.96875 0.25 54.320312 C 0.210938 54.496094 0.183594 54.703125 0.179688 54.925781 C 0.171875 55.152344 0.1875 55.390625 0.195312 55.5625 C 0.117188 55.777344 0.0546875 56 0 56.222656 C 0.269531 56.480469 0.496094 56.757812 0.695312 57.085938 C 0.824219 57.503906 0.757812 58.191406 0.894531 58.527344 C 1.136719 59.101562 1.492188 58.953125 1.636719 59.203125 C 2.171875 60.085938 2.503906 61.355469 3.425781 62.054688 C 3.625 61.855469 3.875 61.742188 4.167969 61.699219 C 4.304688 62.046875 4.3125 62.398438 4.214844 62.722656 C 4.394531 62.800781 4.570312 62.828125 4.746094 62.808594 C 4.910156 63.308594 5.25 63.707031 5.699219 64.019531 C 6.511719 64.738281 6.6875 64.789062 7.261719 64.492188 C 8.074219 64.699219 8.1875 65.777344 8.917969 66.082031 C 9.425781 66.269531 9.9375 66.257812 10.402344 66.101562 C 10.394531 66.335938 10.492188 66.527344 10.699219 66.65625 C 11.382812 66.855469 11.121094 67.144531 11.964844 66.929688 C 12.777344 66.710938 11.949219 66.667969 12.199219 66.253906 C 12.40625 66.34375 12.601562 66.324219 12.769531 66.199219 C 12.609375 65.960938 12.402344 65.777344 12.140625 65.648438 C 13.488281 65.53125 12.601562 66.050781 13.039062 66.722656 C 13.34375 67.070312 13.695312 67.390625 14.085938 67.664062 C 14.382812 68.082031 14.671875 68.054688 14.910156 67.585938 C 14.824219 67.589844 16.578125 67.671875 16.058594 67.785156 C 16.769531 67.601562 16.339844 67.441406 16.957031 66.941406 C 16.953125 67.382812 16.863281 68.269531 17.640625 68.109375 C 17.570312 67.890625 17.566406 67.671875 17.621094 67.449219 C 17.890625 67.429688 18.121094 67.46875 18.355469 67.507812 C 18.46875 67.777344 18.585938 68.039062 18.679688 68.316406 C 19.246094 70.011719 19.621094 71.832031 19.269531 73.519531 C 19.214844 73.742188 19.230469 74.148438 19.132812 74.613281 C 19.050781 75.078125 18.957031 75.617188 18.871094 76.128906 C 18.597656 77.117188 18.351562 78 18.351562 78 L 21.605469 78.910156 C 21.605469 78.910156 21.605469 77.953125 21.679688 77.382812 C 21.714844 77.117188 21.765625 76.839844 21.792969 76.558594 C 21.804688 76.277344 21.820312 75.988281 21.835938 75.703125 C 21.855469 75.128906 21.964844 74.558594 21.941406 74.023438 C 21.949219 73.375 21.980469 72.785156 22.007812 72.226562 C 21.976562 71.671875 21.945312 71.144531 21.878906 70.628906 C 21.835938 70.105469 21.675781 69.609375 21.464844 69.105469 C 21.238281 68.609375 21.015625 68.085938 20.570312 67.597656 C 20.617188 67.582031 20.648438 67.554688 20.6875 67.535156 C 21.625 67.398438 22.550781 67.5625 23.488281 67.429688 C 24.1875 67.355469 25.933594 67.074219 26.496094 66.648438 C 27.15625 66.183594 26.980469 65.269531 28.074219 65.527344 C 28.128906 65.519531 26.683594 65.945312 27.441406 66.292969 C 27.5 66.300781 28.042969 66.066406 28.558594 65.8125 C 29.078125 65.5625 29.570312 65.289062 29.570312 65.289062 L 28.21875 62.320312 C 28.21875 62.320312 27.035156 62.898438 26.300781 63.136719"/></g><g id="change1_4"><path fill="#f6b444" d="M 15.480469 57.671875 C 15.375 57.667969 15.304688 57.679688 15.269531 57.765625 C 15.363281 57.832031 15.445312 57.855469 15.480469 57.671875"/></g></g></svg>