<?xml version="1.0" encoding="UTF-8" standalone="no"?><svg xmlns="http://www.w3.org/2000/svg" xmlns:xlink="http://www.w3.org/1999/xlink" contentScriptType="text/ecmascript" fill="#000000" width="371" zoomAndPan="magnify" contentStyleType="text/css" viewBox="64.1 93.1 371.0 312.5" height="312.5" preserveAspectRatio="xMidYMid meet" version="1"><g><g id="change1_1"><path fill="#8f95c3" d="M425.09,106.68c-5.77-3.5-12.26-2.85-18.67-2.76c-12.06,0.17-24.1,0.34-36.16,0.5 c-27.71,0.36-55.42,0.7-83.13,0.99c-28.58,0.31-57.17,0.58-85.75,0.79c-24.95,0.18-49.9,0.32-74.85,0.32 c-9.75,0-19.51-0.02-29.27-0.1c-3.88-0.03-7.76-0.11-11.64-0.12c-7.21-0.02-13.95,3.68-17.76,10.02 c-3.38,5.61-2.99,11.91-2.99,18.23v16.61c0.01,12.73,0.01,25.45,0.01,38.18v87.87c0,27.47,0,54.94,0.01,82.42v17.01 c0,6.31-0.47,12.65,2.72,18.34c3.59,6.41,10.34,10.39,17.51,10.49c1.84,0.03,3.69-0.02,5.55-0.02c16.98-0.11,33.95-0.11,50.93-0.59 c18.76-0.53,37.5-0.91,56.28-1.01c23.26-0.11,46.53-0.15,69.79-0.18c28.45-0.05,56.9-0.07,85.35-0.11 c13.77-0.02,27.54-0.04,41.31-0.06c6.24-0.01,12.48,0,18.71-0.04c7.05-0.04,13.43-3.27,17.48-9.29c4.63-6.89,3.48-16.51,3.52-24.5 c0.06-13.51,0.12-27.02,0.19-40.53c0.09-18.81,0.18-37.61,0.26-56.42l0.28-60.22c0.08-17.3,0.16-34.6,0.24-51.9 c0.05-10.49,0.1-20.97,0.15-31.46c0.01-1.41,0.02-2.82,0.02-4.24v-0.09C435.07,117.41,431.33,110.46,425.09,106.68z"/></g><g id="change2_1"><path fill="#fff4ea" d="M418.81,128.32c-0.03,1.47-0.04,2.92-0.07,4.39c-0.21,15.17-0.32,30.34-0.42,45.5 c-0.11,18.4-0.21,36.81-0.29,55.21c-0.09,18.85-0.19,37.71-0.33,56.56c-0.11,16.04-0.25,32.08-0.5,48.12 c-0.15,10.25-0.27,20.5-0.81,30.74c-0.09,1.62-1.12,3.36-2.83,3.72c-2.29,0.47-4.59,0.86-6.9,1.18 c-8.92,1.26-18.06,2.13-27.08,1.93c-12.04-0.27-23.3-5.3-35.17-6.73c-6-0.73-12.1-0.67-17.93,1.06 c-5.64,1.66-10.91,4.52-16.73,5.64c-11.42,2.19-21.88-2.66-32.53-6.02c-5.12-1.62-10.25-2.74-15.65-2.32 c-5.35,0.41-10.57,2.16-15.66,3.76c-5.44,1.71-10.87,3.35-16.55,3.99c-5.87,0.67-11.64-0.33-17.18-2.26 c-5.52-1.93-10.82-4.4-16.56-5.61c-5.64-1.2-11.64-1.34-17.32-0.35c-11.61,2.01-21.53,9.33-33.3,10.67 c-6.16,0.7-12.08-1.11-18.07-2.19c-2.5-0.45-5.17-0.74-7.68-0.25c-2.23,0.42-3.87,1.14-5.72,2.12 c-8.06,4.33-15.42,11.94-25.31,10.93c-2.13-0.21-3.79-1.61-3.85-3.86c-0.09-3.08-0.17-6.15-0.27-9.23 c-0.65-23.07-1.35-46.14-1.94-69.2c-0.33-13.4-0.51-26.8-0.67-40.2c-0.2-16.66-0.33-33.3-0.45-49.96 c-0.11-16.03-0.21-32.06-0.3-48.08c-0.08-11.75-0.14-23.49-0.23-35.24c-0.03-2.18,1.78-3.74,3.85-3.86 c5.27-0.28,10.53-0.57,15.8-0.85c17.32-0.93,34.56-1.77,51.89-2.04c20.28-0.31,40.56-0.5,60.84-0.66 c25.36-0.21,50.72-0.36,76.06-0.47c24.55-0.11,49.1-0.19,73.65-0.19c17.45-0.01,34.91-0.01,52.36,0.2 c0.98,0.01,1.76,0.32,2.35,0.81C418.21,125.87,418.84,126.89,418.81,128.32z"/></g><g><g id="change3_1"><path fill="#1b4262" d="M97.43,136.48c2.28,2.18,3.96,4.87,5.33,7.69c0.32,0.65,0.47,1.33,0.27,2.05c-0.17,0.62-0.65,1.29-1.22,1.59 c-0.62,0.33-1.37,0.49-2.05,0.27c-0.63-0.2-1.29-0.61-1.59-1.22c-0.85-1.75-1.81-3.49-3-5.03c0.14,0.18,0.28,0.36,0.42,0.54 c-0.59-0.75-1.23-1.46-1.92-2.12c-1.01-0.96-1.04-2.81,0-3.77C94.75,135.48,96.36,135.45,97.43,136.48L97.43,136.48z"/></g><g id="change4_1"><path fill="#b798c7" d="M75.82,123.07c6.5-6.37,18.44-11.24,27.19-7.27c6.23,3.01,9.4,10.87,5.5,16.94 c-3.1,7-15.22,10.08-22.32,10.21C76.61,142.1,69.44,131.42,75.82,123.07z"/></g><g id="change3_2"><path fill="#1b4262" d="M71.34,110.65c0.19-1.27,0.79-2.43,1.76-3.31c0.99-0.91,2.19-1.46,3.39-2.04c2.36-1.13,4.78-2.57,7.37-3.08 c1.5-0.3,3.01-0.33,4.49,0.1c0.53,0.15,1.05,0.37,1.56,0.58c1.07,0.44,2.18,0.76,2.68,1.92c0.26,0.6,0.39,1.27,0.6,1.89 c0.22,0.63,0.49,1.25,0.74,1.88c0.46,1.15,0.78,2.36,1.12,3.55c0.75,2.6,1.72,5.23,1.98,7.94c0.22,2.35-0.51,4.78-1.98,6.61 c-1.65,2.07-4.37,2.76-6.89,3.04c-2.76,0.3-5.23-1.13-7.04-3.11c-1.99-2.17-3.69-4.66-5.38-7.08c-0.85-1.21-1.67-2.42-2.5-3.64 c-0.83-1.23-1.59-2.37-1.86-3.79c-0.08-0.24-0.11-0.5-0.1-0.78C71.26,111.1,71.28,110.87,71.34,110.65z"/></g><g id="change4_2"><path fill="#b798c7" d="M70.01,100.87c5.13-3.33,12.4-7.82,18.65-5.9c4.65,1.52,8.02,6.97,5.6,11.63 c-5.48,7.23-15.47,10.25-24.18,8.43C64.13,112.38,65.06,104.11,70.01,100.87z"/></g></g></g></svg>