<?xml version="1.0" encoding="UTF-8" standalone="no"?><svg xmlns="http://www.w3.org/2000/svg" xmlns:xlink="http://www.w3.org/1999/xlink" contentScriptType="text/ecmascript" fill="#000000" width="2410.2" zoomAndPan="magnify" contentStyleType="text/css" viewBox="-0.0 0.0 2410.2 1226.3" height="1226.3" preserveAspectRatio="xMidYMid meet" version="1"><g data-name="Layer 2"><g fill="#f6b444" data-name="Layer 1"><g opacity="0.6" id="change1_3"><path fill="inherit" d="M89.92 0H93.87V1226.32H89.92z"/><path fill="inherit" d="M161.53 0H165.48V1226.32H161.53z"/><path fill="inherit" d="M249.15 0H253.1V1226.32H249.15z"/><path fill="inherit" d="M326.77 0H330.71999999999997V1226.32H326.77z"/><path fill="inherit" d="M414.38 0H418.33V1226.32H414.38z"/><path fill="inherit" d="M482 0H485.95V1226.32H482z"/><path fill="inherit" d="M569.62 0H573.57V1226.32H569.62z"/><path fill="inherit" d="M637.24 0H641.19V1226.32H637.24z"/><path fill="inherit" d="M724.85 0H728.8000000000001V1226.32H724.85z"/><path fill="inherit" d="M812.47 0H816.4200000000001V1226.32H812.47z"/><path fill="inherit" d="M870.09 0H874.0400000000001V1226.32H870.09z"/><path fill="inherit" d="M957.7 0H961.6500000000001V1226.32H957.7z"/><path fill="inherit" d="M1025.32 0H1029.27V1226.32H1025.32z"/><path fill="inherit" d="M1099.62 0H1103.57V1226.32H1099.62z"/><path fill="inherit" d="M1172.78 0H1176.73V1226.32H1172.78z"/></g><g opacity="0.6" id="change1_1"><path fill="inherit" d="M1245.49 0H1249.44V1226.32H1245.49z"/><path fill="inherit" d="M1317.11 0H1321.06V1226.32H1317.11z"/><path fill="inherit" d="M1404.72 0H1408.67V1226.32H1404.72z"/><path fill="inherit" d="M1482.34 0H1486.29V1226.32H1482.34z"/><path fill="inherit" d="M1569.96 0H1573.91V1226.32H1569.96z"/><path fill="inherit" d="M1637.58 0H1641.53V1226.32H1637.58z"/><path fill="inherit" d="M1725.19 0H1729.14V1226.32H1725.19z"/><path fill="inherit" d="M1792.81 0H1796.76V1226.32H1792.81z"/><path fill="inherit" d="M1880.43 0H1884.38V1226.32H1880.43z"/><path fill="inherit" d="M1968.04 0H1971.99V1226.32H1968.04z"/><path fill="inherit" d="M2025.66 0H2029.6100000000001V1226.32H2025.66z"/><path fill="inherit" d="M2113.28 0H2117.23V1226.32H2113.28z"/><path fill="inherit" d="M2180.89 0H2184.8399999999997V1226.32H2180.89z"/><path fill="inherit" d="M2255.19 0H2259.14V1226.32H2255.19z"/><path fill="inherit" d="M2328.35 0H2332.2999999999997V1226.32H2328.35z"/></g><g opacity="0.6" id="change1_2"><path fill="inherit" d="M1203.13 -177.7H1207.0800000000002V2232.51H1203.13z" transform="rotate(-90 1205.105 1027.405)"/><path fill="inherit" d="M1203.13 -104.88H1207.0800000000002V2305.33H1203.13z" transform="rotate(-90 1205.105 1100.225)"/><path fill="inherit" d="M1203.13 -32.06H1207.0800000000002V2378.15H1203.13z" transform="rotate(-90 1205.105 1173.045)"/><path fill="inherit" d="M1203.13 -245.31H1207.0800000000002V2164.9H1203.13z" transform="rotate(-90 1205.105 959.795)"/><path fill="inherit" d="M1203.13 -332.93H1207.0800000000002V2077.28H1203.13z" transform="rotate(-90 1205.105 872.175)"/><path fill="inherit" d="M1203.13 -410.55H1207.0800000000002V1999.66H1203.13z" transform="rotate(-90 1205.105 794.555)"/><path fill="inherit" d="M1203.13 -478.17H1207.0800000000002V1932.04H1203.13z" transform="rotate(-90 1205.11 726.94)"/><path fill="inherit" d="M1203.13 -565.78H1207.0800000000002V1844.43H1203.13z" transform="rotate(-90 1205.105 639.325)"/><path fill="inherit" d="M1203.13 -643.4H1207.0800000000002V1766.81H1203.13z" transform="rotate(-90 1205.105 561.705)"/><path fill="inherit" d="M1203.13 -711.02H1207.0800000000002V1699.19H1203.13z" transform="rotate(-90 1205.11 494.09)"/><path fill="inherit" d="M1203.13 -798.63H1207.0800000000002V1611.58H1203.13z" transform="rotate(-90 1205.105 406.475)"/><path fill="inherit" d="M1203.13 -886.25H1207.0800000000002V1523.96H1203.13z" transform="rotate(-90 1205.105 318.855)"/><path fill="inherit" d="M1203.13 -953.87H1207.0800000000002V1456.3400000000001H1203.13z" transform="rotate(-90 1205.105 251.235)"/><path fill="inherit" d="M1203.13 -1031.48H1207.0800000000002V1378.73H1203.13z" transform="rotate(-90 1205.105 173.625)"/><path fill="inherit" d="M1203.13 -1109.1H1207.0800000000002V1301.1100000000001H1203.13z" transform="rotate(-90 1205.105 96.005)"/></g></g></g></svg>