<?xml version="1.0" encoding="UTF-8" standalone="no"?><svg xmlns="http://www.w3.org/2000/svg" xmlns:xlink="http://www.w3.org/1999/xlink" contentScriptType="text/ecmascript" fill="#000000" width="427.6" zoomAndPan="magnify" contentStyleType="text/css" viewBox="-0.1 0.4 427.6 497.0" height="497" preserveAspectRatio="xMidYMid meet" version="1"><g data-name="Layer 1"><g id="change1_1"><path fill="#f7ecd0" d="M248,319.22q-.19-24-.19-48.07c0-5.84-9.07-5.85-9.07,0q-.06,85.25,2.63,170.47.75,24,1.73,48c.24,5.82,9.32,5.85,9.08,0Q248.7,404.48,248,319.22Z"/></g><g id="change1_2"><path fill="#f7ecd0" d="M302.9,287.59q6.63-28.51,13.48-57c1.66-6.92-7.16-9-8.83-2.12q-24.27,101-45.87,202.52-6.09,28.62-12,57.29c-1.43,6.95,7.39,9.1,8.82,2.12Q279.39,388.75,302.9,287.59Z"/></g><g id="change1_3"><path fill="#f7ecd0" d="M155.61,297.2Q142.27,271.15,129.14,245c-3.2-6.35-11.31-2.28-8.11,4.08q46.62,92.78,95.66,184.3,13.83,25.8,27.84,51.48c3.4,6.23,11.52,2.18,8.11-4.08Q202.93,389.64,155.61,297.2Z"/></g><g id="change2_1"><path fill="#f1d077" d="M412.86,67C401.79,37.72,369.3.41,336.21,5.81c-6.4-.52-13.79,2.11-19.57,5.25-36.33,15.74-62.29,49.75-68.39,88.79-6.17,39.53,2,82.49,41.34,101,1.39.66,2.8,1.25,4.21,1.82-3,7.34-8.94,18.4-5.35,25.35,3.81,7.4,15.95,7.38,23,7.57,6.46.18,19.41,3.12,22.77-4.4,2.84-6.37-.58-16-3.46-23.1,21.38-1.82,42-11.74,57.74-27.45C417.7,151.35,427.5,105.6,412.86,67Z"/></g><g id="change2_2"><path fill="#f1d077" d="M140.76,60.36C116.69,40.43,70,24.05,43.91,45.11,38.09,47.82,33,53.76,29.49,59.35,5.7,91-.06,133.39,13.94,170.34c14.18,37.41,42.53,70.71,85.85,67.33,1.54-.12,3-.3,4.56-.5,1,7.86,1.33,20.41,7.88,24.68,7,4.55,17.51-1.47,23.71-4.77,5.71-3,18.42-6.89,17.62-15.09-.68-6.94-8.41-13.61-14.42-18.36,17.68-12.15,30.73-31,36.61-52.41C186.69,131.33,172.59,86.72,140.76,60.36Z"/></g><g id="change3_1"><path fill="#e985a6" d="M296.19,89.51c-18.81-25-60.45-51.7-90.71-37.24-6.28,1.29-12.64,5.88-17.32,10.52C157.7,88.06,142.29,128,147.37,167.18c5.14,39.66,25,78.62,67.95,85.35,1.52.24,3,.42,4.55.57-.81,7.88-3.43,20.17,2,25.84,5.74,6,17.38,2.61,24.17.83,6.25-1.63,19.51-2.44,20.63-10.6.94-6.91-5-15.19-9.79-21.2,20-7.73,37.08-23.05,47.74-42.52C324.46,169.17,321.06,122.51,296.19,89.51Z"/></g><g id="change1_4"><path fill="#f7ecd0" d="M372.76,32.65c-2-1.45-5.06-.33-6.21,1.63-1.34,2.3-.35,4.75,1.63,6.21C386.6,54,389.49,79,389,100.12c-.13,5.85,8.95,5.85,9.07,0C398.65,75.29,394.06,48.29,372.76,32.65Z"/></g><g id="change1_5"><path fill="#f7ecd0" d="M256.54,82.61c-2.23-1-5,.74-5.72,2.9-.83,2.53.65,4.72,2.9,5.73,20.86,9.34,29,33.18,33,53.89,1.11,5.74,10,3.83,8.87-1.91C290.83,118.84,280.66,93.41,256.54,82.61Z"/></g><g id="change1_6"><path fill="#f7ecd0" d="M92.69,51.53c-2.42-.41-4.67,2-4.82,4.24-.16,2.67,1.83,4.41,4.25,4.82,22.54,3.79,36.37,24.82,45.46,43.87,2.51,5.28,10.62,1.19,8.1-4.08C135,78,118.74,55.91,92.69,51.53Z"/></g></g></svg>