<?xml version="1.0" encoding="UTF-8" standalone="no"?><svg xmlns="http://www.w3.org/2000/svg" xmlns:xlink="http://www.w3.org/1999/xlink" contentScriptType="text/ecmascript" fill="#000000" width="501.9" zoomAndPan="magnify" contentStyleType="text/css" viewBox="-0.8 0.0 501.9 482.3" height="482.3" preserveAspectRatio="xMidYMid meet" version="1"><g fill="#1b4262" id="change1_1"><path fill="inherit" d="M212.6864,331.2346c0-2.295-0.7735-4.9793,0.1488-6.8102c2.4957-4.955,4.719-11.8868,8.9064-13.6628 c4.7243-2.0038,11.8753-0.2654,17.1959,1.8204c3.4005,1.333,6.4785,5.8498,7.8555,9.6136 c14.0301,38.3558,28.1426,76.6963,41.0754,115.4269c2.8316,8.4799,2.2904,18.6481,1.0918,27.748 c-1.1502,8.7323-8.1875,14.3188-16.9148,15.6619c-8.4246,1.2965-17.0394-0.4957-21.2854-8.6854 c-5.0595-9.7589-9.7715-19.9935-12.5817-30.567c-8.6355-32.4904-16.3407-65.2291-24.2642-97.906 c-0.9915-4.0896-1.1231-8.3874-1.6532-12.5888C212.4027,331.2683,212.5446,331.2515,212.6864,331.2346z"/><path fill="inherit" d="M382.1279,189.079c29.5766,2.3822,59.1683,4.5989,88.7151,7.3054 c5.084,0.4657,10.0956,2.7197,14.9317,4.6662c8.8509,3.5625,15.3503,14.3504,14.0623,22.6572 c-1.4075,9.0762-9.6491,17.45-19.8611,17.4579c-41.3887,0.032-82.1325-4.2817-120.3529-21.8433 c-7.4958-3.4442-13.5038-8.5599-11.5017-18.1033c2.0853-9.9395,9.8239-11.0663,18.1877-10.9518 c5.2422,0.0718,10.4863,0.0133,15.7295,0.0133C382.0683,189.8801,382.0981,189.4795,382.1279,189.079z"/><path fill="inherit" d="M427.4025,367.5904c1.4847,9.9599-4.8034,15.5161-12.1393,19.4389 c-9.0901,4.8607-18.5389,2.2056-25.6842-3.8957c-8.5944-7.3388-16.256-15.9688-23.3604-24.8111 c-16.3678-20.371-32.0855-41.2626-48.2177-61.8248c-5.1044-6.506-7.5807-13.4391-2.5873-20.6253 c5.072-7.299,13.2056-6.7604,19.4358-2.8929c14.0573,8.7264,28.1516,17.7592,40.6883,28.4709 c14.4102,12.3121,27.7646,26.0302,40.3637,40.215c6.1522,6.9267,9.5503,16.2977,14.195,24.5623 C429.1983,366.6819,428.3003,367.1362,427.4025,367.5904z"/><path fill="inherit" d="M28.9973,0c3.5755,1.673,9.9718,3.2523,14.5285,7.0414c20.3203,16.8978,40.2997,34.2215,59.9593,51.8842 c4.4718,4.0177,8.0019,9.6477,10.3791,15.2125c1.3657,3.197,0.9127,8.9264-1.2015,11.3892 c-2.4149,2.8135-7.4886,3.8869-11.5916,4.5182c-2.6217,0.4034-5.9166-0.7997-8.3327-2.2458 c-25.4918-15.257-51.2263-30.1641-76.0103-46.5067c-5.8433-3.8529-9.9855-12.2555-12.0544-19.3924 C1.5709,11.198,13.1731,0.5165,28.9973,0z"/><path fill="inherit" d="M53.5983,167.1384c-10.2413-1.2103-24.2267-2.4354-38.0517-4.6585 c-8.2015-1.3188-14.6937-5.7378-15.4749-15.1821c-0.8398-10.1507,5.799-15.9345,13.9661-17.4969 c11.431-2.1867,23.4739-3.1025,35.0513-2.1326c16.175,1.3551,32.3168,4.2869,48.1434,7.9605 c5.3042,1.2312,11.4238,5.8311,13.9553,10.5975c4.4281,8.3367-3.6736,17.3159-15.584,18.2842 C82.897,165.5435,70.1532,166.1254,53.5983,167.1384z"/></g></svg>