<?xml version="1.0" encoding="UTF-8" standalone="no"?><svg xmlns="http://www.w3.org/2000/svg" xmlns:xlink="http://www.w3.org/1999/xlink" contentScriptType="text/ecmascript" fill="#000000" width="70.6" zoomAndPan="magnify" contentStyleType="text/css" viewBox="-0.0 -0.3 70.6 57.1" height="57.1" preserveAspectRatio="xMidYMid meet" version="1"><g><g stroke-linejoin="round" stroke-linecap="round" color="#000"><g id="change1_1"><path fill="#b798c7" d="m113.13 104.65c-2.8106 0.28897-5.8661 1.5747-9.0234 3.9375-6.3147 4.7256-13.085 13.791-18.789 28.979a2.25 2.25 0 0 0 0.48828 1.0742 2.25 2.25 0 0 0-0.22461 0.44531 2.25 2.25 0 0 0 0.90039 1.0449 2.25 2.25 0 0 0 0.15234 0.33398 2.25 2.25 0 0 0 0.15039-0.0684 2.25 2.25 0 0 0 1.6387 0.12305c15.446-5.0836 24.778-11.448 29.74-17.531 2.481-3.0414 3.8797-6.0261 4.2617-8.8106 0.38203-2.7844-0.33454-5.4398-2.0918-7.2363-1.7573-1.7965-4.3925-2.58-7.2031-2.291zm0.46094 4.4766c1.7634-0.1813 2.854 0.27454 3.5254 0.96094 0.67141 0.68639 1.0858 1.7572 0.84961 3.4785-0.23617 1.7213-1.2034 4.0213-3.2891 6.5781-3.6991 4.5347-11.162 9.7919-23.125 14.352 5.0203-11.613 10.559-18.794 15.25-22.305 2.6605-1.991 5.0257-2.8832 6.7891-3.0644z" style="-inkscape-stroke:none" transform="translate(-52.27 -83.857)"/></g><g id="change2_1"><path fill="#f3abb7" d="m60.531 83.928c-2.4877 0.35624-4.6779 2.0207-6.1055 4.459-1.4275 2.4383-2.195 5.6641-2.1543 9.6074 0.08139 7.8867 3.395 18.703 12.277 32.279a2.25 2.25 0 0 0 3.1152 0.65234 2.25 2.25 0 0 0 0.86524-1.291 2.25 2.25 0 0 0 0.23633-0.1211c5.0248-15.465 5.4054-26.754 3.4297-34.352-0.98786-3.7986-2.5692-6.6911-4.5898-8.6445s-4.5866-2.9461-7.0742-2.5898zm0.63672 4.4551c0.95047-0.13611 2.0594 0.1635 3.3086 1.3711 1.2492 1.2076 2.5328 3.3477 3.3633 6.541 1.4728 5.6635 1.3033 14.788-2.0859 27.133-6.4019-10.911-8.922-19.622-8.9824-25.48-0.03429-3.3228 0.64342-5.7573 1.5391-7.2871 0.89565-1.5298 1.907-2.1412 2.8574-2.2773z" style="-inkscape-stroke:none" transform="translate(-52.27 -83.857)"/></g><g id="change3_1"><path fill="#1b4262" d="m93.17 84.832c-1.2824 0.12429-2.5857 0.54109-3.8242 1.2207-2.477 1.3592-4.7932 3.7321-6.7832 7.1367-3.9799 6.8093-6.6899 17.793-6.0391 34.004a2.25 2.25 0 0 0 2.3379 2.1582 2.25 2.25 0 0 0 1.2617-0.50781 2.25 2.25 0 0 0 0.4082-0.13672c12.253-10.69 18.376-20.183 20.582-27.717 1.1029-3.7669 1.2309-7.0616 0.5-9.7754s-2.4227-4.8818-4.7402-5.8535c-1.1588-0.48586-2.4207-0.65359-3.7031-0.5293zm0.40234 4.4629c0.60061-0.06131 1.1178 0.03116 1.5605 0.2168 0.88549 0.37127 1.6829 1.1954 2.1348 2.873 0.45182 1.6777 0.4545 4.1732-0.47266 7.3398-1.6444 5.6163-6.475 13.362-15.723 22.215 0.10895-12.651 2.4185-21.42 5.375-26.479 1.6768-2.8689 3.5084-4.6121 5.0625-5.4648 0.77704-0.4264 1.4619-0.63986 2.0625-0.70117z" style="-inkscape-stroke:none" transform="translate(-52.27 -83.857)"/></g></g></g></svg>