<?xml version="1.0" encoding="UTF-8" standalone="no"?><svg xmlns="http://www.w3.org/2000/svg" xmlns:xlink="http://www.w3.org/1999/xlink" contentScriptType="text/ecmascript" fill="#000000" width="501.2" zoomAndPan="magnify" contentStyleType="text/css" viewBox="-0.8 -2.1 501.2 161.6" height="161.6" preserveAspectRatio="xMidYMid meet" version="1"><defs><clipPath id="a"><path fill="none" d="M124.19,81.38c.9-4.59-2-10-8-9.18-11.52,1.58-22.3-4-32.56-8.51-12-5.25-23.72-10.9-33.94-19.22a7,7,0,0,0-9.33.09,6.87,6.87,0,0,0-4.41,7.58A258.61,258.61,0,0,0,52.62,117c2,4.84,7.36,5.91,11.53,3.4Q91.61,103.88,119.9,88.8A7.93,7.93,0,0,0,124.19,81.38Z"/></clipPath><clipPath id="b"><path fill="none" d="M389.74,73.24c-1.9-4.28-7.41-7-11.84-2.92-8.51,7.91-20.56,9.51-31.54,11.72-12.85,2.6-25.68,4.69-38.82,3.75A7,7,0,0,0,300,91.22a6.86,6.86,0,0,0,.74,8.73,258.41,258.41,0,0,0,50.89,43.52c4.37,2.85,9.41.62,11.39-3.83q13-29.29,27.52-57.86A7.92,7.92,0,0,0,389.74,73.24Z"/></clipPath><clipPath id="c"><path fill="none" d="M215.42,93.22c-.3-4.67-4.51-9.16-10.09-6.85-10.73,4.46-22.59,1.77-33.65,0-13-2-25.71-4.53-37.7-10a7,7,0,0,0-9,2.46,6.88,6.88,0,0,0-2.34,8.45,258.43,258.43,0,0,0,32.6,58.48c3.11,4.19,8.62,3.86,12,.37q22.37-23,45.9-44.7A7.93,7.93,0,0,0,215.42,93.22Z"/></clipPath><clipPath id="d"><path fill="none" d="M469.19,31.63c-2.9-3.67-8.91-5-12.19.1-6.31,9.76-17.59,14.28-27.68,19.14-11.82,5.68-23.73,10.87-36.7,13.2a7,7,0,0,0-6,7.13,6.88,6.88,0,0,0,2.87,8.29,258.53,258.53,0,0,0,60,29.62c4.94,1.69,9.28-1.72,10.1-6.52Q465,71,472,39.73A8,8,0,0,0,469.19,31.63Z"/></clipPath><clipPath id="e"><path fill="none" d="M301.28,92.37C300,87.86,295,84.3,290,87.69c-9.62,6.53-21.77,6.28-32.95,6.81-13.1.62-26.09.75-38.94-2.18a7,7,0,0,0-8.33,4.22,6.87,6.87,0,0,0-.59,8.75A258.42,258.42,0,0,0,252.91,156c3.89,3.48,9.21,2,11.84-2.06q17.29-27,36-53A7.94,7.94,0,0,0,301.28,92.37Z"/></clipPath></defs><g data-name="Layer 1"><g id="change1_1"><path fill="#638ea3" d="M124.19,81.38c.9-4.59-2-10-8-9.18-11.52,1.58-22.3-4-32.56-8.51-12-5.25-23.72-10.9-33.94-19.22a7,7,0,0,0-9.33.09,6.87,6.87,0,0,0-4.41,7.58A258.61,258.61,0,0,0,52.62,117c2,4.84,7.36,5.91,11.53,3.4Q91.61,103.88,119.9,88.8A7.93,7.93,0,0,0,124.19,81.38Z"/></g><g id="change1_2"><path fill="#638ea3" d="M389.74,73.24c-1.9-4.28-7.41-7-11.84-2.92-8.51,7.91-20.56,9.51-31.54,11.72-12.85,2.6-25.68,4.69-38.82,3.75A7,7,0,0,0,300,91.22a6.86,6.86,0,0,0,.74,8.73,258.41,258.41,0,0,0,50.89,43.52c4.37,2.85,9.41.62,11.39-3.83q13-29.29,27.52-57.86A7.92,7.92,0,0,0,389.74,73.24Z"/></g><g id="change2_4"><path fill="#fadacd" d="M215.42,93.22c-.3-4.67-4.51-9.16-10.09-6.85-10.73,4.46-22.59,1.77-33.65,0-13-2-25.71-4.53-37.7-10a7,7,0,0,0-9,2.46,6.88,6.88,0,0,0-2.34,8.45,258.43,258.43,0,0,0,32.6,58.48c3.11,4.19,8.62,3.86,12,.37q22.37-23,45.9-44.7A7.93,7.93,0,0,0,215.42,93.22Z"/></g><g id="change2_5"><path fill="#fadacd" d="M469.19,31.63c-2.9-3.67-8.91-5-12.19.1-6.31,9.76-17.59,14.28-27.68,19.14-11.82,5.68-23.73,10.87-36.7,13.2a7,7,0,0,0-6,7.13,6.88,6.88,0,0,0,2.87,8.29,258.53,258.53,0,0,0,60,29.62c4.94,1.69,9.28-1.72,10.1-6.52Q465,71,472,39.73A8,8,0,0,0,469.19,31.63Z"/></g><g id="change3_2"><path fill="#b798c7" d="M301.28,92.37C300,87.86,295,84.3,290,87.69c-9.62,6.53-21.77,6.28-32.95,6.81-13.1.62-26.09.75-38.94-2.18a7,7,0,0,0-8.33,4.22,6.87,6.87,0,0,0-.59,8.75A258.42,258.42,0,0,0,252.91,156c3.89,3.48,9.21,2,11.84-2.06q17.29-27,36-53A7.94,7.94,0,0,0,301.28,92.37Z"/></g><g fill="#fadacd" id="change2_2" clip-path="url(#a)"><path d="M44.14,79.87c-9.77,0-9.78,15.18,0,15.18S53.93,79.87,44.14,79.87Z"/><path d="M75.41,75c-9.78,0-9.79,15.18,0,15.18S85.19,75,75.41,75Z"/><path d="M90.83,104.19a6.82,6.82,0,0,0-4-4,5.78,5.78,0,0,0-2.93-.65l-2,.27a7.63,7.63,0,0,0-3.35,1.95c-.39.52-.79,1-1.19,1.54a7.59,7.59,0,0,0-1,3.83v.45a8.45,8.45,0,0,0,2.22,5.37A5.71,5.71,0,0,0,81,114.5a5.72,5.72,0,0,0,2.92.65l2-.27a7.63,7.63,0,0,0,3.35-1.95l1.19-1.54a7.56,7.56,0,0,0,1-3.83v-.45A5.75,5.75,0,0,0,90.83,104.19Z"/></g><g fill="#fadacd" id="change2_1" clip-path="url(#b)"><path d="M387.58,94.24q-35.43,21-70,43.45a3.73,3.73,0,0,0-1.52,1.84c-.12,0-.24,0-.37,0a1.9,1.9,0,0,0-.25,0,1.38,1.38,0,0,0-.2,0h-.44a2.83,2.83,0,0,0-1.46.33,2.87,2.87,0,0,0-1.23.78,4.27,4.27,0,0,0-1.11,2.69c0,.33.09.67.14,1a3.76,3.76,0,0,0,1,1.67l.77.59a3.69,3.69,0,0,0,1.92.52h.44a.93.93,0,0,0,.24,0l.21,0a3.44,3.44,0,0,0,3.37-2.25,3.39,3.39,0,0,0,2.35-.58q34.59-22.41,70-43.45C395.61,98.3,391.8,91.74,387.58,94.24Z"/><path d="M386,67.86a968.48,968.48,0,0,0-85.31,48.28c-4.11,2.61-.31,9.18,3.84,6.55a972.31,972.31,0,0,1,85.3-48.28C394.18,72.22,390.34,65.67,386,67.86Z"/></g><g fill="#b798c7" id="change3_3" clip-path="url(#c)"><path d="M207.94,127.45q-42.33-25.23-85.89-48.31c-4.32-2.28-8.16,4.27-3.83,6.56q43.54,23.07,85.89,48.3C208.32,136.51,212.14,130,207.94,127.45Z"/><path d="M195.19,140.53a596.73,596.73,0,0,1-75.35-39.7c-4.16-2.58-8,4-3.84,6.56a598.77,598.77,0,0,0,75.36,39.69C195.79,149,199.66,142.49,195.19,140.53Z"/></g><g fill="#b798c7" id="change3_1" clip-path="url(#d)"><path d="M421.06,94c-4.17,8.83,9.55,15.33,13.73,6.48S425.24,85.16,421.06,94Z"/><path d="M428.7,66.17c-4.17,8.84,9.55,15.34,13.73,6.49S432.88,57.32,428.7,66.17Z"/><path d="M463,62.18a6.78,6.78,0,0,0-5.34,1.91,5.74,5.74,0,0,0-1.84,2.37c-.21.64-.41,1.29-.62,1.94a7.57,7.57,0,0,0,.34,3.86L456.4,74a7.51,7.51,0,0,0,3,2.57l.41.2a8.54,8.54,0,0,0,5.8.28,8.44,8.44,0,0,0,4.3-3.91l.62-1.94a7.67,7.67,0,0,0-.33-3.86l-.89-1.73a7.55,7.55,0,0,0-3-2.58l-.4-.19A5.69,5.69,0,0,0,463,62.18Z"/></g><g fill="#fadacd" id="change2_3" clip-path="url(#e)"><path d="M231,127.23c-8,5.68.86,18,8.82,12.35S238.92,121.54,231,127.23Z"/><path d="M253.54,105.06c-7.95,5.68.86,18,8.83,12.35S261.5,99.37,253.54,105.06Z"/><path d="M283.08,119.88a5.72,5.72,0,0,0-2.7-1.08,5.81,5.81,0,0,0-2.9.14,5.74,5.74,0,0,0-2.76,1.17l-1.48,1.4a7.52,7.52,0,0,0-1.59,3.53c0,.65,0,1.3-.08,1.94A7.45,7.45,0,0,0,273,130.7l.26.37a7.8,7.8,0,0,0,10.59,1.76l1.48-1.39a7.51,7.51,0,0,0,1.59-3.54c0-.65.05-1.29.08-1.94a7.62,7.62,0,0,0-1.39-3.72l-.26-.36A5.64,5.64,0,0,0,283.08,119.88Z"/></g><g id="change4_1"><path fill="#e985a6" d="M485,3.3c-28.35,18.81-57.8,36.18-89.33,49.13A394.34,394.34,0,0,1,302.05,77.5C238.37,86.66,172.27,81.1,110.62,63,76.83,53,43.78,38.46,17.47,14.54,10.27,8-.77,18.43,6.47,25,55.38,69.46,124.92,86.84,189.05,94c66.33,7.41,134.88.9,197.76-22,37.59-13.68,72.3-33.37,105.56-55.43C500.45,11.23,493.19-2.12,485,3.3Z"/></g></g></svg>