<?xml version="1.0" encoding="UTF-8" standalone="no"?><svg xmlns="http://www.w3.org/2000/svg" xmlns:xlink="http://www.w3.org/1999/xlink" contentScriptType="text/ecmascript" fill="#000000" width="596.3" zoomAndPan="magnify" contentStyleType="text/css" viewBox="-0.7 -0.7 596.3 472.3" height="472.3" preserveAspectRatio="xMidYMid meet" version="1"><defs><clipPath id="a"><path d="M 553 144 L 595.53125 144 L 595.53125 164 L 553 164 Z M 553 144"/></clipPath><clipPath id="b"><path d="M 391 466 L 400 466 L 400 471.589844 L 391 471.589844 Z M 391 466"/></clipPath><clipPath id="c"><path d="M 593 149 L 595.53125 149 L 595.53125 154 L 593 154 Z M 593 149"/></clipPath></defs><g><g><path fill="#89a979" d="M 219.777344 5.632812 C 222.503906 7.183594 224.375 9.667969 226.105469 12.101562 C 232.078125 20.496094 237.167969 29.390625 241.835938 38.621094 C 246.441406 47.734375 250.339844 57.074219 253.8125 66.609375 C 256.898438 75.097656 259.058594 83.867188 260.964844 92.722656 C 262.59375 100.285156 264.058594 107.839844 264.808594 115.53125 C 265.605469 123.707031 266.398438 131.875 266.140625 140.121094 C 266.003906 144.386719 266.417969 148.65625 266.167969 152.945312 C 265.878906 157.925781 265.585938 162.8125 262.324219 166.9375 C 261.546875 168.207031 261.058594 169.695312 259.65625 170.496094 C 259.03125 170.902344 258.335938 171.132812 257.621094 171.308594 C 254.324219 173.191406 250.917969 174.167969 247.191406 172.601562 C 246.320312 172.242188 245.992188 171.230469 245.113281 170.878906 C 244.6875 170.882812 244.261719 170.886719 243.835938 170.886719 C 243.386719 171.238281 242.964844 171.238281 242.574219 170.789062 L 242.570312 170.792969 C 240.636719 170.28125 238.617188 170.121094 236.71875 169.449219 C 236.429688 168.960938 235.957031 168.867188 235.449219 168.847656 C 234.964844 168.21875 235.214844 167.46875 235.09375 166.777344 C 233.738281 164.738281 231.070312 163.964844 229.371094 163.691406 C 226.660156 163.257812 225.175781 161.839844 223.65625 160.167969 C 223.046875 159.492188 222.714844 158.859375 221.71875 159.148438 C 218.398438 157.570312 216.535156 154.40625 214.445312 151.726562 C 210.894531 147.179688 208.027344 142.09375 204.921875 137.203125 C 204.359375 136.316406 204.03125 135.28125 203.597656 134.3125 C 202.851562 133.386719 203.027344 132.070312 202.273438 131.148438 C 197.492188 122.492188 195.28125 112.90625 192.621094 103.53125 C 190.285156 95.300781 189.148438 86.828125 188.632812 78.203125 C 188.226562 71.457031 187.996094 64.675781 188.148438 57.984375 C 188.304688 51.0625 187.824219 43.914062 190.28125 37.140625 C 190.742188 35.871094 190.546875 34.363281 190.648438 32.964844 C 192.09375 32.882812 193.480469 31.683594 195.015625 32.773438 C 195.21875 32.011719 194.503906 31.808594 194.222656 31.375 C 193.425781 30.140625 192.640625 29.070312 195.097656 28.828125 C 196.3125 28.707031 196.070312 28.480469 195.839844 26.988281 C 195.554688 25.152344 197.359375 24.953125 198.472656 24.304688 C 198.476562 24.238281 198.703125 24.527344 198.589844 24.195312 C 196.378906 23.277344 196.609375 21.066406 195.933594 19.347656 C 195.941406 19.042969 196.003906 18.753906 196.105469 18.46875 C 196.054688 16.597656 197.945312 16.410156 198.835938 15.347656 C 200.675781 13.148438 200.007812 10.199219 201.320312 7.765625 C 202.476562 5.621094 205.894531 2.476562 208.335938 2.808594 C 210.777344 3.140625 213.308594 2.832031 215.671875 3.742188 C 217.28125 3.84375 218.117188 5.636719 219.777344 5.632812"/></g><g><path fill="#89a979" d="M 353.027344 127.914062 C 353.019531 134.351562 352.972656 140.730469 351.496094 147.117188 C 350.089844 153.210938 348.410156 159.203125 346.105469 164.953125 C 342.609375 173.667969 337.964844 181.808594 332.988281 189.804688 C 328.046875 197.738281 322.007812 204.699219 315.949219 211.703125 C 310.339844 218.191406 303.953125 223.742188 296.613281 228.183594 C 293.570312 228.710938 290.925781 230.765625 287.683594 230.527344 C 284.515625 231.296875 281.785156 230.3125 279.296875 228.394531 C 278.667969 227.523438 277.855469 226.847656 276.992188 226.222656 C 274.15625 222.710938 272.472656 218.695312 271.957031 214.222656 C 271.191406 207.570312 271.96875 200.992188 273.046875 194.4375 C 275.101562 191.738281 274.632812 188.304688 275.28125 185.292969 C 276.378906 180.15625 278.953125 175.761719 280.765625 171.007812 C 284.621094 160.882812 289.808594 151.5 295.679688 142.351562 C 301.136719 133.847656 307.296875 125.925781 313.8125 118.351562 C 317.683594 113.851562 321.992188 109.304688 327.464844 106.375 C 329.203125 104.65625 331.535156 103.871094 333.503906 102.515625 L 333.488281 102.523438 C 335.367188 101.613281 337.441406 101.851562 339.417969 101.507812 C 340.433594 101.34375 341.449219 101.027344 342.464844 101.515625 C 343.988281 101.660156 344.253906 103.789062 345.925781 103.710938 C 347.75 103.667969 348.824219 104.425781 348.78125 106.375 C 350.28125 110.34375 351.769531 114.308594 350.40625 118.65625 C 350.277344 119.066406 350.117188 119.59375 350.625 119.753906 C 354.578125 121.011719 351.941406 122.835938 351.070312 124.492188 C 350.980469 124.644531 350.855469 124.796875 350.714844 124.933594 C 350.890625 124.976562 351.058594 124.917969 351.234375 124.753906 C 352.441406 124.253906 352.648438 124.925781 352.6875 125.910156 C 352.71875 126.582031 352.316406 127.351562 353.027344 127.914062"/></g><g><path fill="#89a979" d="M 442.0625 276.917969 C 439.214844 282.742188 435.78125 288.039062 430.988281 292.605469 C 428.535156 294.941406 426.613281 297.972656 424.0625 300.378906 C 420.277344 303.953125 415.777344 306.523438 411.648438 309.613281 C 408.277344 312.140625 404.882812 314.617188 401.238281 316.699219 C 396.316406 319.511719 391.574219 322.59375 386.285156 324.835938 C 382.011719 326.644531 377.949219 328.964844 373.523438 330.542969 C 362.761719 334.378906 351.988281 338.109375 340.582031 339.566406 C 340.402344 339.589844 340.25 339.820312 340.085938 339.953125 C 337.03125 340.660156 333.972656 340.648438 330.898438 340.105469 C 329.746094 339.898438 328.511719 339.917969 327.730469 338.8125 C 326.070312 337.136719 325.878906 334.550781 323.941406 332.964844 C 322.980469 332.171875 323.988281 330.734375 323.878906 329.589844 C 323.90625 329.292969 323.972656 329.003906 324.0625 328.71875 C 324.316406 327.828125 325.015625 326.972656 324.566406 326.011719 C 323.585938 323.90625 324.640625 322.152344 325.410156 320.339844 C 325.246094 318.585938 324.085938 316.527344 326.804688 315.632812 C 327.191406 315.472656 327.480469 315.933594 327.867188 315.808594 C 327.628906 315.339844 327.078125 315.179688 326.796875 314.75 C 326.578125 314.34375 326.519531 313.90625 326.554688 313.453125 C 326.632812 311.890625 327.667969 310.726562 328.269531 309.382812 L 328.253906 309.402344 C 329.195312 308.261719 328.984375 306.742188 329.53125 305.46875 L 329.53125 305.492188 C 330.53125 303.640625 332.605469 302.886719 333.824219 301.265625 C 334.027344 300.15625 333.628906 298.898438 334.632812 297.992188 C 337.648438 296.355469 340.679688 294.738281 341.992188 291.242188 C 342.730469 288.027344 344.71875 291.738281 345.820312 290.554688 C 346.269531 288.863281 347.78125 288.109375 348.917969 287.023438 C 351.589844 286.027344 352.109375 282.921875 354.328125 281.480469 L 354.285156 281.410156 C 355.910156 280.5 357.335938 279.308594 358.789062 278.15625 C 362.449219 276.96875 365.589844 274.65625 368.886719 272.835938 C 373.921875 270.058594 379.515625 268.925781 384.503906 266.363281 C 389.136719 263.984375 394.066406 262.527344 398.902344 260.882812 C 405.183594 258.742188 411.832031 257.789062 418.515625 258.074219 C 421.148438 258.183594 423.925781 257.21875 426.449219 258.75 C 427.105469 259.375 427.757812 259.199219 428.40625 258.730469 C 428.839844 258.707031 429.273438 258.683594 429.707031 258.664062 C 432.210938 260.152344 435.464844 259.507812 437.808594 261.820312 C 438.722656 262.722656 439.953125 263.453125 440.832031 264.515625 C 441.707031 264.871094 441.929688 265.640625 442.074219 266.460938 C 443.089844 269.945312 443.097656 273.433594 442.0625 276.917969"/></g><g><path fill="#89a979" d="M 347.878906 392.734375 C 344.371094 394.742188 340.726562 396.460938 337.070312 398.191406 C 329.28125 401.875 321.09375 404.179688 312.734375 406.066406 C 304.941406 407.824219 297.058594 408.890625 289.097656 409.066406 C 281.089844 409.246094 273.015625 409.558594 265.074219 408.777344 C 256.082031 407.894531 246.925781 407.425781 238.339844 403.902344 C 236.53125 403.160156 235.503906 401.28125 233.472656 401.078125 C 233.234375 399.957031 234.457031 399.511719 234.621094 398.578125 C 234.695312 398.320312 234.777344 398.066406 234.851562 397.8125 C 235.109375 396.886719 234.714844 395.890625 235.136719 394.980469 C 236.027344 393.464844 236.496094 392.0625 234.453125 391.011719 C 233.269531 390.40625 233.230469 389.109375 232.921875 388 C 232.84375 387.554688 232.851562 387.113281 232.96875 386.675781 C 233.070312 386.40625 233.234375 386.175781 233.445312 385.984375 C 233.835938 385.683594 234.386719 385.519531 234.378906 384.882812 C 233.660156 383.84375 231.902344 382.839844 234.488281 381.84375 C 235.660156 381.390625 234.238281 380.296875 234.734375 379.566406 C 230.800781 377.660156 234.566406 376.757812 235.285156 375.46875 C 235.4375 375.195312 235.65625 374.953125 235.769531 374.644531 C 235.984375 373.722656 236.617188 373.089844 237.253906 372.449219 C 240.992188 368.984375 245.164062 365.726562 249.636719 363.730469 C 260.546875 358.863281 271.910156 354.734375 283.992188 354.132812 C 294.472656 353.613281 305.0625 352.800781 315.421875 355.589844 C 317.371094 356.113281 319.253906 356.898438 321.164062 357.566406 C 323.078125 360.097656 323.078125 360.144531 320.988281 361.191406 C 323.253906 361.476562 326.167969 358.152344 327.320312 362.492188 C 327.503906 363.058594 327.472656 363.828125 328.433594 363.664062 C 329.453125 363.503906 330.507812 361.792969 331.460938 363.484375 C 332.347656 365.074219 331.335938 366.089844 329.933594 366.878906 C 331.300781 366.011719 332.609375 366.105469 333.730469 367.210938 C 334.96875 368.433594 333.855469 369.324219 333.203125 370.261719 C 333.101562 370.53125 332.992188 370.800781 332.890625 371.070312 C 332.3125 372.796875 334.929688 373.710938 334.023438 375.507812 C 333.8125 376.277344 333.351562 376.964844 333.238281 377.765625 C 333.816406 379.117188 334.226562 377.691406 334.714844 377.667969 C 335.460938 377.367188 336.296875 377.363281 336.984375 376.902344 C 337.796875 376.375 338.371094 375.488281 339.398438 375.285156 C 343.980469 373.128906 347.261719 375.941406 350.683594 378.238281 C 351.089844 380.640625 350.222656 383.148438 351.316406 385.496094 C 351.449219 385.785156 351.460938 386.347656 351.269531 386.421875 C 348.140625 387.636719 351.289062 389.496094 350.785156 390.964844 C 350.261719 392.285156 349.664062 393.492188 347.878906 392.734375"/></g><g><path fill="#89a979" d="M 258.839844 235.199219 C 262.253906 238.097656 266.511719 239.980469 269.128906 243.828125 C 270.199219 245.074219 271.824219 245.410156 273.136719 246.265625 L 273.109375 246.265625 C 273.242188 246.679688 273.285156 246.140625 273.25 246.546875 C 272.816406 251.359375 276.246094 251.9375 279.710938 252.492188 C 284.59375 255.351562 286.789062 260.105469 288.601562 265.136719 C 288.808594 268.800781 289.183594 272.433594 290.769531 275.8125 C 290.871094 276.070312 290.910156 276.34375 290.902344 276.621094 C 290.757812 277.242188 290.203125 277.699219 290.179688 278.371094 C 290.121094 278.972656 290.40625 279.613281 289.988281 280.175781 C 288.75 281.136719 288.171875 282.792969 286.597656 283.398438 C 286.257812 283.867188 285.703125 284.167969 285.523438 284.761719 C 283.546875 285.683594 281.53125 286.65625 279.320312 286.570312 C 268.308594 286.136719 257.222656 286.355469 246.355469 284.328125 C 237.765625 282.726562 229.25 280.691406 221.039062 277.484375 C 214.160156 274.800781 207.570312 271.664062 201.351562 267.660156 C 194.214844 263.066406 188.074219 257.425781 182.722656 250.878906 C 182.566406 249.363281 181.316406 248.867188 180.242188 248.207031 C 177.332031 244.308594 175.519531 239.816406 173.503906 235.449219 C 173.226562 234.851562 173.425781 233.417969 174.828125 233.28125 C 175.828125 229.457031 179.304688 228.230469 182.121094 226.3125 C 183.027344 225.84375 183.644531 225.125 183.972656 224.15625 C 189.453125 224.050781 194.507812 221.652344 200.089844 221.59375 C 210.117188 221.496094 219.9375 222.417969 229.738281 224.535156 C 238.027344 226.324219 246.1875 228.296875 253.546875 232.710938 C 255.320312 233.519531 256.832031 234.890625 258.839844 235.199219"/></g><g><path fill="#c98d60" d="M 290.660156 276.898438 C 290.660156 276.6875 290.660156 276.476562 290.664062 276.265625 C 289.859375 272.554688 288.417969 268.996094 288.019531 265.1875 C 286.03125 260.492188 283.707031 256.027344 279.523438 252.847656 C 278.453125 252.445312 277.839844 251.652344 277.554688 250.570312 C 277.179688 249.945312 277.832031 248.871094 276.671875 248.589844 C 275.863281 248.308594 276.023438 247.480469 275.710938 246.925781 C 274.75 243.890625 273.5625 240.953125 271.910156 238.226562 C 271.5625 237.652344 271.09375 237.191406 271.734375 236.558594 C 272.8125 235.210938 271.078125 234.667969 270.90625 233.679688 C 270.609375 232.496094 268.933594 231.882812 269.519531 230.367188 C 269.558594 230.175781 269.695312 230.082031 269.914062 230.125 C 269.769531 229.976562 269.625 230 269.453125 230.195312 C 268.691406 230.039062 269.035156 229.058594 268.394531 228.828125 L 268.386719 228.863281 C 268.8125 227.640625 266.941406 227.363281 267.28125 226.175781 C 264.007812 219.851562 261.382812 213.242188 258.753906 206.640625 C 258.789062 205.910156 258.742188 205.203125 258.128906 204.679688 C 255.742188 200.378906 253.539062 196.007812 252.910156 191.035156 C 254.414062 190.398438 253.113281 189.425781 253.195312 188.617188 C 252.96875 187.902344 254.625 186.9375 252.890625 186.445312 C 252.03125 186.832031 251.179688 187.882812 250.328125 186.46875 C 250.203125 186.324219 250.164062 186.160156 250.210938 185.976562 C 250.65625 184.21875 251.355469 182.578125 252.441406 181.117188 C 254.746094 181.476562 256.019531 177.59375 258.203125 179.214844 C 260.328125 180.789062 262.585938 179.589844 264.609375 180.472656 C 264.84375 180.578125 265.203125 179.925781 265.621094 179.777344 C 266.957031 179.878906 267.277344 180.96875 267.726562 181.933594 C 267.816406 182.128906 267.867188 182.332031 267.882812 182.546875 C 268.269531 183.441406 267.792969 184.71875 269.0625 185.230469 C 269.734375 186.960938 270.40625 188.691406 271.078125 190.421875 C 271.410156 191.328125 271.589844 192.316406 272.375 192.992188 C 272.597656 193.472656 272.820312 193.953125 273.046875 194.433594 C 273.914062 198.988281 272.847656 203.519531 272.539062 208.003906 C 272.074219 214.816406 274.015625 220.613281 277.648438 226.101562 C 278.3125 226.824219 278.105469 227.726562 278.125 228.566406 C 278.152344 230.019531 278.953125 230.113281 280.0625 229.75 C 281.660156 229.917969 283.269531 229.617188 284.53125 231.308594 C 285.414062 232.492188 287.117188 231.617188 288.460938 231.605469 C 288.769531 231.648438 289.027344 231.792969 289.238281 232.019531 C 293.644531 241.855469 298 251.714844 302.496094 261.507812 C 303.257812 263.171875 302.804688 265.484375 304.960938 266.453125 C 305.523438 267.503906 304.714844 269.054688 306.183594 269.769531 C 309.128906 274.570312 311.042969 279.867188 313.371094 284.957031 C 317.335938 293.628906 321.589844 302.15625 325.789062 310.714844 C 326.121094 311.066406 326.1875 311.496094 326.140625 311.957031 C 325.535156 314.441406 324.257812 316.78125 324.527344 319.457031 C 324.4375 319.722656 324.320312 319.980469 324.191406 320.230469 C 323.746094 321.351562 322.945312 322.347656 322.976562 323.648438 C 323.011719 323.933594 323.011719 324.21875 323 324.507812 C 321.132812 327.148438 322.03125 329.820312 322.910156 332.488281 C 324.511719 334.546875 325.660156 337.039062 328.308594 338.085938 C 330.988281 340.066406 334.089844 340.035156 337.058594 339.414062 C 338.359375 339.140625 339.199219 339.011719 340.085938 339.953125 C 342.730469 342.769531 343.265625 346.652344 345.085938 349.902344 C 349.007812 356.90625 353.089844 363.84375 356.269531 371.242188 C 355.757812 372.441406 357.421875 372.300781 357.449219 373.164062 C 357.550781 373.582031 357.648438 374.003906 357.75 374.421875 C 357.609375 375.039062 357.464844 375.648438 356.839844 375.972656 C 355.433594 375.71875 354.285156 375.523438 353.597656 373.742188 C 353.195312 372.699219 351.035156 372.566406 349.636719 372.59375 C 347.886719 372.625 346.589844 371.921875 345.339844 370.902344 C 344.488281 370.589844 343.648438 370.257812 342.980469 369.613281 C 339.804688 366.691406 335.929688 364.855469 332.242188 362.726562 C 331.199219 361.949219 329.691406 361.523438 329.992188 359.738281 C 329.09375 356.132812 326.972656 353.082031 325.183594 349.949219 C 322.585938 345.386719 319.996094 340.71875 317.886719 336.023438 C 312.710938 324.484375 306.320312 313.550781 301.484375 301.847656 C 298.433594 294.46875 294.660156 287.382812 291.214844 280.167969 C 290.933594 279.832031 290.707031 279.46875 290.621094 279.03125 C 290.476562 278.320312 290.519531 277.609375 290.660156 276.898438"/></g><g><path fill="#a4c9e3" d="M 17.613281 383.605469 C 18.667969 390.269531 20.296875 396.839844 21.824219 403.375 C 23.503906 410.550781 24.910156 417.765625 26.3125 424.988281 C 26.820312 427.609375 27.839844 430.359375 27.4375 432.855469 C 27.078125 435.097656 27.484375 438.085938 24.820312 439.59375 C 23.375 439.445312 23.328125 440.707031 22.859375 441.542969 C 15.394531 443.882812 9.75 440.050781 8.90625 433.34375 C 7.953125 425.792969 6.429688 418.410156 4.703125 411.027344 C 3.082031 404.082031 1.609375 397.09375 0.253906 390.09375 C -0.015625 388.6875 0.527344 387.128906 0.695312 385.640625 C 0.136719 383.78125 0.992188 382.03125 1.09375 380.222656 C 1.304688 379.472656 1.828125 379.292969 2.527344 379.425781 C 3.976562 380.628906 4.050781 382.144531 3.34375 384.25 C 4.082031 382.984375 5.339844 382.761719 4.128906 381.039062 C 2.742188 379.0625 5.046875 379.445312 6.15625 379.277344 C 6.371094 379.261719 6.601562 379.3125 6.800781 379.257812 C 14.007812 377.207031 14.007812 377.207031 17.613281 383.605469"/></g><g><path fill="#c98d61" d="M 347.878906 392.734375 C 349.132812 392.597656 349.867188 391.800781 350.410156 390.757812 C 352.046875 389.3125 353.710938 387.902344 355.507812 386.664062 C 357.371094 386.300781 356.664062 384.640625 356.976562 383.558594 C 357.59375 381.382812 358.59375 380.3125 360.863281 381.628906 C 361.703125 381.640625 362.28125 382.058594 362.664062 382.789062 C 366.589844 390.253906 370.511719 397.714844 374.4375 405.179688 C 375.636719 407.035156 376.144531 409.308594 377.855469 410.855469 C 378.035156 411.289062 378.214844 411.726562 378.394531 412.160156 C 378.539062 414.820312 380.4375 416.386719 382.097656 418.101562 C 383.542969 419.050781 382.679688 421.175781 384.140625 422.113281 C 384.304688 423.488281 385.070312 424.601562 385.765625 425.738281 C 386.15625 426.382812 386.570312 426.988281 385.785156 427.628906 C 385.273438 427.957031 384.789062 428.320312 384.289062 428.824219 C 384.785156 428.574219 385.167969 428.28125 385.644531 428.203125 C 385.949219 428.167969 386.246094 428.195312 386.539062 428.28125 C 388.449219 429.558594 388.390625 430.933594 386.222656 433.828125 C 388.65625 434.429688 390.601562 435.765625 392.289062 437.515625 C 392.304688 438.191406 391.859375 438.566406 391.378906 438.914062 C 390.285156 439.574219 390.621094 440.957031 389.929688 441.820312 C 389.515625 442.4375 388.925781 442.84375 388.300781 443.203125 C 387.589844 443.601562 386.824219 443.921875 386.28125 444.566406 C 386.125 444.785156 385.964844 445.003906 385.816406 445.230469 C 385.546875 445.726562 385.339844 446.253906 384.972656 446.691406 C 381.507812 448.375 381.125 448.132812 380.789062 444.003906 C 379.878906 444.695312 379.089844 445.667969 377.757812 445.277344 C 377.105469 445.007812 376.550781 444.519531 376.855469 443.824219 C 377.480469 442.386719 376.339844 442.570312 375.636719 442.316406 L 375.636719 442.261719 C 375.238281 441.230469 375.277344 440.15625 375.273438 439.078125 C 375.273438 438.601562 375.789062 437.859375 375.101562 437.683594 C 371.769531 436.820312 373.253906 434.632812 373.636719 432.742188 C 372.761719 432.28125 372.242188 432.9375 371.652344 433.367188 C 371.050781 433.585938 370.515625 433.488281 370.0625 433.027344 C 368.851562 430.90625 367.003906 429.125 366.65625 426.550781 C 366.363281 425.128906 368.125 426.175781 368.21875 425.238281 C 368.660156 425.164062 368.09375 424.679688 368.277344 425.070312 C 365.859375 425.835938 365.210938 423.976562 364.421875 422.40625 C 364.25 422.0625 364.335938 421.589844 363.867188 421.398438 C 362.117188 418.0625 359.40625 415.289062 358.171875 411.648438 C 357.550781 410.855469 357.773438 409.648438 356.867188 409 C 352.984375 404.066406 350.53125 398.34375 347.878906 392.734375"/></g><g><path fill="#f8c77c" d="M 496.507812 351.183594 C 496.796875 353.257812 496.636719 355.203125 496.089844 357.308594 C 494.878906 361.941406 494.207031 366.71875 493.339844 371.4375 C 492.277344 377.226562 491.292969 383.035156 490.152344 388.8125 C 489.785156 390.679688 489.277344 392.285156 486.554688 392.480469 C 485.179688 392.578125 484.277344 394.972656 482.0625 395.132812 C 478.722656 395.378906 474.710938 392.910156 473.433594 389.855469 C 471.859375 386.105469 472.609375 382.507812 473.335938 378.84375 C 474.617188 372.367188 475.886719 365.894531 477.273438 359.441406 C 477.699219 357.480469 478.488281 355.59375 479.109375 353.675781 C 480.480469 351.871094 480.828125 349.632812 481.675781 347.601562 C 481.972656 347.53125 482.269531 347.535156 482.566406 347.621094 C 483.339844 347.980469 483.996094 348.644531 484.921875 348.566406 C 485.117188 348.550781 485.339844 348.988281 485.5625 348.460938 C 486.605469 345.972656 486.628906 345.976562 489.082031 346.667969 C 489.503906 346.785156 489.917969 346.867188 490.351562 346.863281 C 491.953125 346.957031 493.402344 347.160156 491.980469 349.285156 C 491.78125 349.34375 491.59375 349.429688 491.410156 349.523438 C 490.863281 349.804688 490.710938 350.335938 490.851562 350.824219 C 490.890625 350.972656 490.925781 350.589844 490.960938 350.46875 C 491.039062 350.164062 491.140625 349.882812 491.34375 349.636719 C 491.535156 349.546875 491.753906 349.519531 491.941406 349.441406 C 495.144531 348.121094 495.144531 348.121094 496.507812 351.183594"/></g><g><path fill="#f8c77c" d="M 89.148438 291.898438 C 86.511719 292.625 84.894531 290.730469 83.582031 289.1875 C 79.328125 284.179688 76.238281 278.359375 72.816406 272.777344 C 71.140625 270.035156 69.363281 267.351562 67.632812 264.644531 C 67.644531 263.371094 65.789062 262.261719 67.296875 260.855469 C 67.851562 260.546875 68.246094 260.128906 68.179688 259.359375 C 68.042969 259.835938 68.082031 260.324219 67.679688 260.621094 C 66.664062 260.019531 65.363281 260.152344 64.433594 259.335938 C 63.183594 258.738281 64.277344 258.078125 64.378906 257.445312 C 64.125 256.90625 64.460938 256.625 64.84375 256.359375 C 66.570312 256.355469 66.167969 253.242188 68.371094 253.933594 C 67.898438 252.40625 69.128906 251.625 69.816406 250.601562 C 70.429688 249.710938 71.132812 248.925781 72.179688 248.53125 C 73.015625 248.195312 74.128906 248.925781 74.636719 248.492188 C 76.828125 246.640625 78.09375 247.914062 79.351562 249.59375 C 83.050781 254.097656 85.410156 259.460938 88.738281 264.207031 C 91.785156 268.550781 94.777344 272.941406 97.644531 277.40625 C 100.636719 282.070312 99.015625 291.601562 91.722656 291.816406 C 91.484375 291.820312 91.257812 292.230469 91.023438 292.453125 C 90.257812 292.804688 90.210938 292.160156 90.011719 291.722656 C 89.476562 290.558594 89.429688 291.800781 89.148438 291.898438"/></g><g clip-path="url(#a)"><path fill="#a4c9e3" d="M 558.394531 145.464844 C 567.613281 143.664062 576.945312 144.238281 586.242188 144.238281 C 587.324219 144.238281 588.914062 143.902344 589.625 145.433594 C 590.164062 145.976562 590.808594 146.183594 591.5625 146.03125 C 593.46875 146.347656 593.726562 148.257812 594.800781 149.378906 C 595.328125 150.015625 595.066406 150.660156 594.632812 151.121094 C 593.046875 152.820312 595.292969 152.058594 595.527344 152.570312 C 595.390625 155.4375 594.910156 158.148438 592.207031 159.84375 C 591.289062 159.890625 590.816406 160.5625 590.316406 161.191406 C 587.640625 163.058594 584.535156 162.414062 581.664062 162.355469 C 575.492188 162.226562 569.359375 162.699219 563.21875 163.03125 C 562.039062 163.09375 560.847656 163.230469 559.808594 162.457031 C 559.316406 162.746094 558.789062 162.769531 558.316406 162.476562 C 556.464844 161.339844 555.289062 159.425781 553.472656 158.238281 C 553.820312 157.152344 554.140625 156.058594 554.367188 154.933594 C 554.65625 154.203125 556.21875 153.957031 554.539062 152.597656 C 553.054688 151.394531 554.539062 149.160156 554.570312 147.375 C 554.660156 147.097656 554.804688 146.84375 554.996094 146.621094 C 555.789062 145.238281 557.507812 146.585938 558.394531 145.464844"/></g><g><path fill="#ca8f63" d="M 265.863281 179.960938 C 264.835938 180.550781 266.125 181.582031 265.316406 182.449219 C 264.042969 181.476562 262.882812 180.085938 260.957031 181.171875 C 260.222656 181.585938 259.375 180.792969 258.582031 180.460938 C 257.378906 179.957031 255.789062 179.152344 255.105469 180.972656 C 254.402344 182.835938 253.773438 182.15625 252.917969 181.265625 C 253.429688 180.679688 252.824219 180.453125 252.554688 180.136719 C 252.414062 179.976562 252.289062 179.820312 252.1875 179.675781 C 251.925781 179.894531 251.957031 180.253906 251.78125 180.53125 C 251.484375 180.90625 251.097656 181.113281 250.648438 181.230469 C 249.773438 181.414062 249 181.21875 248.335938 180.621094 C 248.214844 180.171875 247.492188 179.78125 248.1875 179.242188 C 248.976562 177.613281 248.953125 176.230469 247.015625 175.441406 L 247.03125 175.457031 C 246.492188 174.328125 246.078125 173.203125 247.082031 172.097656 C 250.707031 173.0625 254.132812 172.296875 257.484375 170.890625 C 258.339844 171.230469 259.089844 171.28125 259.390625 170.164062 C 260.351562 169.070312 261.027344 167.71875 262.328125 166.9375 C 263.476562 170.105469 263.738281 173.5625 265.40625 176.5625 C 265.511719 177.421875 265.816406 178.082031 266.523438 178.710938 C 267.140625 179.257812 267.066406 180.054688 265.863281 179.960938"/></g><g><path fill="#cb9166" d="M 390.703125 438.261719 C 391.238281 438.242188 391.726562 438.128906 392.007812 437.605469 C 392.746094 437.210938 392.949219 437.878906 393.300781 438.257812 C 395.503906 439.875 395.714844 442.710938 397.246094 444.734375 C 397.640625 445.367188 397.914062 446.054688 398.089844 446.777344 C 398.15625 448.070312 397.566406 449.097656 396.792969 450.054688 C 395.460938 451.148438 394.5 452.3125 392.179688 452.046875 C 390.234375 451.820312 388.035156 453.402344 386.09375 454.527344 C 385.332031 454.96875 384.6875 456.03125 383.582031 455.15625 L 383.550781 455.179688 C 382.753906 453.273438 384.445312 452.578125 385.3125 451.519531 C 385.015625 451.191406 385 451.699219 384.816406 451.695312 C 383.792969 452.558594 382.734375 452.734375 381.613281 451.917969 C 381.003906 450.824219 379.453125 450.324219 379.628906 448.742188 C 378.515625 448.179688 379.617188 446.070312 377.746094 446.035156 L 377.75 445.984375 C 377.347656 445.589844 377.308594 445.179688 377.714844 444.757812 C 378.980469 444.941406 379.667969 444.242188 380.15625 443.183594 C 380.4375 442.578125 380.878906 442.035156 381.632812 442.382812 C 382.394531 442.734375 382.175781 443.40625 381.96875 444.027344 C 380.714844 447.847656 382.605469 447.210938 384.855469 446.070312 C 385.835938 446.007812 385.28125 445.191406 385.503906 444.757812 L 385.507812 444.757812 C 386.199219 443.871094 387.644531 443.992188 388.109375 442.804688 C 388.546875 442.371094 388.980469 441.933594 389.417969 441.496094 C 390.628906 440.757812 391.746094 440.558594 392.5625 441.941406 C 392.3125 440.59375 389.5625 440.402344 390.703125 438.261719"/></g><g><path fill="#ce966d" d="M 383.582031 455.15625 C 386.035156 453.804688 388.484375 452.445312 390.949219 451.109375 C 391.210938 450.96875 391.59375 450.882812 391.867188 450.964844 C 393.46875 451.441406 394.933594 451.640625 395.695312 449.65625 C 395.699219 449.648438 396.261719 449.855469 396.566406 449.964844 C 398.339844 450.429688 397.375 451.574219 397.210938 452.523438 C 396.96875 453.046875 396.59375 453.449219 396.105469 453.726562 C 395.882812 453.765625 395.683594 453.941406 395.769531 454.117188 C 395.828125 454.238281 396.140625 454.222656 396.355469 454.257812 C 396.609375 454.359375 396.804688 454.515625 396.960938 454.734375 C 397.445312 455.617188 397.714844 456.578125 398.03125 457.519531 C 398.253906 458.390625 398.503906 459.265625 397.691406 459.992188 C 397.023438 460.445312 396.160156 460.65625 395.796875 461.503906 C 395.648438 461.746094 395.46875 461.964844 395.273438 462.167969 C 394.378906 462.953125 393.199219 463.15625 392.179688 463.691406 C 391.628906 463.941406 391.0625 464.144531 390.449219 464.160156 C 389.167969 464.046875 388.144531 463.453125 388.054688 462.125 C 387.964844 460.851562 389.167969 460.511719 390.097656 460.058594 C 390.570312 459.828125 391.027344 459.574219 391.429688 459.257812 C 391.542969 459.078125 391.695312 458.789062 391.578125 458.679688 C 391.171875 458.28125 391.15625 458.875 390.9375 459.003906 C 389.972656 460.074219 388.898438 460.953125 387.390625 461.074219 C 387.195312 460.84375 387.003906 460.609375 386.808594 460.378906 C 386.027344 459.300781 386.78125 458.683594 387.425781 458.097656 C 386.566406 458.554688 385.710938 458.40625 384.914062 457.742188 C 384.460938 456.886719 383.417969 456.335938 383.582031 455.15625"/></g><g><path fill="#8ead7e" d="M 196.351562 19.210938 C 197.226562 20.96875 198.101562 22.722656 198.976562 24.480469 L 198.984375 24.472656 C 198.230469 25.371094 197.214844 25.914062 196.0625 26.285156 C 196.828125 27.679688 197.953125 26.558594 198.796875 27.253906 C 196.566406 26.945312 197.480469 32.292969 193.578125 28.921875 C 194.519531 31.265625 196.503906 31.882812 196.730469 34.242188 C 194.792969 32.4375 192.507812 34.488281 190.648438 32.964844 C 191.417969 28.679688 192.800781 24.585938 194.40625 20.554688 C 195.453125 20.683594 193.816406 16.925781 196.351562 19.210938"/></g><g><path fill="#8ead7e" d="M 215.855469 4.300781 C 213.445312 4.054688 211.03125 3.851562 208.628906 3.546875 C 206.648438 3.292969 202.855469 6.296875 201.984375 8.222656 C 200.695312 11.058594 201.160156 14.421875 199.164062 17.003906 C 199.042969 17.160156 199.003906 17.820312 198.851562 17.617188 C 196.695312 14.757812 197.5625 19.21875 196.386719 18.613281 C 195.960938 18.167969 195.984375 17.675781 196.238281 17.160156 C 195.355469 15.082031 196.96875 13.625 197.804688 12.199219 C 199.777344 8.835938 200.675781 4.734375 204.140625 2.328125 C 206.386719 1.976562 208.453125 0.40625 210.890625 1.34375 C 211.179688 1.394531 211.449219 1.492188 211.710938 1.625 C 212.894531 2.46875 214.324219 1.773438 215.570312 2.230469 C 215.964844 2.34375 216.390625 2.359375 216.746094 2.574219 C 217.347656 2.941406 218.171875 3.355469 217.78125 4.171875 C 217.351562 5.070312 216.515625 4.292969 215.855469 4.300781"/></g><g><path fill="#98b48a" d="M 235.371094 398.566406 C 235.503906 399.980469 234.164062 400.285156 233.472656 401.078125 C 229.863281 399.761719 229.527344 395.941406 227.574219 393.359375 C 227.589844 390.792969 225.332031 388.195312 227.65625 385.648438 L 227.671875 385.617188 C 228.027344 384.691406 228.664062 384.117188 229.671875 383.996094 C 231.148438 384.214844 231.394531 385.539062 231.976562 386.5625 C 232.246094 387.117188 232.484375 387.675781 232.316406 388.3125 C 231.421875 390.167969 230.480469 391.992188 233.152344 393.296875 C 233.824219 393.625 233.46875 394.472656 233.492188 395.074219 C 233.554688 396.5625 234.152344 397.722656 235.371094 398.566406"/></g><g><path fill="#ba9568" d="M 360.863281 381.628906 C 358.988281 381.574219 357.585938 381.664062 357.691406 384.359375 C 357.785156 386.667969 356.851562 387.300781 355.609375 386.855469 C 353.933594 386.03125 353.789062 384.253906 354.644531 383.308594 C 356.144531 381.65625 354.042969 381.339844 353.992188 380.363281 C 354.355469 379.6875 354 379.074219 353.824219 378.441406 C 353.796875 378.148438 353.8125 377.859375 353.863281 377.574219 C 353.9375 374.945312 351.976562 375.617188 350.503906 375.5 C 348.488281 375.316406 347.226562 373.707031 345.589844 372.8125 C 344.15625 372.027344 344.980469 370.859375 345.835938 369.960938 C 346.902344 371.539062 348.234375 371.832031 350.199219 371.722656 C 353.097656 371.566406 354.890625 374.042969 356.90625 375.796875 C 357.113281 377.4375 358.066406 377.675781 359.429688 377.136719 C 359.554688 377.234375 359.617188 377.359375 359.613281 377.519531 C 360.152344 378.132812 360.007812 379.171875 360.875 379.582031 C 361.867188 380.269531 361.097656 380.945312 360.863281 381.628906"/></g><g><path fill="#8fad7e" d="M 329.992188 359.738281 C 330.417969 360.835938 331.460938 361.347656 332.242188 362.105469 C 334.214844 363.398438 334.605469 365.59375 335.355469 367.578125 C 335.316406 369.3125 338.15625 371.457031 334.648438 372.710938 C 334.34375 372.738281 334.082031 372.644531 333.863281 372.429688 C 333.253906 371.644531 333.039062 370.597656 332.21875 369.953125 C 332.324219 369.042969 334.800781 369.140625 333.304688 367.648438 C 332.453125 366.800781 331.285156 366.425781 330.230469 367.667969 C 329.660156 368.34375 328.785156 369.007812 328.140625 367.914062 C 327.375 366.621094 328.472656 366.242188 329.476562 366.058594 C 330.964844 365.792969 331.488281 365.019531 330.878906 363.308594 C 329.992188 363.800781 329.152344 364.265625 328.3125 364.734375 C 327.621094 364.257812 328.660156 362.625 327.011719 362.785156 C 326.136719 361.339844 325.355469 360.070312 323.308594 361.507812 C 321.988281 362.4375 320.675781 361.660156 319.699219 360.46875 C 320.472656 359.800781 321.125 360.796875 322.03125 360.519531 C 321.742188 359.539062 321.453125 358.550781 321.164062 357.566406 C 323.1875 357.621094 325.039062 358.195312 326.84375 359.132812 C 327.769531 359.613281 328.726562 360.710938 329.992188 359.738281"/></g><g><path fill="#93b083" d="M 350.410156 124.65625 C 350.53125 123.949219 350.414062 122.921875 350.828125 122.621094 C 351.390625 122.207031 352.773438 122.636719 352.089844 121.226562 C 351.765625 120.558594 351.035156 120.277344 350.152344 120.679688 C 348.6875 121.351562 349.003906 120.039062 349.226562 119.554688 C 351.363281 115.007812 349.167969 110.734375 348.503906 106.363281 C 348.734375 106.140625 348.949219 106.164062 349.152344 106.402344 C 353.058594 110.121094 352.808594 115.160156 353.265625 119.898438 C 353.519531 122.539062 353.128906 125.238281 353.027344 127.914062 C 351.8125 127.882812 352.191406 127.117188 352.304688 126.425781 C 352.464844 125.445312 352.316406 124.734375 351.058594 125.3125 C 350.480469 125.453125 350.210938 125.285156 350.410156 124.65625"/></g><g><path fill="#b2d1e7" d="M 17.613281 383.605469 C 16.679688 383.542969 16.335938 383.125 15.929688 382.15625 C 14.4375 378.601562 11.535156 377.679688 8.507812 379.78125 C 7.402344 380.550781 6.773438 380.007812 5.929688 379.703125 C 5.554688 378.996094 5.875 378.453125 6.316406 377.972656 C 6.308594 377.929688 6.476562 377.980469 6.410156 377.84375 C 6.0625 378.101562 6.53125 377.683594 6.144531 377.914062 C 5.585938 377.839844 5.167969 377.554688 4.800781 377.167969 C 3.277344 375.175781 5.617188 374.878906 6.339844 374.136719 C 7.316406 373.132812 8.464844 373.660156 9.085938 374.953125 C 9.214844 375.121094 9.347656 375.289062 9.488281 375.449219 C 9.382812 375.324219 9.269531 375.210938 9.15625 375.078125 C 8.933594 373.933594 10.0625 374.273438 10.480469 373.839844 C 12.363281 374.65625 15.246094 373.898438 15.628906 377.097656 C 16.339844 378.8125 17.230469 380.460938 17.640625 382.292969 C 18.28125 382.742188 17.730469 383.171875 17.613281 383.605469"/></g><g><path fill="#90ae80" d="M 231.484375 386.867188 C 230.550781 386.230469 230.867188 384.773438 229.769531 384.242188 C 228.476562 383.089844 229.246094 382.078125 229.972656 381.085938 C 230.085938 380.960938 230.242188 380.980469 230.398438 380.964844 C 230.628906 380.9375 230.628906 380.820312 230.398438 380.746094 C 230.042969 380.449219 229.863281 380.117188 230.105469 379.675781 C 230.890625 377.695312 232.851562 376.746094 234.078125 375.152344 C 234.90625 374.59375 235.746094 374.382812 236.617188 375.058594 C 236.21875 376.695312 233.746094 376.601562 233.644531 378.519531 C 234.742188 379.460938 235.242188 377.519531 236.464844 378.226562 C 235.300781 379.515625 235.207031 380.90625 236.636719 382.089844 C 235.742188 383.324219 234.496094 382.125 233.71875 382.828125 C 232.867188 384.644531 236.546875 382.8125 235.363281 384.917969 C 234.992188 385.769531 234.011719 385.699219 233.421875 386.21875 L 233.429688 386.199219 C 232.9375 386.878906 232.464844 387.601562 231.484375 386.867188"/></g><g><path fill="#accee5" d="M 553.851562 157.84375 C 556.332031 158.507812 556.726562 161.652344 559.191406 162.339844 C 559.390625 162.394531 559.601562 162.417969 559.808594 162.453125 C 557.304688 164.304688 556.054688 160.589844 553.851562 161.113281 C 552.339844 159.636719 551.796875 157.722656 551.605469 155.726562 C 551.507812 154.664062 551.460938 153.640625 550.867188 152.722656 C 550.8125 152.429688 550.820312 152.140625 550.886719 151.851562 C 551.25 151.222656 551.519531 150.601562 551.671875 149.839844 C 552.035156 148.050781 552.910156 146.566406 555.148438 146.78125 C 555.078125 148.15625 555.363281 149.5625 554.746094 150.890625 C 554.511719 151.390625 554.425781 152.09375 554.933594 152.351562 C 557.785156 153.792969 555.628906 154.429688 554.511719 155.246094 C 553.574219 155.925781 554.878906 157.183594 553.851562 157.84375"/></g><g><path fill="#cd956c" d="M 393.300781 438.257812 C 392.871094 438.039062 392.4375 437.820312 392.007812 437.605469 C 389.320312 436.976562 387.789062 433.621094 384.234375 434.535156 C 386.523438 432.859375 388.175781 431.191406 386.160156 428.496094 C 386.394531 427.925781 386.738281 427.566406 387.414062 427.867188 C 389.671875 431.164062 392.058594 434.382812 393.300781 438.257812"/></g><g><path fill="#97b388" d="M 221.71875 159.148438 C 223.515625 158.683594 223.171875 159.03125 224.296875 160.144531 C 225.605469 161.441406 226.734375 163.90625 229.421875 162.652344 C 229.710938 162.515625 229.972656 162.328125 230.246094 162.164062 C 230.660156 165.609375 235.800781 163.238281 236.046875 166.886719 C 234.910156 166.976562 234.039062 168.222656 232.75 167.644531 C 228.59375 165.433594 224.855469 162.683594 221.71875 159.148438"/></g><g><path fill="#d4a480" d="M 392.023438 462.96875 C 393.105469 462.535156 394.183594 462.105469 395.261719 461.675781 C 397.34375 463.996094 399.171875 466.53125 401.199219 468.898438 C 400.710938 469.578125 399.976562 469.515625 399.273438 469.542969 C 397.324219 470.363281 396.25 468.414062 394.65625 468.097656 C 394.328125 467.875 394.019531 467.671875 393.90625 467.21875 C 393.792969 466.757812 394.808594 466.636719 394.207031 466.21875 C 394.046875 466.105469 393.6875 466.75 393.441406 467.066406 C 392.847656 467.664062 391.980469 467.066406 391.359375 467.539062 C 391.140625 467.527344 390.925781 467.511719 390.710938 467.496094 C 388.820312 466.210938 390.109375 465.554688 391.222656 464.863281 C 391.640625 464.292969 391.535156 463.503906 392.023438 462.96875"/></g><g><path fill="#fadaa8" d="M 491.441406 349.105469 C 491.929688 348.785156 492.28125 348.265625 491.914062 347.800781 C 491.433594 347.195312 490.753906 347.953125 490.15625 347.8125 C 489.082031 346.96875 488.039062 346.097656 487.828125 344.617188 C 487.890625 343.945312 488.191406 343.453125 488.863281 343.242188 C 489.070312 343.234375 489.273438 343.226562 489.476562 343.214844 C 491.3125 342.125 491.886719 344.71875 493.40625 344.5625 L 493.410156 344.5625 C 493.4375 345.902344 494.75 346.261719 495.378906 347.144531 C 496.613281 348.25 496.800781 349.648438 496.507812 351.183594 C 495.863281 351.210938 494.820312 352.566406 494.746094 350.796875 C 494.722656 350.207031 495.746094 349.433594 494.960938 348.878906 C 494.128906 348.289062 493.835938 349.496094 493.253906 349.765625 C 492.757812 350 492.066406 349.808594 491.460938 349.808594 C 491.292969 349.65625 491.234375 349.503906 491.285156 349.34375 C 491.335938 349.183594 491.386719 349.105469 491.441406 349.105469"/></g><g><path fill="#fadbaa" d="M 62.554688 252.867188 C 62.832031 248.429688 64.75 246.304688 69.632812 245.027344 C 71.628906 246.9375 68.996094 247.433594 68.554688 248.601562 C 68.199219 249 67.667969 249.355469 67.621094 249.875 C 67.4375 251.941406 66.0625 252.933594 64.386719 253.703125 C 63.511719 253.996094 62.902344 253.722656 62.554688 252.867188"/></g><g><path fill="#ce966d" d="M 401.199219 468.898438 C 398.382812 467.179688 396.257812 464.890625 395.261719 461.675781 L 395.253906 461.683594 C 395.902344 460.671875 396.621094 460.648438 397.398438 461.53125 C 397.734375 461.785156 397.539062 462.570312 398.222656 462.425781 C 398.355469 462.398438 398.230469 461.871094 398.210938 461.5625 C 398.230469 461.261719 398.324219 461 398.5 460.761719 C 399.214844 460.152344 399.988281 459.769531 400.945312 460.132812 C 401.585938 460.554688 400.816406 461.425781 401.492188 461.84375 C 401.816406 462.882812 401.523438 464.035156 402.105469 465.023438 C 402.054688 466.15625 403.039062 466.988281 403.015625 468.109375 C 402.472656 468.515625 401.992188 469.074219 401.199219 468.898438"/></g><g><path fill="#cf9972" d="M 374.46875 431.742188 C 375.238281 432.417969 375.402344 433.285156 374.707031 433.984375 C 374.09375 434.597656 372.976562 434.554688 373.777344 436.0625 C 374.691406 437.777344 375.777344 435.859375 376.800781 436.734375 C 375.597656 438.34375 376.308594 440.417969 375.636719 442.261719 C 373.777344 439.183594 371.921875 436.105469 370.0625 433.027344 C 370.660156 433.035156 371.257812 433.042969 371.855469 433.050781 C 372.457031 432.074219 373.792969 432.570312 374.46875 431.742188"/></g><g><path fill="#d4a480" d="M 396.5625 452.558594 C 396.3125 451.691406 397.734375 450.828125 396.566406 449.964844 C 396.589844 448.71875 397.421875 447.792969 397.859375 446.710938 C 398.09375 446.527344 398.324219 446.527344 398.558594 446.710938 C 398.960938 449.730469 402.398438 451.183594 402.488281 454.367188 C 403.015625 454.992188 403.542969 455.636719 403.820312 456.402344 C 404.261719 457.613281 403.816406 458.171875 402.511719 457.929688 C 401.6875 457.261719 401.09375 456.257812 399.90625 456.085938 C 399.675781 455.910156 399.523438 455.683594 399.441406 455.402344 C 400.734375 452.175781 398.085938 452.933594 396.5625 452.558594"/></g><g><path fill="#bdd8eb" d="M 551.238281 152.632812 C 551.4375 153.253906 552.785156 152.707031 552.480469 153.734375 C 551.671875 156.449219 553.636719 158.613281 553.851562 161.113281 C 551.242188 161.050781 549.136719 157.601562 549.898438 154.648438 C 549.4375 153.371094 549.691406 152.570312 551.238281 152.632812"/></g><g clip-path="url(#b)"><path fill="#d9ad8e" d="M 394.625 467.535156 C 396.667969 467.054688 397.433594 469.542969 399.273438 469.542969 C 398.617188 470.316406 397.675781 470.550781 396.773438 470.863281 C 392.628906 472.28125 391.914062 471.847656 391.359375 467.539062 C 391.8125 466.761719 392.574219 466.898438 393.289062 466.894531 C 393.769531 467.035156 393.734375 468.25 394.625 467.535156"/></g><g><path fill="#deba9f" d="M 402.410156 457.152344 C 403.09375 457.835938 403.601562 457.746094 403.433594 456.734375 C 403.296875 455.914062 402.816406 455.152344 402.488281 454.367188 C 404.75 455.457031 404.90625 458.023438 406.265625 459.746094 C 405.960938 460.300781 404.4375 460.164062 405.328125 461.40625 C 404.816406 462.707031 403.796875 463.25 402.476562 463.347656 C 401.425781 463.277344 401.589844 462.210938 401.109375 461.671875 C 400.40625 461.261719 401.070312 460.8125 401.074219 460.382812 C 400.894531 459.394531 401.105469 458.394531 400.941406 457.402344 C 401.339844 456.773438 401.8125 456.582031 402.410156 457.152344"/></g><g><path fill="#d4e5f2" d="M 10.480469 373.839844 C 10.046875 374.273438 9.613281 374.710938 9.175781 375.148438 L 9.1875 375.140625 C 8.113281 374.410156 7.269531 373.824219 5.878906 375.027344 C 4.957031 375.820312 4.640625 376.167969 5.320312 377.117188 C 5.4375 378.046875 4.730469 378.199219 4.101562 378.429688 C 2.964844 378.546875 1.816406 378.988281 0.691406 378.375 C 1.136719 375.128906 5.722656 372.105469 8.542969 373.195312 C 8.964844 372.8125 9.390625 372.789062 9.820312 373.191406 C 10.039062 373.40625 10.261719 373.621094 10.480469 373.839844"/></g><g><path fill="#f9d499" d="M 68.328125 248.308594 C 68 246.910156 70.84375 246.777344 69.632812 245.027344 C 70.058594 244.816406 70.484375 244.601562 70.914062 244.390625 C 74.625 245.109375 74.851562 245.53125 73.015625 248.296875 C 72.734375 248.480469 72.472656 248.695312 72.234375 248.9375 C 71.585938 249.589844 70.933594 250.242188 70.285156 250.898438 C 68.511719 250.882812 67.664062 250.171875 68.328125 248.308594"/></g><g><path fill="#fad8a3" d="M 488.863281 343.242188 C 488.640625 343.6875 488.414062 344.136719 488.191406 344.582031 C 487.425781 346.082031 485.394531 346.316406 484.878906 348.300781 C 484.628906 349.261719 483.242188 348.007812 482.359375 347.804688 C 482.140625 347.808594 481.921875 347.816406 481.703125 347.820312 C 481.324219 347.746094 481.097656 347.519531 481.015625 347.144531 C 482.609375 344.027344 486.707031 341.992188 488.863281 343.242188"/></g><g><path fill="#92ac7e" d="M 278.273438 250.226562 C 278.160156 251.355469 279.234375 251.914062 279.523438 252.847656 C 277.726562 253.234375 276.097656 252.34375 274.375 252.175781 C 272.851562 252.023438 272.875 250.765625 272.8125 249.773438 C 272.742188 248.617188 272.996094 247.4375 273.109375 246.265625 C 273.734375 246.726562 274.359375 247.1875 274.988281 247.648438 C 275.429688 248.597656 276.175781 249.210938 277.136719 249.582031 C 277.511719 249.800781 277.9375 249.9375 278.273438 250.226562"/></g><g><path fill="#b8cbae" d="M 341.992188 291.242188 C 342.144531 291.878906 343.863281 292.027344 342.503906 293.144531 C 340.09375 295.113281 338.140625 297.734375 334.847656 298.414062 C 334.410156 297.976562 334.449219 297.542969 334.851562 297.109375 C 337.054688 294.9375 339.214844 292.714844 341.992188 291.242188"/></g><g><path fill="#a0ba92" d="M 182.609375 226.726562 C 179.570312 228.382812 177.042969 230.644531 174.828125 233.28125 C 174.300781 231.878906 173.65625 230.78125 175.886719 229.847656 C 177.664062 229.105469 178.101562 226.40625 180.128906 225.507812 C 181.566406 224.664062 181.894531 226.09375 182.609375 226.726562"/></g><g><path fill="#dab192" d="M 392.003906 465.566406 C 391.851562 466.402344 389.144531 465.515625 390.710938 467.496094 C 389.304688 465.511719 387.035156 463.972656 387.390625 461.074219 C 388.476562 460.1875 389.5625 459.300781 390.644531 458.410156 C 391.902344 457.917969 391.910156 459.363281 392.632812 459.699219 C 392.195312 460.519531 391.3125 460.214844 390.671875 460.5 C 389.851562 460.859375 388.511719 460.90625 388.589844 462.097656 C 388.65625 463.132812 389.679688 463.574219 390.722656 463.644531 C 391.671875 463.9375 391.652344 464.875 392.003906 465.566406"/></g><g><path fill="#b4c8a9" d="M 211.3125 1.710938 C 211.105469 1.695312 210.894531 1.675781 210.6875 1.652344 C 210.441406 1.234375 210.640625 0.878906 210.839844 0.523438 C 213.109375 -0.671875 216.167969 0.449219 218.21875 3.257812 C 218.777344 4.023438 219.261719 4.839844 219.777344 5.632812 C 217.859375 6.984375 217.210938 4.613281 215.855469 4.300781 C 216.359375 4.132812 216.859375 3.964844 217.359375 3.800781 C 216.925781 2.808594 215.988281 3.132812 215.234375 2.984375 C 214.320312 1.339844 212.398438 2.8125 211.3125 1.710938"/></g><g><path fill="#b8ccae" d="M 354.328125 281.480469 C 352.734375 283.558594 352.3125 286.675781 349.132812 287.34375 C 348.605469 286.722656 347.847656 286.441406 347.183594 286.019531 C 348.667969 285.480469 348.980469 282.367188 351.484375 284.050781 C 351.644531 282.324219 352.445312 281.304688 354.328125 281.480469"/></g><g><path fill="#9ab186" d="M 289.238281 232.019531 C 289.042969 232.023438 288.847656 232.019531 288.648438 232.003906 C 286.347656 231.519531 286.347656 231.519531 287.371094 230.058594 C 290.546875 229.894531 293.304688 227.671875 296.613281 228.183594 C 294.429688 229.988281 291.613281 230.582031 289.238281 232.019531"/></g><g><path fill="#99b58a" d="M 440.832031 264.515625 C 439.855469 263.886719 438.941406 263.105469 437.886719 262.664062 C 435.730469 261.757812 434.214844 259.339844 431.371094 259.960938 C 430.625 260.121094 430.023438 259.414062 429.707031 258.664062 C 433.332031 258.492188 436.320312 260.203125 439.351562 261.859375 C 440.488281 262.480469 440.757812 263.398438 440.832031 264.515625"/></g><g><path fill="#f9d090" d="M 72.234375 248.9375 C 72.234375 248.71875 72.230469 248.5 72.226562 248.277344 C 72.992188 247.878906 73.847656 247.765625 73.945312 246.488281 C 74.050781 245.042969 74.863281 245.546875 75.496094 246.300781 C 77.851562 246.140625 78.75 247.691406 79.351562 249.59375 C 77.484375 250.421875 77.511719 249.109375 77.746094 247 C 75.988281 249.65625 74.210938 249.800781 72.234375 248.9375"/></g><g><path fill="#cad8c2" d="M 349.152344 106.402344 C 348.9375 106.390625 348.71875 106.378906 348.503906 106.367188 C 348.273438 104.820312 347.503906 104.042969 345.863281 104.496094 C 344.378906 104.050781 344.316406 102.359375 343.273438 101.527344 C 343.238281 101.382812 343.203125 101.238281 343.171875 101.097656 C 346.8125 100.675781 349.664062 103.203125 349.152344 106.402344"/></g><g><path fill="#cd956b" d="M 252.929688 179.964844 C 253.214844 180.222656 253.691406 180.445312 253.746094 180.746094 C 253.847656 181.300781 253.277344 181.203125 252.917969 181.265625 C 252.039062 182.847656 252.179688 185.019531 250.210938 185.976562 C 250.011719 185.496094 249.8125 185.019531 249.613281 184.539062 C 248.984375 182.855469 249.082031 181.425781 250.96875 180.613281 C 251.183594 180.398438 251.402344 180.179688 251.621094 179.960938 C 252.058594 179.5625 252.492188 179.59375 252.929688 179.964844"/></g><g><path fill="#a2bb95" d="M 347.183594 286.019531 C 348.300781 285.773438 348.8125 286.414062 349.132812 287.34375 C 348.726562 289.136719 346.648438 289.195312 345.820312 290.554688 C 342.445312 287.890625 346.519531 287.46875 347.183594 286.019531"/></g><g><path fill="#bad6ea" d="M 555.148438 146.78125 C 554.324219 146.195312 555.046875 149.46875 553.628906 147.390625 C 552.917969 148.304688 551.585938 149.285156 552.429688 150.445312 C 554.171875 152.828125 551.164062 151.15625 551.238281 152 C 550.46875 152.410156 549.902344 152.4375 549.929688 151.316406 C 550.78125 148.691406 551.796875 146.234375 555.132812 146.089844 C 555.335938 146.238281 555.40625 146.390625 555.34375 146.546875 C 555.28125 146.703125 555.214844 146.78125 555.148438 146.78125"/></g><g><path fill="#f9d399" d="M 481.015625 347.144531 C 481.246094 347.371094 481.476562 347.597656 481.703125 347.820312 C 482.824219 350.65625 481.03125 352.195312 479.109375 353.675781 C 479.71875 351.492188 478.734375 348.839844 481.015625 347.144531"/></g><g><path fill="#d8e2d2" d="M 334.851562 297.109375 C 334.847656 297.546875 334.847656 297.976562 334.847656 298.414062 C 334.054688 299.453125 335.019531 300.523438 334.796875 301.570312 C 333.28125 302.023438 332.160156 303.78125 330.261719 302.925781 C 331.648438 300.875 332.433594 298.347656 334.851562 297.109375"/></g><g><path fill="#cd956b" d="M 250.328125 186.46875 C 251.464844 187.332031 251.9375 185.605469 252.90625 185.808594 C 253.789062 186.511719 254.292969 187.3125 253.566406 188.421875 C 254.078125 189.476562 254.484375 190.507812 252.910156 191.035156 C 251.03125 190.09375 250.902344 188.152344 250.328125 186.46875"/></g><g><path fill="#a1bb94" d="M 210.839844 0.523438 C 210.789062 0.902344 210.738281 1.277344 210.6875 1.652344 C 208.449219 1.335938 206.453125 3.386719 204.140625 2.328125 C 205.960938 0.195312 208.132812 -0.632812 210.839844 0.523438"/></g><g><path fill="#d6a785" d="M 403.015625 468.109375 C 401.371094 467.53125 401.183594 466.382812 401.765625 464.929688 C 402.15625 464.433594 402.683594 464.390625 403.25 464.488281 C 403.507812 464.566406 403.746094 464.683594 403.972656 464.820312 C 405.058594 465.296875 406.011719 464.070312 407.101562 464.5625 C 408.214844 465.21875 407.496094 465.761719 406.996094 466.320312 C 405.667969 466.917969 404.339844 467.515625 403.015625 468.109375"/></g><g><path fill="#97b388" d="M 442.0625 276.917969 C 442.066406 273.429688 442.070312 269.945312 442.074219 266.460938 C 443.9375 269.945312 444.464844 273.433594 442.0625 276.917969"/></g><g><path fill="#f9d397" d="M 62.554688 252.867188 C 63.167969 253.070312 63.78125 253.273438 64.398438 253.476562 C 65.34375 252.839844 66.113281 253.289062 66.371094 254.140625 C 66.707031 255.253906 66.003906 256.109375 65.089844 256.742188 C 64.855469 256.976562 64.617188 257.210938 64.378906 257.445312 C 63.175781 256.15625 61.335938 255.125 62.554688 252.867188"/></g><g><path fill="#d4a37f" d="M 387.414062 427.867188 C 386.996094 428.078125 386.578125 428.285156 386.160156 428.496094 C 385.691406 428.195312 385.136719 427.9375 385.535156 427.210938 C 385.289062 425.453125 382.890625 424.28125 384.140625 422.113281 C 386.234375 423.460938 386.445312 425.878906 387.414062 427.867188"/></g><g><path fill="#d09c75" d="M 363.867188 421.398438 C 365.066406 421.859375 365.066406 423.230469 365.945312 424.058594 C 367.847656 425.84375 367.664062 424.160156 367.953125 423.066406 C 369.558594 425.242188 369.320312 425.847656 366.65625 426.550781 C 365.746094 424.820312 363.703125 423.710938 363.867188 421.398438"/></g><g><path fill="#cf9870" d="M 382.097656 418.101562 C 380.082031 417.9375 379.773438 415.40625 377.613281 415.019531 C 376.613281 414.84375 378.695312 413.332031 378.394531 412.160156 C 379.628906 414.140625 380.863281 416.121094 382.097656 418.101562"/></g><g><path fill="#c99d75" d="M 359.429688 377.136719 C 358.359375 377.4375 358.429688 378.625 357.765625 379.339844 C 356.597656 378.332031 356.023438 377.246094 356.90625 375.796875 C 356.9375 375.183594 357.121094 374.667969 357.75 374.421875 C 358.894531 374.964844 358.984375 376.160156 359.429688 377.136719"/></g><g><path fill="#d2a07b" d="M 386.171875 451.28125 C 385.75 452.882812 383.566406 453.304688 383.550781 455.179688 C 382.902344 454.09375 382.257812 453.003906 381.613281 451.917969 C 382.960938 452.144531 384.023438 451.675781 384.847656 450.609375 C 385.207031 450.996094 385.890625 450.734375 386.171875 451.28125"/></g><g><path fill="#d4dfcd" d="M 230.105469 379.675781 C 230.328125 380.109375 230.554688 380.542969 230.777344 380.972656 L 230.800781 380.964844 C 229.816406 381.855469 229.445312 382.9375 229.765625 384.242188 C 229.070312 384.699219 228.367188 385.160156 227.671875 385.617188 C 227.835938 383.371094 228.027344 381.136719 230.105469 379.675781"/></g><g><path fill="#cd976e" d="M 247.015625 175.441406 C 249.402344 175.1875 249.191406 177.515625 249.953125 178.703125 C 250.292969 179.230469 248.871094 179.199219 248.1875 179.242188 C 247.425781 178.09375 246.785156 176.902344 247.015625 175.441406"/></g><g><path fill="#d1decb" d="M 358.789062 278.15625 C 358.988281 280.347656 355.523438 280 355.910156 282.320312 C 355.367188 282.015625 354.824219 281.714844 354.285156 281.410156 C 355.335938 279.699219 356.605469 278.300781 358.789062 278.15625"/></g><g><path fill="#dce5d7" d="M 236.71875 169.449219 C 238.8125 169.273438 240.949219 168.914062 242.570312 170.796875 C 240.253906 171.945312 238.429688 170.945312 236.71875 169.449219"/></g><g><path fill="#f8cb84" d="M 67.679688 260.636719 C 66.605469 261.960938 67.972656 263.3125 67.632812 264.644531 C 66.320312 263.023438 65.285156 261.234375 64.433594 259.335938 C 65.609375 259.53125 66.847656 259.574219 67.679688 260.640625 L 67.679688 260.636719"/></g><g><path fill="#cf9972" d="M 377.714844 444.757812 C 377.726562 445.167969 377.738281 445.578125 377.75 445.984375 C 376.175781 445.265625 376.273438 443.578125 375.636719 442.316406 C 376.546875 441.800781 377.671875 440.933594 378.480469 441.871094 C 379.441406 442.988281 377.492188 443.148438 377.347656 443.996094 C 377.304688 444.222656 377.582031 444.503906 377.714844 444.757812"/></g><g><path fill="#d4dfcd" d="M 227.65625 385.648438 C 226.570312 388.210938 227.855469 390.792969 227.574219 393.359375 C 226.988281 391.71875 226.140625 390.109375 225.929688 388.417969 C 225.808594 387.457031 225.714844 385.699219 227.65625 385.648438"/></g><g><path fill="#d7aa88" d="M 265.863281 179.960938 C 266.003906 179.714844 266.144531 179.46875 266.285156 179.222656 C 263.691406 179.101562 264.785156 177.753906 265.40625 176.566406 C 267.285156 177.875 267.644531 179.84375 267.726562 181.933594 C 267.105469 181.277344 266.484375 180.617188 265.863281 179.960938"/></g><g><path fill="#e7f0f7" d="M 17.640625 382.292969 C 17.242188 380.453125 14.589844 379.492188 15.628906 377.097656 C 18.734375 377.882812 17.167969 380.480469 17.640625 382.292969"/></g><g><path fill="#98b489" d="M 330.261719 302.925781 C 331.765625 302.449219 333.117188 301.460938 334.796875 301.574219 C 333.445312 303.425781 331.175781 304.039062 329.53125 305.492188 C 329.773438 304.636719 330.015625 303.78125 330.261719 302.925781"/></g><g><path fill="#cad8c2" d="M 342.617188 101.878906 C 341.484375 101.78125 340.386719 101.847656 339.410156 102.519531 C 339.0625 101.539062 337.832031 101.875 337.328125 101.125 C 339.273438 100.308594 341.21875 99.988281 343.171875 101.097656 C 343.171875 101.097656 343.316406 101.335938 343.316406 101.335938 C 343.304688 101.804688 343.210938 102.164062 342.617188 101.878906"/></g><g><path fill="#98b489" d="M 337.328125 101.125 C 338.257812 101.238281 339.285156 101.203125 339.410156 102.519531 C 337.4375 101.6875 335.464844 103.128906 333.488281 102.523438 C 334.378906 100.980469 335.972656 101.378906 337.328125 101.125"/></g><g><path fill="#9bb48a" d="M 325.699219 312.019531 C 325.726562 311.585938 325.757812 311.148438 325.789062 310.714844 C 326.617188 310.269531 327.441406 309.828125 328.269531 309.382812 C 328.660156 310.964844 327.683594 312.109375 327.011719 313.351562 C 325.953125 313.519531 325.476562 313.113281 325.699219 312.019531"/></g><g><path fill="#98b489" d="M 333.503906 102.515625 C 332.039062 104.65625 329.53125 105.171875 327.464844 106.375 C 329.019531 104.371094 330.878906 102.839844 333.503906 102.515625"/></g><g><path fill="#fcedd5" d="M 75.496094 246.300781 C 74.921875 246.1875 74.210938 245.769531 74.167969 246.863281 C 74.117188 248.175781 73.277344 248.359375 72.226562 248.277344 C 75.042969 245.882812 72.671875 245.238281 70.914062 244.390625 C 72.660156 244.496094 74.734375 243.828125 75.496094 246.300781"/></g><g><path fill="#b4c8a9" d="M 182.609375 226.726562 C 181.78125 226.320312 180.953125 225.914062 180.128906 225.507812 C 181.410156 225.058594 182.691406 224.605469 183.972656 224.15625 C 185.421875 226.023438 183.324219 226.007812 182.609375 226.726562"/></g><g><path fill="#bed8eb" d="M 0.691406 378.375 C 1.726562 377.816406 2.835938 377.652344 3.996094 377.769531 C 4.230469 378.875 4.136719 379.757812 2.679688 379.71875 C 2.140625 379.714844 1.660156 379.835938 1.390625 380.367188 C 1.1875 380.652344 0.984375 380.640625 0.785156 380.367188 C 0.527344 379.714844 -0.246094 379.085938 0.691406 378.375"/></g><g><path fill="#fcebd0" d="M 493.40625 344.5625 C 492.894531 343.550781 489.992188 347.921875 490.996094 343.492188 C 490.488281 343.398438 489.980469 343.304688 489.476562 343.214844 C 491.398438 341.875 492.597656 342.648438 493.40625 344.5625"/></g><g clip-path="url(#c)"><path fill="#c2dbec" d="M 595.527344 152.570312 C 594.714844 152.230469 594.273438 153.972656 593.441406 153.027344 C 592.605469 152.074219 593.070312 151.261719 594.054688 150.699219 C 594.578125 150.402344 594.738281 149.925781 594.800781 149.378906 C 595.882812 150.253906 595.257812 151.511719 595.527344 152.570312"/></g><g><path fill="#d19e78" d="M 250.96875 180.613281 C 249.777344 181.667969 249.886719 183.167969 249.613281 184.539062 C 248.570312 183.433594 248.339844 182.066406 248.335938 180.621094 C 249.210938 180.621094 250.089844 180.617188 250.96875 180.613281"/></g><g><path fill="#d19d77" d="M 377.855469 410.855469 C 375.75 409.546875 374.636719 407.636719 374.4375 405.175781 C 376.414062 406.566406 376.8125 408.90625 377.855469 410.855469"/></g><g><path fill="#d5a582" d="M 377.746094 446.035156 C 381.773438 444.570312 379.996094 447.148438 379.628906 448.742188 C 377.933594 448.585938 378.433594 446.894531 377.746094 446.035156"/></g><g><path fill="#fad7a2" d="M 89.148438 291.898438 C 88.128906 290.148438 89.117188 289.691406 90.605469 289.457031 C 91.296875 290.464844 89.714844 291.652344 91.023438 292.453125 C 89.960938 293.742188 89.824219 291.921875 89.148438 291.898438"/></g><g><path fill="#cd976e" d="M 247.082031 172.097656 C 247.066406 173.21875 247.050781 174.335938 247.03125 175.457031 C 245.230469 174.417969 245.6875 172.433594 245.113281 170.878906 C 246.050781 170.828125 246.683594 171.277344 247.082031 172.097656"/></g><g><path fill="#dcb599" d="M 406.996094 466.320312 C 406.96875 465.851562 407.6875 465.355469 406.941406 464.910156 C 406.230469 464.492188 405.710938 463.964844 405.867188 463.046875 C 405.992188 462.585938 406.253906 462.25 406.75 462.152344 C 407.554688 462.292969 407.667969 463.222656 408.328125 463.535156 C 410.691406 465.808594 407.859375 465.59375 406.996094 466.320312"/></g><g><path fill="#cfdcc7" d="M 232.75 167.644531 C 233.851562 167.394531 234.542969 165.367188 236.046875 166.886719 C 235.847656 167.539062 235.648438 168.195312 235.449219 168.847656 C 234.339844 168.921875 233.511719 168.355469 232.75 167.644531"/></g><g><path fill="#bdd8eb" d="M 22.859375 441.542969 C 22.839844 441.230469 22.765625 440.914062 22.8125 440.613281 C 22.925781 439.882812 21.691406 439.027344 22.859375 438.449219 C 23.886719 437.945312 24.121094 439.269531 24.820312 439.59375 C 24.746094 440.832031 23.683594 441.0625 22.859375 441.542969"/></g><g><path fill="#98b489" d="M 329.53125 305.46875 C 330.03125 307.082031 330.304688 308.621094 328.253906 309.402344 C 327.734375 307.785156 328.167969 306.476562 329.53125 305.46875"/></g><g><path fill="#dfbba1" d="M 306.183594 269.769531 C 303.28125 269.589844 304.535156 267.867188 304.960938 266.453125 C 306.410156 267.171875 306.195312 268.507812 306.183594 269.769531"/></g><g><path fill="#97b388" d="M 273.136719 246.265625 C 271.808594 245.441406 269.316406 246.535156 269.128906 243.828125 C 270.867188 243.976562 272.03125 245.074219 273.136719 246.265625"/></g><g><path fill="#adc3a2" d="M 258.839844 235.199219 C 256.648438 235.28125 254.878906 234.457031 253.546875 232.710938 C 255.703125 232.710938 257.027344 234.476562 258.839844 235.199219"/></g><g><path fill="#fcebd0" d="M 495.378906 347.144531 C 494.980469 346.085938 490.917969 347.828125 493.410156 344.5625 C 494.472656 345.113281 495.316406 345.828125 495.378906 347.144531"/></g><g><path fill="#dcb699" d="M 384.914062 457.742188 C 387.34375 457.328125 387.929688 458.238281 386.808594 460.378906 C 385.503906 459.980469 385.511719 458.644531 384.914062 457.742188"/></g><g><path fill="#cde1ef" d="M 549.929688 151.316406 C 550.214844 151.839844 550.695312 151.976562 551.238281 152 C 551.242188 152.210938 551.242188 152.421875 551.238281 152.632812 C 550.355469 153.011719 549.953125 153.714844 549.898438 154.648438 C 549.335938 153.53125 547.386719 152.402344 549.929688 151.316406"/></g><g><path fill="#d09b74" d="M 406.894531 462.289062 C 406.691406 462.488281 406.488281 462.6875 406.289062 462.886719 C 405.785156 463.25 405.578125 462.886719 405.378906 462.515625 C 405.335938 462 405.519531 461.425781 405.011719 461.023438 C 404.289062 459.476562 405.417969 459.75 406.265625 459.746094 C 406.5 459.957031 406.734375 460.164062 406.96875 460.371094 C 407.359375 461.027344 407.507812 461.671875 406.894531 462.289062"/></g><g><path fill="#d19c76" d="M 269.824219 230.066406 C 269.320312 231.53125 270.988281 232.117188 271.136719 233.320312 C 270.898438 233.675781 270.652344 233.679688 270.402344 233.335938 C 268.898438 232.203125 268.710938 230.488281 268.394531 228.828125 C 268.867188 229.234375 269.339844 229.644531 269.808594 230.050781 L 269.824219 230.066406"/></g><g><path fill="#a3bc96" d="M 180.242188 248.207031 C 182.914062 247.382812 182.535156 249.394531 182.722656 250.878906 C 182.027344 249.867188 180.328125 249.789062 180.242188 248.207031"/></g><g><path fill="#b8cbad" d="M 236.617188 375.058594 C 235.769531 375.089844 234.925781 375.121094 234.078125 375.152344 C 234.710938 373.75 235.722656 372.796875 237.253906 372.449219 C 237.039062 373.320312 236.828125 374.1875 236.617188 375.058594"/></g><g><path fill="#a9cce4" d="M 0.785156 380.367188 C 0.984375 380.367188 1.1875 380.367188 1.390625 380.367188 C 1.15625 382.125 0.925781 383.882812 0.695312 385.640625 C -0.734375 383.859375 0.425781 382.121094 0.785156 380.367188"/></g><g><path fill="#eeede5" d="M 276.996094 250.152344 C 275.832031 249.71875 274.359375 249.527344 274.988281 247.648438 C 275.226562 247.40625 275.46875 247.164062 275.710938 246.925781 C 276.09375 247.398438 276.476562 247.878906 276.859375 248.351562 C 277.527344 248.90625 277.378906 249.519531 276.996094 250.152344"/></g><g><path fill="#b3c8a9" d="M 196.238281 17.160156 C 196.289062 17.644531 196.335938 18.128906 196.386719 18.613281 C 196.367188 18.8125 196.355469 19.011719 196.351562 19.210938 C 194.65625 18.144531 195.835938 21.238281 194.40625 20.554688 C 194.300781 19.035156 194.476562 17.667969 196.238281 17.160156"/></g><g><path fill="#c2dbec" d="M 591.5625 146.03125 C 591.457031 146.605469 591.457031 147.378906 590.574219 147.128906 C 589.792969 146.910156 589.605469 146.191406 589.625 145.433594 C 590.414062 145.171875 591.351562 144.417969 591.5625 146.03125"/></g><g><path fill="#bfd9eb" d="M 590.316406 161.191406 C 590.296875 160.222656 590.507812 159.238281 591.421875 158.847656 C 592.097656 158.554688 592.082031 159.382812 592.207031 159.84375 C 592.132812 161.074219 591.191406 161.085938 590.316406 161.191406"/></g><g><path fill="#d5a582" d="M 269.0625 185.230469 C 266.65625 185.21875 267.261719 183.886719 267.882812 182.546875 C 269.15625 183.054688 268.691406 184.324219 269.0625 185.230469"/></g><g><path fill="#d09a72" d="M 270.402344 233.335938 C 270.648438 233.328125 270.890625 233.324219 271.136719 233.320312 C 271.964844 234.28125 273.285156 235.15625 271.734375 236.558594 C 271.691406 235.316406 269.707031 234.882812 270.402344 233.335938"/></g><g><path fill="#d7ab8a" d="M 272.375 192.992188 C 270.65625 192.785156 270.273438 191.902344 271.078125 190.421875 C 272.3125 190.871094 272.328125 191.941406 272.375 192.992188"/></g><g><path fill="#d19c76" d="M 267.28125 226.175781 C 267.859375 226.984375 269.332031 227.425781 268.386719 228.863281 C 267.078125 228.355469 266.34375 227.609375 267.28125 226.175781"/></g><g><path fill="#accee5" d="M 555.148438 146.78125 C 555.144531 146.550781 555.136719 146.320312 555.132812 146.089844 C 556.070312 145.113281 557.296875 145.617188 558.394531 145.464844 C 558.109375 147.867188 555.832031 145.359375 555.148438 146.78125"/></g><g><path fill="#eedccf" d="M 406.894531 462.289062 C 406.921875 461.648438 406.945312 461.011719 406.96875 460.371094 C 408.023438 461.167969 408.21875 462.335938 408.328125 463.535156 C 407.421875 463.609375 406.960938 463.179688 406.894531 462.289062"/></g><g><path fill="#d3a27d" d="M 356.867188 409 C 358.707031 409.1875 358.097656 410.589844 358.171875 411.648438 C 357.144531 411.058594 356.710938 410.175781 356.867188 409"/></g><g><path fill="#b6caab" d="M 202.273438 131.148438 C 203.675781 131.800781 203.519531 133.105469 203.597656 134.3125 C 202.457031 133.550781 202.167969 132.429688 202.273438 131.148438"/></g><g><path fill="#c3c7ab" d="M 291.222656 278.925781 C 291.222656 279.339844 291.21875 279.753906 291.214844 280.167969 C 290.804688 280.171875 290.398438 280.171875 289.988281 280.175781 C 289.765625 279.515625 289.542969 278.855469 289.320312 278.195312 C 290.316406 277.488281 290.796875 278.140625 291.222656 278.925781"/></g><g><path fill="#e4c6b0" d="M 398.558594 446.710938 C 398.324219 446.710938 398.09375 446.710938 397.859375 446.710938 C 397.128906 446.214844 397.105469 445.5 397.246094 444.734375 C 397.765625 445.339844 399.03125 445.445312 398.558594 446.710938"/></g><g><path fill="#d3e4f1" d="M 9.820312 373.191406 C 9.394531 373.191406 8.96875 373.195312 8.542969 373.195312 C 8.628906 372.476562 8.613281 371.480469 9.632812 371.679688 C 10.570312 371.863281 10.023438 372.640625 9.820312 373.191406"/></g><g><path fill="#ddb79b" d="M 258.128906 204.679688 C 259.476562 204.96875 259.871094 205.5625 258.753906 206.640625 C 258.027344 206.152344 258.148438 205.394531 258.128906 204.679688"/></g><g><path fill="#c99d75" d="M 360.875 379.582031 C 359.371094 379.558594 359.664062 378.433594 359.613281 377.519531 C 360.613281 377.851562 360.839844 378.65625 360.875 379.582031"/></g><g><path fill="#99b58a" d="M 428.40625 258.730469 C 427.761719 259.671875 427.121094 260.742188 426.449219 258.746094 C 427.101562 258.742188 427.753906 258.734375 428.40625 258.730469"/></g><g><path fill="#93b083" d="M 285.523438 284.761719 C 284.652344 283.335938 286.011719 283.671875 286.597656 283.398438 C 286.703125 284.21875 286.457031 284.761719 285.523438 284.761719"/></g><g><path fill="#ba9568" d="M 357.449219 373.164062 C 357.023438 372.546875 355.125 372.832031 356.269531 371.242188 C 356.636719 371.898438 357.601562 372.1875 357.449219 373.164062"/></g><g><path fill="#dce5d7" d="M 242.574219 170.789062 C 242.996094 170.824219 243.414062 170.855469 243.835938 170.886719 C 243.765625 171.488281 243.773438 172.34375 243.011719 172.269531 C 242.15625 172.1875 242.625 171.328125 242.574219 170.789062"/></g><g><path fill="#93b184" d="M 200.546875 30.449219 C 201.214844 30.464844 201.476562 30.878906 201.507812 31.472656 C 201.539062 32.023438 201.445312 32.703125 200.761719 32.535156 C 200.390625 32.445312 200.074219 31.769531 199.90625 31.292969 C 199.746094 30.855469 200.007812 30.484375 200.546875 30.449219"/></g><g><path fill="#8ead7e" d="M 199.804688 21.300781 C 200.230469 22 200.65625 22.699219 201.152344 23.511719 C 200 23.464844 199.40625 22.894531 199.804688 21.300781"/></g><g><path fill="#d4a987" d="M 259.390625 170.164062 C 260.078125 170.660156 260.03125 171.242188 259.421875 171.695312 C 258.402344 172.453125 257.941406 171.625 257.484375 170.890625 C 258.117188 170.648438 258.753906 170.40625 259.390625 170.164062"/></g><g><path fill="#98b489" d="M 199.625 18.613281 C 200.292969 18.714844 201.339844 18.371094 201.296875 19.46875 C 201.269531 20.292969 200.398438 20.523438 199.617188 20.566406 C 199.070312 19.914062 199.152344 19.261719 199.625 18.613281"/></g><g><path fill="#a1bb94" d="M 198.976562 24.480469 C 199.75 24.53125 200.472656 24.695312 200.652344 25.601562 C 200.726562 25.972656 200.472656 26.222656 200.097656 26.144531 C 199.191406 25.964844 199.015625 25.257812 198.984375 24.472656 L 198.976562 24.480469"/></g><g><path fill="#8ead7e" d="M 199.625 18.613281 C 199.621094 19.265625 199.617188 19.914062 199.617188 20.566406 C 198.964844 20.511719 198.109375 20.421875 198.160156 19.683594 C 198.1875 19.296875 199.105469 18.96875 199.625 18.613281"/></g><g><path fill="#b2986a" d="M 287.371094 230.058594 C 286.394531 231.632812 288.484375 231.183594 288.648438 232.003906 C 286.660156 232.496094 284.542969 233.988281 283.257812 230.792969 C 282.753906 229.535156 281.023438 231.277344 280.210938 230.066406 C 279.359375 229.609375 278.929688 229.019531 279.582031 228.082031 C 282.035156 229.308594 284.535156 230.351562 287.371094 230.058594"/></g><g><path fill="#c09063" d="M 279.582031 228.082031 C 279.792969 228.742188 280.003906 229.40625 280.210938 230.066406 C 279.519531 230.429688 279.226562 231.726562 278.15625 231.15625 C 277.320312 230.707031 277.238281 229.859375 277.433594 228.917969 C 277.621094 228.003906 277.585938 227.042969 277.648438 226.101562 C 278.828125 226.238281 279.515625 226.859375 279.582031 228.082031"/></g><g><path fill="#a3bc95" d="M 342.617188 101.878906 C 342.851562 101.699219 343.082031 101.515625 343.316406 101.335938 C 344.914062 101.785156 344.90625 103.53125 345.863281 104.496094 C 345.273438 105.167969 344.222656 105.511719 344.226562 104.480469 C 344.230469 103.0625 342.828125 102.910156 342.617188 101.878906"/></g><g><path fill="#97b388" d="M 350.410156 124.65625 C 350.628906 124.875 350.84375 125.09375 351.058594 125.3125 C 350.980469 125.953125 350.835938 126.578125 350.003906 126.488281 C 349.769531 126.464844 349.40625 126.183594 349.378906 125.984375 C 349.28125 125.246094 349.867188 124.945312 350.410156 124.65625"/></g><g><path fill="#98b489" d="M 333.859375 105.480469 C 333.691406 105.328125 333.492188 105.144531 333.296875 104.960938 C 333.585938 104.730469 333.855469 104.472656 334.171875 104.289062 C 334.253906 104.242188 334.589844 104.421875 334.605469 104.523438 C 334.671875 105 334.363281 105.265625 333.859375 105.480469"/></g><g><path fill="#9aa272" d="M 322.4375 332.894531 C 321.242188 332.023438 320.289062 331.109375 321.445312 329.511719 C 322.242188 328.40625 321.300781 327.515625 320.949219 326.5625 C 320.398438 325.066406 320.40625 325.15625 322.105469 325.089844 C 322.660156 325.066406 322.390625 324.21875 322.476562 323.746094 C 325.171875 324.71875 324.964844 326.769531 324.421875 328.953125 C 324.417969 329.167969 324.414062 329.386719 324.414062 329.601562 C 323.4375 330.507812 324.070312 332.382812 322.4375 332.894531"/></g><g><path fill="#9aa272" d="M 325.699219 312.019531 C 326.136719 312.464844 326.574219 312.90625 327.011719 313.351562 C 327.011719 313.78125 327.011719 314.214844 327.015625 314.644531 C 327.394531 315.074219 327.417969 315.507812 327.015625 315.9375 C 324.59375 317.136719 326.488281 318.960938 326.363281 320.492188 C 325.085938 322.003906 324.207031 321.871094 323.785156 319.863281 C 323.863281 317.113281 324.035156 314.382812 325.699219 312.019531"/></g><g><path fill="#90a676" d="M 322.4375 332.894531 C 322.914062 332.054688 323.160156 331.164062 323.132812 330.179688 C 323.105469 329.078125 323.816406 329.425781 324.414062 329.601562 C 324.414062 333.027344 326.679688 335.410156 328.308594 338.085938 C 325.023438 337.859375 323.855469 335.234375 322.4375 332.894531"/></g><g><path fill="#90a676" d="M 323.785156 319.863281 C 324.507812 320.640625 325.238281 321.378906 326.363281 320.492188 C 325.410156 322.296875 324.027344 323.933594 325.515625 326.230469 C 326.09375 327.117188 325.25 328.21875 324.421875 328.953125 C 324.113281 327.089844 324.070312 325.128906 322.476562 323.746094 L 322.476562 323.734375 C 322.660156 322.359375 323.550781 321.222656 323.777344 319.863281 L 323.785156 319.863281"/></g><g><path fill="#96ae81" d="M 327.015625 315.9375 C 327.015625 315.507812 327.015625 315.074219 327.015625 314.644531 C 328.5625 314.855469 328.835938 316.066406 329.3125 317.238281 C 327.65625 317.960938 327.875 316.132812 327.015625 315.9375"/></g><g><path fill="#92a675" d="M 354.273438 377.761719 C 354.28125 377.972656 354.285156 378.179688 354.292969 378.390625 C 353.21875 379.359375 352.035156 379.324219 350.792969 378.773438 C 350.664062 378.648438 350.535156 378.523438 350.410156 378.394531 C 346.808594 377.183594 343.6875 373.917969 339.359375 375.796875 C 338.921875 375.582031 338.496094 375.355469 338.277344 374.882812 C 337.691406 373.089844 338.65625 371.789062 339.652344 370.492188 C 340.859375 370.054688 341.339844 367.394531 343.320312 369.273438 C 344.09375 369.746094 344.921875 370.003906 345.839844 369.960938 C 345.566406 371.273438 344.910156 372.488281 347.320312 372.714844 C 348.617188 372.839844 349.445312 374.84375 351.0625 375.160156 C 351.617188 375.199219 352.523438 375.527344 352.382812 375.816406 C 351.167969 378.355469 354.117188 376.691406 354.273438 377.761719"/></g><g><path fill="#92a675" d="M 354.3125 379.699219 C 354.398438 381.570312 356.160156 380.632812 357.144531 381.390625 C 354.898438 382.746094 354.308594 384.570312 355.609375 386.855469 C 354.296875 388.71875 352.855469 390.410156 350.410156 390.757812 C 349.144531 389.308594 348.960938 387.46875 348.472656 385.546875 C 349.613281 385.085938 349.664062 386.71875 350.8125 386.496094 C 349.703125 383.84375 349.578125 381.125 350.410156 378.394531 L 350.414062 378.398438 C 351.539062 379.359375 353.101562 379.003906 354.3125 379.699219"/></g><g><path fill="#94b185" d="M 235.371094 398.566406 C 234.027344 398.507812 232.753906 398.554688 233.035156 396.472656 C 233.265625 394.792969 231.957031 393.488281 231.089844 392.261719 C 229.667969 390.246094 230.363281 389.152344 232.136719 388.140625 C 232.4375 387.675781 232.699219 387.128906 233.417969 387.507812 C 234.148438 388.5625 234.011719 389.894531 235.660156 390.753906 C 237.136719 391.519531 237.714844 393.925781 235.351562 395.320312 C 234.46875 396.195312 235.464844 397.054688 235.375 397.925781 C 235.375 398.140625 235.371094 398.351562 235.371094 398.566406"/></g><g><path fill="#8fad7e" d="M 338.714844 375.144531 C 338.929688 375.363281 339.144531 375.578125 339.359375 375.796875 C 338.714844 376.449219 338.070312 377.101562 337.425781 377.753906 C 336.550781 376.773438 335.5 376.117188 334.171875 375.972656 C 333.914062 376.011719 333.695312 375.949219 333.507812 375.769531 C 333.414062 374.800781 333.828125 373.699219 332.472656 373.148438 C 330.910156 372.515625 331.910156 371.480469 332.21875 370.582031 C 333.871094 370.242188 333.527344 371.882812 334.167969 372.546875 L 334.183594 372.550781 C 335.902344 373.050781 337.859375 373.128906 338.714844 375.144531"/></g><g><path fill="#99b58b" d="M 334.164062 375.8125 C 335.710938 375.679688 337.335938 375.425781 337.425781 377.753906 C 336.5625 377.769531 335.710938 378.371094 334.84375 377.785156 C 334.730469 377.714844 334.621094 377.644531 334.507812 377.578125 C 334.140625 377.039062 333.675781 376.515625 334.164062 375.8125"/></g><g><path fill="#97b387" d="M 327.011719 362.785156 C 327.082031 361.484375 327.835938 361.882812 328.484375 362.230469 C 330.246094 363.175781 327.878906 363.863281 328.3125 364.734375 C 326.738281 364.847656 326.125 364.316406 327.011719 362.785156"/></g><g><path fill="#99b58b" d="M 334.84375 377.785156 C 334.15625 378.21875 335.019531 379.789062 333.597656 379.605469 C 332.585938 379.472656 332.238281 378.652344 332.277344 377.679688 C 333.128906 377.160156 333.96875 377.023438 334.796875 377.730469 L 334.84375 377.785156"/></g><g><path fill="#bcceb2" d="M 334.796875 377.730469 C 333.957031 377.714844 333.113281 377.695312 332.273438 377.679688 C 332.6875 377.042969 333.097656 376.40625 333.507812 375.769531 C 333.726562 375.78125 333.945312 375.796875 334.164062 375.8125 C 334.375 376.449219 334.585938 377.089844 334.796875 377.730469"/></g><g><path fill="#a1bb93" d="M 235.375 397.925781 C 234.480469 397.066406 233.699219 396.203125 235.351562 395.320312 C 235.140625 396.191406 236.5625 397.046875 235.375 397.925781"/></g><g><path fill="#a8c09c" d="M 241.878906 400.722656 C 241.671875 401.050781 241.5625 401.453125 241.359375 401.507812 C 240.824219 401.652344 240.628906 401.21875 240.683594 400.789062 C 240.714844 400.5625 241.003906 400.238281 241.214844 400.210938 C 241.394531 400.1875 241.621094 400.511719 241.878906 400.722656"/></g><g><path fill="#a2bb94" d="M 233.421875 386.21875 C 233.328125 384.679688 234.835938 385.53125 235.363281 384.917969 C 235.289062 386.214844 234.808594 386.894531 233.421875 386.21875"/></g><g><path fill="#9fb991" d="M 334.167969 372.546875 C 333.515625 371.890625 332.867188 371.238281 332.21875 370.582031 C 332.21875 370.371094 332.21875 370.160156 332.21875 369.953125 C 333.914062 370.03125 334.226562 371.148438 334.167969 372.546875"/></g><g><path fill="#a6be9a" d="M 233.417969 387.507812 C 232.992188 387.71875 232.5625 387.929688 232.136719 388.140625 C 231.917969 387.71875 231.703125 387.292969 231.484375 386.867188 C 232.132812 386.644531 232.78125 386.421875 233.429688 386.199219 C 233.425781 386.632812 233.421875 387.070312 233.417969 387.507812"/></g><g><path fill="#96a575" d="M 288.019531 265.1875 C 288.574219 268.957031 291.585938 272.140625 290.660156 276.265625 C 287.480469 273.121094 288.292969 269.023438 288.019531 265.1875"/></g><g><path fill="#96b287" d="M 267.824219 248.246094 C 268.96875 247.402344 269.59375 246.796875 270.765625 247.261719 C 270.140625 248.246094 269.484375 248.757812 267.824219 248.246094"/></g><g><path fill="#96a575" d="M 291.222656 278.925781 C 290.589844 278.683594 289.953125 278.4375 289.320312 278.195312 C 289.34375 277.324219 289.8125 276.914062 290.660156 276.898438 C 291.40625 277.421875 291.246094 278.191406 291.222656 278.925781"/></g><g><path fill="#96b287" d="M 224.890625 258.660156 C 224.542969 258.871094 224.296875 259.140625 224.121094 259.097656 C 223.886719 259.039062 223.707031 258.75 223.503906 258.554688 C 223.699219 258.40625 223.902344 258.128906 224.089844 258.140625 C 224.316406 258.15625 224.527344 258.410156 224.890625 258.660156"/></g><g><path fill="#94a575" d="M 343.320312 369.273438 C 341.6875 368.382812 341.46875 371.039062 340.011719 370.59375 C 338.796875 371.40625 338.199219 371.09375 337.8125 369.65625 C 337.429688 368.222656 336.246094 367.769531 334.8125 367.988281 C 333.957031 366.027344 333.097656 364.066406 332.242188 362.105469 C 336.265625 363.980469 340.28125 365.867188 343.320312 369.273438"/></g><g><path fill="#d19d76" d="M 253.566406 188.421875 C 253.347656 187.550781 253.128906 186.679688 252.90625 185.808594 C 253.152344 185.371094 253.75 184.667969 253.945312 185.070312 C 254.476562 186.152344 255.527344 187.535156 253.566406 188.421875"/></g><g><path fill="#cd956c" d="M 284.035156 252.761719 C 283.882812 252.855469 283.253906 253.285156 282.574219 253.601562 C 282.503906 253.632812 281.945312 253.007812 281.921875 252.667969 C 281.867188 251.765625 282.574219 251.316406 283.308594 251.121094 C 283.796875 250.988281 284.007812 251.472656 284.035156 252.761719"/></g><g><path fill="#ce976e" d="M 275.933594 239.195312 C 274.808594 238.3125 274.273438 237.617188 274.617188 236.585938 C 274.648438 236.484375 275.183594 236.429688 275.402344 236.53125 C 276.550781 237.0625 276.339844 237.9375 275.933594 239.195312"/></g><g><path fill="#9aa272" d="M 323.777344 319.863281 C 324.039062 321.386719 323.332031 322.589844 322.476562 323.734375 C 321.417969 321.941406 323.484375 321.199219 323.777344 319.863281"/></g><g><path fill="#ce986f" d="M 268.644531 204.351562 C 270.039062 204.203125 270.480469 204.890625 270.890625 206.128906 C 269.59375 206.019531 269.054688 205.457031 268.644531 204.351562"/></g><g><path fill="#ce9f79" d="M 276.996094 250.152344 C 276.953125 249.550781 276.90625 248.953125 276.859375 248.351562 C 280.761719 246.386719 276.222656 250.796875 278.273438 250.226562 C 277.847656 250.203125 277.421875 250.175781 276.996094 250.152344"/></g><g><path fill="#d2a07b" d="M 334.601562 353.445312 C 334.375 353.613281 334.089844 353.925781 333.734375 354.058594 C 333.398438 354.1875 333.050781 353.894531 333.210938 353.574219 C 333.367188 353.253906 333.757812 353 334.101562 352.824219 C 334.507812 352.617188 334.632812 352.90625 334.601562 353.445312"/></g><g><path fill="#d19c76" d="M 269.808594 230.050781 C 269.902344 229.570312 270 229.089844 270.09375 228.609375 C 270.335938 228.734375 270.714844 228.808594 270.789062 228.996094 C 271.140625 229.910156 270.414062 229.945312 269.824219 230.066406 L 269.808594 230.050781"/></g><g><path fill="#a9cce4" d="M 2.679688 379.71875 C 3.117188 379.066406 3.558594 378.417969 3.996094 377.769531 C 4.4375 377.550781 4.875 377.335938 5.320312 377.117188 C 5.738281 377.328125 6.164062 377.539062 6.582031 377.746094 C 6.367188 378.398438 6.148438 379.050781 5.929688 379.703125 C 5.5625 380.464844 4.628906 379.421875 4.265625 380.257812 C 4.429688 381.472656 5.746094 381.152344 6.546875 381.648438 C 5.664062 382.957031 4.304688 383.621094 3.882812 385.042969 C 3.738281 385.53125 3.304688 386.054688 2.671875 385.683594 C 2.15625 385.382812 2.023438 384.785156 2.378906 384.285156 C 3.421875 382.808594 3.28125 381.285156 2.679688 379.71875"/></g><g><path fill="#cd956c" d="M 387.910156 439.902344 C 386.84375 440.378906 385.695312 440.957031 384.496094 441.378906 C 384.039062 441.539062 383.699219 441.066406 383.808594 440.574219 C 384.183594 438.851562 385.84375 438.992188 387.023438 438.523438 C 387.410156 438.371094 387.90625 439.019531 387.910156 439.902344"/></g><g><path fill="#d19d77" d="M 390.703125 438.261719 C 390.539062 439.914062 392.679688 440.070312 392.855469 441.777344 C 391.683594 441.683594 390.550781 441.589844 389.417969 441.496094 C 390.441406 440.65625 388.976562 438.824219 390.703125 438.261719"/></g><g><path fill="#cd956c" d="M 385.535156 427.210938 C 385.746094 427.640625 385.953125 428.066406 386.160156 428.496094 C 386.0625 428.535156 385.957031 428.628906 385.863281 428.613281 C 384.609375 428.445312 384.503906 431.347656 383.4375 430.011719 C 382.652344 429.03125 384.054688 427.617188 385.535156 427.210938"/></g><g><path fill="#d09a73" d="M 388.109375 442.804688 C 389.421875 446.371094 385.949219 443.539062 385.507812 444.757812 C 385.699219 443.203125 386.929688 443.039062 388.109375 442.804688"/></g><g><path fill="#cf9972" d="M 380.644531 429.011719 C 380.675781 429.382812 381.007812 429.941406 380.367188 429.980469 C 379.871094 430.011719 379.257812 429.714844 379.28125 429.085938 C 379.292969 428.742188 379.613281 428.230469 379.917969 428.117188 C 380.855469 427.757812 380.492188 428.625 380.644531 429.011719"/></g><g><path fill="#d4a37f" d="M 374.46875 431.742188 C 374.222656 433.429688 372.703125 432.570312 371.855469 433.050781 C 371.617188 430.394531 373.703125 432.386719 374.46875 431.742188"/></g><g><path fill="#cf9971" d="M 357.554688 400.488281 C 357.113281 400.691406 356.769531 400.964844 356.648438 400.886719 C 356.328125 400.683594 355.945312 400.363281 355.871094 400.023438 C 355.742188 399.441406 356.242188 399.316406 356.648438 399.527344 C 356.96875 399.691406 357.175781 400.070312 357.554688 400.488281"/></g><g><path fill="#d09a73" d="M 385.503906 444.757812 C 385.664062 445.566406 387.222656 445.117188 386.914062 445.980469 C 386.492188 447.15625 385.570312 446.296875 384.855469 446.070312 C 384.867188 445.53125 384.976562 445.039062 385.503906 444.757812"/></g><g><path fill="#d19d77" d="M 374.203125 408.394531 C 374.84375 408.535156 375.046875 408.890625 375.015625 409.359375 C 374.992188 409.714844 374.714844 409.964844 374.402344 409.738281 C 374.082031 409.507812 373.882812 409.113281 373.628906 408.789062 C 373.847656 408.636719 374.066406 408.488281 374.203125 408.394531"/></g><g><path fill="#f9d399" d="M 482.359375 347.804688 C 483.46875 347.515625 485.210938 348.597656 485.34375 346.121094 C 485.375 345.558594 487.195312 345.09375 488.191406 344.582031 C 488.847656 345.660156 489.5 346.738281 490.15625 347.8125 C 489.351562 347.527344 488.527344 347.296875 487.753906 346.945312 C 487.078125 346.636719 486.464844 346.59375 486.042969 347.226562 C 485.363281 348.253906 486.515625 348.382812 487.539062 348.9375 C 485.300781 349.007812 483.394531 350.304688 482.359375 347.804688"/></g><g><path fill="#f9d397" d="M 491.441406 349.105469 C 491.445312 349.339844 491.453125 349.574219 491.460938 349.804688 C 491.296875 350.71875 491.8125 351.722656 490.816406 352.976562 C 490.695312 351.347656 488.523438 349.957031 491.441406 349.105469"/></g><g><path fill="#f8cb84" d="M 65.089844 256.742188 C 64.59375 255.714844 67.816406 253.890625 64.398438 253.476562 C 64.796875 253.140625 63.652344 251.09375 65.636719 252.429688 C 66.25 252.839844 66.304688 251.890625 66.359375 251.429688 C 66.523438 250.066406 66.515625 248.621094 68.328125 248.308594 C 68.386719 249.621094 69.265625 250.3125 70.285156 250.894531 C 70.109375 252.222656 66.609375 253.816406 71.417969 254.976562 C 68.542969 254.273438 66.800781 254.363281 66.265625 256.953125 C 66.265625 256.964844 65.5 256.816406 65.089844 256.742188"/></g><g><path fill="#f8cb84" d="M 67.679688 260.640625 C 67.601562 259.738281 67.527344 258.839844 67.449219 257.941406 C 67.824219 258.835938 70.019531 259.710938 67.679688 260.636719 L 67.679688 260.640625"/></g><g><path fill="#c3dbec" d="M 553.851562 157.84375 C 553.894531 156.410156 553.140625 154.96875 553.90625 153.527344 C 554.742188 153.902344 554.386719 154.65625 554.511719 155.246094 C 555.132812 156.324219 555.242188 157.273438 553.851562 157.84375"/></g><g><path fill="#bed8eb" d="M 560.421875 159.808594 C 560.609375 159.890625 561.117188 159.980469 561.136719 160.136719 C 561.203125 160.628906 560.785156 160.878906 560.347656 160.976562 C 559.902344 161.074219 559.417969 161.003906 559.378906 160.464844 C 559.339844 159.878906 559.878906 159.886719 560.421875 159.808594"/></g><g><path fill="#accee5" d="M 557.554688 149.777344 C 557.34375 149.914062 557.058594 150.175781 556.71875 150.285156 C 556.625 150.316406 556.386719 149.898438 556.210938 149.683594 C 556.464844 149.515625 556.699219 149.3125 556.96875 149.195312 C 557.296875 149.054688 557.546875 149.160156 557.554688 149.777344"/></g><g><path fill="#d19e78" d="M 252.929688 179.964844 C 252.492188 179.964844 252.054688 179.960938 251.621094 179.960938 C 251.285156 179.25 250.988281 178.324219 252.070312 178.253906 C 252.988281 178.195312 252.386719 179.492188 252.929688 179.964844"/></g><g><path fill="#d29f7a" d="M 391.953125 444.539062 C 391.855469 445.75 392.378906 447.414062 390.136719 447.894531 C 390.871094 446.539062 391.410156 445.539062 391.953125 444.539062"/></g><g><path fill="#dab092" d="M 386.171875 451.28125 C 385.628906 451.257812 385.128906 451.148438 384.847656 450.609375 C 385.527344 450.386719 386.234375 449.515625 386.890625 450.1875 C 387.378906 450.691406 386.582031 451.007812 386.171875 451.28125"/></g><g><path fill="#cc9268" d="M 396.5625 452.558594 C 397.070312 452.429688 397.585938 452.324219 398.082031 452.164062 C 398.777344 451.9375 399.367188 450.628906 400.167969 451.738281 C 400.675781 452.449219 401.113281 453.398438 400.347656 454.371094 C 400.046875 454.753906 399.984375 455.332031 399.8125 455.820312 C 399.257812 456.140625 398.78125 455.859375 398.296875 455.632812 C 397.707031 455.339844 397.105469 455.058594 396.644531 454.5625 C 396.398438 454.550781 396.152344 454.535156 395.90625 454.523438 C 394.683594 454.589844 394.886719 453.945312 395.257812 453.21875 C 395.796875 453.203125 396.285156 453.085938 396.5625 452.558594"/></g><g><path fill="#d09c75" d="M 398.628906 455.144531 C 399.023438 455.371094 399.417969 455.59375 399.8125 455.820312 L 399.8125 455.816406 C 400.660156 456.167969 399.1875 458.175781 401.164062 457.722656 C 402.863281 458.667969 402.128906 459.53125 401.074219 460.382812 C 400.230469 460.597656 399.386719 460.816406 398.542969 461.035156 C 397.765625 460.941406 396.992188 460.847656 397.199219 459.734375 C 398.230469 459.082031 397.363281 458.386719 397.242188 457.710938 C 398.125 457.082031 397.503906 455.640625 398.628906 455.144531"/></g><g><path fill="#e2c2aa" d="M 398.628906 455.144531 C 398.277344 456.0625 399.136719 457.632812 397.242188 457.710938 C 397.1875 456.632812 396.296875 455.714844 396.644531 454.5625 C 397.359375 454.574219 398.132812 454.382812 398.628906 455.144531"/></g><g><path fill="#d7ab89" d="M 397.199219 459.734375 C 397.644531 460.167969 398.09375 460.601562 398.542969 461.035156 C 398.546875 461.253906 398.550781 461.472656 398.554688 461.6875 C 398.105469 462.035156 397.648438 462.085938 397.191406 461.707031 C 396.550781 461.234375 395.90625 461.324219 395.253906 461.683594 C 395.121094 460.253906 395.742188 459.574219 397.199219 459.734375"/></g><g><path fill="#e8cdba" d="M 392.632812 459.699219 C 391.589844 459.863281 391.359375 458.757812 390.644531 458.410156 C 390.792969 457.765625 391.082031 456.886719 391.78125 457.226562 C 392.660156 457.648438 392.40625 458.839844 392.632812 459.699219"/></g><g><path fill="#d4a480" d="M 393.238281 453.460938 C 393.160156 454.0625 392.890625 454.351562 392.417969 454.410156 C 392.058594 454.457031 391.75 454.300781 391.828125 453.910156 C 391.929688 453.410156 392.03125 452.777344 392.753906 452.882812 C 392.960938 452.910156 393.113281 453.304688 393.238281 453.460938"/></g><g><path fill="#d09c75" d="M 395.257812 453.21875 C 395.273438 453.753906 395.386719 454.238281 395.90625 454.523438 C 395.472656 455.085938 394.816406 455.4375 394.371094 454.8125 C 393.753906 453.941406 394.667969 453.601562 395.257812 453.21875"/></g><g><path fill="#dcb497" d="M 387.179688 455.144531 C 386.34375 455.773438 386.058594 456.117188 385.707031 456.21875 C 385.339844 456.320312 385.152344 455.960938 385.339844 455.644531 C 385.527344 455.316406 385.800781 454.976562 386.125 454.8125 C 386.308594 454.71875 386.664062 454.96875 387.179688 455.144531"/></g><g><path fill="#e0bea5" d="M 392.003906 465.566406 C 391.574219 464.925781 391.148438 464.285156 390.722656 463.644531 C 391.15625 463.417969 391.589844 463.191406 392.023438 462.96875 C 392.039062 463.835938 392.679688 464.707031 392.003906 465.566406"/></g><g><path fill="#a1bb94" d="M 211.3125 1.710938 C 212.816406 1.523438 214.464844 0.902344 215.234375 2.988281 C 214.132812 1.917969 211.886719 4.386719 211.3125 1.710938"/></g><g><path fill="#a0a070" d="M 354.273438 377.761719 C 351.710938 378.742188 352.097656 376.074219 351.0625 375.160156 C 352.710938 373.765625 353.765625 375.210938 354.832031 376.054688 C 355.894531 376.898438 354.410156 377.167969 354.273438 377.761719"/></g><g><path fill="#a0a070" d="M 354.3125 379.699219 C 352.597656 380.507812 351.390625 379.800781 350.414062 378.398438 C 351.707031 378.394531 353 378.394531 354.292969 378.390625 C 354.367188 378.824219 355.042969 379.253906 354.3125 379.699219"/></g><g><path fill="#89a979" d="M 334.8125 367.988281 C 335.65625 367.679688 335.046875 366.84375 335.5 366.183594 C 336.386719 366.609375 336.394531 370.25 338.125 367.132812 C 339.863281 367.851562 336.855469 370.753906 340.011719 370.59375 C 339.828125 372.179688 338.160156 373.34375 338.714844 375.144531 C 337.589844 373.601562 334.960938 374.699219 334.183594 372.550781 C 337.148438 371.414062 334.492188 369.496094 334.8125 367.988281"/></g><g><path fill="#cee2f0" d="M 9.175781 375.148438 C 10.617188 375.234375 10.789062 376.429688 11.558594 377.59375 C 9.867188 377.230469 9.296875 376.386719 9.1875 375.140625 L 9.175781 375.148438"/></g><g><path fill="#a9cce4" d="M 6.582031 377.746094 C 7.03125 377.207031 7.476562 376.667969 8.054688 375.964844 C 8.453125 377.628906 7.390625 377.5625 6.582031 377.746094"/></g><g><path fill="#afc5a4" d="M 230.777344 380.972656 C 231.308594 381.3125 232.003906 381.542969 231.832031 382.378906 C 231.808594 382.496094 231.472656 382.675781 231.359375 382.632812 C 230.527344 382.3125 230.929688 381.546875 230.800781 380.964844 C 230.800781 380.964844 230.777344 380.972656 230.777344 380.972656"/></g><g><path fill="#ce966d" d="M 394.625 467.535156 C 394.667969 467.894531 395.117188 468.515625 394.644531 468.570312 C 393.535156 468.691406 393.425781 467.71875 393.289062 466.894531 C 393.398438 466.105469 393.117188 465.027344 394.425781 465.046875 C 395.230469 465.054688 396.003906 465.605469 396.035156 466.324219 C 396.070312 467.191406 395.03125 466.6875 394.554688 466.992188 C 394.480469 467.035156 394.433594 467.183594 394.445312 467.277344 C 394.460938 467.367188 394.5625 467.449219 394.625 467.535156"/></g><g><path fill="#d09c75" d="M 403.683594 464.910156 C 403.042969 464.917969 402.40625 464.925781 401.765625 464.929688 C 399.339844 464.289062 401.820312 462.660156 401.109375 461.671875 C 401.542969 462.109375 401.976562 462.546875 402.40625 462.984375 C 403.171875 463.402344 404.097656 463.710938 403.683594 464.910156"/></g><g><path fill="#d09c75" d="M 397.191406 461.707031 C 397.644531 461.699219 398.101562 461.695312 398.554688 461.6875 C 399.152344 462.28125 399.832031 462.871094 399.167969 463.796875 C 398.90625 464.160156 398.453125 464.230469 398.046875 463.980469 C 397.179688 463.453125 396.542969 462.816406 397.191406 461.707031"/></g><g><path fill="#cb9166" d="M 401.164062 457.722656 C 400.808594 458.390625 400.394531 459.003906 399.480469 459.390625 C 399.410156 458.128906 399.109375 456.949219 399.8125 455.816406 C 401.15625 455.324219 402.03125 455.753906 402.410156 457.152344 C 401.902344 457.140625 401.433594 457.207031 401.164062 457.722656"/></g><g><path fill="#d6a785" d="M 403.683594 464.910156 C 403.257812 464.265625 402.832031 463.625 402.40625 462.984375 C 403.335938 462.410156 404.542969 462.210938 405.011719 461.023438 C 406.222656 461.019531 405.929688 461.699219 405.632812 462.382812 C 405.179688 463.375 406.460938 465.667969 403.71875 464.941406 L 403.683594 464.910156"/></g><g><path fill="#e1c0a7" d="M 403.71875 464.941406 C 405.496094 464.941406 404.59375 462.9375 405.632812 462.382812 C 405.851562 462.550781 406.070312 462.71875 406.289062 462.886719 C 406.503906 463.5625 406.722656 464.238281 406.941406 464.910156 C 405.910156 464.851562 405.351562 465.804688 404.496094 466.074219 C 403.210938 466.472656 403.402344 465.71875 403.71875 464.941406"/></g></g></svg>