<?xml version="1.0" encoding="UTF-8" standalone="no"?><svg xmlns="http://www.w3.org/2000/svg" xmlns:xlink="http://www.w3.org/1999/xlink" contentScriptType="text/ecmascript" fill="#000000" width="71.3" zoomAndPan="magnify" contentStyleType="text/css" viewBox="-1.7 -0.3 71.3 32.7" height="32.7" preserveAspectRatio="xMidYMid meet" version="1"><g id="change1_1"><path fill="#b798c7" d="M0.45,3.16c-2.14,10.38,3.44,21.39,13.35,25.37c9.73,3.91,23.31,0.19,27.44-10.1 c1.16-2.88,1.09-6.08,0.06-8.99c-0.9-2.55-2.26-5.23-4.38-6.98c-2.27-1.88-5.18-2.48-7.91-1.2c-2.74,1.29-4.33,4.09-4.63,7.02 c-0.58,5.7,3.45,11.03,7.76,14.27c4.38,3.29,9.96,5.08,15.41,5.38c6.41,0.35,12.74-2.39,16.72-7.45c4.1-5.21,5.29-12.37,3.07-18.64 c-0.45-1.27-1.71-2.12-3.08-1.75c-1.23,0.34-2.2,1.8-1.75,3.08c1.46,4.13,1.21,8.71-1.01,12.53c-2.01,3.47-5.46,5.95-9.35,6.89 c-4.17,1-8.94,0.07-12.83-1.62c-3.63-1.58-6.91-4.08-8.81-7.61c-0.93-1.73-1.72-4.1-0.85-6.02c0.51-1.12,1.77-2.13,3.03-1.7 c1.7,0.57,2.78,2.81,3.44,4.3c0.85,1.93,1.27,4.02,0.66,6.07c-1.11,3.72-4.73,6.56-8.25,7.87c-3.75,1.39-7.84,1.59-11.67,0.45 C8.69,21.89,3.56,12.8,5.27,4.49c0.27-1.32-0.38-2.7-1.75-3.08C2.29,1.07,0.73,1.83,0.45,3.16L0.45,3.16z"/></g></svg>